<svg xmlns="http://www.w3.org/2000/svg" height="472px" width="498px" version="1.1"><polyline points="304.0,22.5,315.5,26.5,325.0,30.5,332.5,34.5,339.0,38.5,345.0,42.5,350.0,46.5,355.0,50.5,359.5,54.5,363.5,58.5,367.5,62.5,371.5,66.5,375.0,70.5,379.0,74.5,383.0,78.5,387.5,82.5,393.5,86.5" stroke="black" stroke-width="1" fill="none" />
<polyline points="409.5,113.5,413.5,112.0,417.5,110.0,421.5,107.5,425.5,104.0,429.5,98.5" stroke="black" stroke-width="1" fill="none" />
<polyline points="438.5,118.5,444.5,114.5,442.0,116.5,438.0,119.0,434.0,121.0,430.0,122.0,426.0,122.0,422.0,121.5,418.0,120.5,414.0,118.5,410.0,115.0" stroke="black" stroke-width="1" fill="none" />
<polyline points="441.5,126.5,437.5,131.0,433.5,133.5,429.5,135.5,425.5,136.5,421.5,137.0,417.5,137.0,413.5,136.5,409.5,135.5,405.5,134.0,401.5,132.0,397.5,129.5,393.5,126.0,389.5,122.5,385.5,117.5,381.5,112.5,377.5,107.0,373.5,101.5,369.5,95.5,365.5,90.0,361.5,84.5,357.5,80.0,353.5,75.5,349.5,72.0,345.5,68.5,341.5,65.0,337.5,62.0,333.5,59.0,329.5,56.5,325.5,54.5,321.5,52.5,317.5,50.5,313.5,48.5,309.5,47.0,305.5,45.5,301.5,44.5,297.5,43.5,293.5,42.5,289.5,41.5,285.5,41.0,281.5,40.5,277.5,40.0,273.5,39.5,269.5,39.5,265.5,39.5,261.5,39.5,257.5,39.5,253.5,39.5,249.5,40.0,245.5,40.5,241.5,41.0,237.5,41.5,233.5,42.5,229.5,43.0,225.5,44.0,221.5,45.0,217.5,46.0,213.5,47.5,209.5,48.5,205.5,50.0,201.5,51.5,197.5,53.0,193.5,55.5,189.5,57.5,185.5,59.5,181.5,62.0,177.5,64.5,173.5,67.0,169.5,70.0,165.5,73.0,161.5,76.0,157.5,79.0,153.5,83.0,149.5,86.5,145.5,90.5,141.5,94.5,137.5,99.0,133.5,104.0,129.5,109.0,125.5,114.5,121.5,120.5,117.5,127.0,113.5,134.5,109.5,142.5,105.5,152.0" stroke="black" stroke-width="1" fill="none" />
<polyline points="153.5,178.0,157.5,180.5" stroke="black" stroke-width="1" fill="none" />
<polyline points="170.0,187.5,172.0,183.5,178.0,179.5,178.5,175.5,179.5,171.5,183.0,167.5,186.0,163.5,188.0,159.5,189.5,155.5,195.0,151.5,198.5,150.0,194.5,152.0,190.5,154.5,186.5,162.0,182.5,168.0,178.5,174.5" stroke="black" stroke-width="1" fill="none" />
<polyline points="184.5,186.5,188.5,177.0,192.5,170.0,196.5,164.0" stroke="black" stroke-width="1" fill="none" />
<polyline points="199.5,150.5,199.5,154.5,198.5,158.5,197.5,162.5,195.0,166.5,192.5,170.5,189.5,174.5,188.0,178.5,186.0,182.5,184.5,186.5,183.5,190.5,182.5,194.5,182.5,198.5,182.5,202.5,184.0,205.0,188.0,205.0,192.0,204.0,196.0,203.5,200.0,203.0,204.0,202.5,208.0,202.0,212.0,201.5,216.0,201.0,220.0,200.5,224.0,200.0,228.0,199.5,232.0,199.0,236.0,198.5,240.0,198.0,244.0,197.0,248.0,197.0,252.0,196.0,256.0,196.0,260.0,195.0,264.0,194.5,268.0,194.0,272.0,193.5,276.0,193.0" stroke="black" stroke-width="1" fill="none" />
<polyline points="273.0,167.0,277.0,162.0,281.0,161.0,285.0,161.0,289.0,162.5" stroke="black" stroke-width="1" fill="none" />
<polyline points="279.5,161.0,274.0,165.0,272.5,169.0,272.5,173.0,273.0,177.0,274.0,181.0,275.0,185.0,276.5,189.0" stroke="black" stroke-width="1" fill="none" />
<polyline points="300.5,163.5,304.5,155.5,308.5,151.0,312.5,147.5,316.5,144.5" stroke="black" stroke-width="1" fill="none" />
<polyline points="313.0,138.0,317.0,142.0,314.0,146.0,309.5,150.0,306.0,154.0,303.0,158.0,301.5,162.0,300.0,166.0,299.0,170.0,298.5,174.0,298.5,178.0,298.0,182.0,297.5,186.0,298.0,190.0,301.5,189.5,305.5,189.0,309.5,188.5,313.5,188.0,317.5,187.5,321.5,187.0,325.5,186.5,329.5,185.5,333.5,178.5,337.5,174.0,341.5,171.0,345.5,168.0,349.5,165.0,353.5,161.5,356.0,161.0,354.0,165.0,352.0,169.0,350.0,173.0,348.0,177.0,345.5,181.0,343.5,185.0,340.5,189.0,333.0,193.0" stroke="black" stroke-width="1" fill="none" />
<polyline points="354.0,190.5,358.0,190.5,362.0,189.5,366.0,189.5,370.0,188.5,374.0,188.5,378.0,187.5,382.0,187.5,386.0,186.5,390.0,186.5,394.0,185.5,398.0,185.5,402.0,184.5,406.0,184.0,410.0,183.5,414.0,183.0,418.0,182.5,422.0,181.5,426.0,180.5,430.0,179.5,434.0,178.0,438.0,175.5,442.0,172.5,446.0,175.0,443.5,173.0,447.0,177.0,449.0,181.0,450.0,185.0,450.5,189.0,450.5,193.0,449.5,197.0" stroke="black" stroke-width="1" fill="none" />
<polyline points="474.0,203.0,470.0,209.0,466.0,212.0,462.0,214.0,458.0,214.5,454.0,215.0,450.0,214.0,446.0,213.5,442.0,212.0,438.0,210.5,434.0,209.0,430.0,207.5,426.0,206.0,422.0,204.5,418.0,203.0,414.0,202.0,410.0,201.0,406.0,200.0,402.0,199.0,401.5,199.0,405.5,197.5,409.5,197.0,413.5,196.5,417.5,196.0,421.5,195.5,425.5,195.0,429.5,195.0,433.5,194.5,437.5,195.0,441.5,195.5,445.5,197.0,449.5,196.5" stroke="black" stroke-width="1" fill="none" />
<polyline points="442.5,212.5,432.0,208.5,422.0,204.5" stroke="black" stroke-width="1" fill="none" />
<polyline points="406.5,207.5,416.0,211.5,425.0,215.5,432.0,219.5,439.5,223.5,449.5,227.5" stroke="black" stroke-width="1" fill="none" />
<polyline points="485.0,189.0,481.0,183.5,477.0,181.5,477.5,181.0,477.0,185.0,477.5,189.0,477.0,193.0,476.0,197.0,475.0,201.0,473.0,205.0,470.0,209.0,464.0,213.0" stroke="black" stroke-width="1" fill="none" />
<polyline points="496.0,211.5,492.0,218.0,488.0,221.5,484.0,224.5,480.0,226.5,476.0,227.5,472.0,228.5,468.0,229.5,464.0,229.5,460.0,229.5,456.0,229.0,452.0,228.0,448.0,227.0,444.0,225.5,440.0,223.5,436.0,221.0,432.0,219.0,428.0,216.5,424.0,215.0,420.0,213.0,416.0,211.0,412.0,209.5,408.0,208.0,404.0,206.5,400.0,205.0,396.0,204.0,392.0,203.0,388.0,202.0,384.0,201.5,380.0,201.0,376.0,201.0,372.0,201.5,368.0,202.0,364.0,202.5,360.0,203.0,356.0,203.5,352.0,204.0,348.0,204.0,344.0,205.0,340.0,205.0,336.0,206.0,332.0,206.0,328.0,207.0,324.0,207.0,320.0,208.0,316.0,208.0,312.0,209.0,308.0,209.0,304.0,210.0,300.0,210.0,296.0,210.5,292.0,211.0,288.0,211.5,284.0,212.0,280.0,212.5,276.0,213.0,272.0,213.5,268.0,214.0,264.0,214.5,260.0,215.0,256.0,215.5,252.0,216.0,248.0,216.5,244.0,217.0,240.0,217.5,236.0,218.0,232.0,218.5,228.0,219.0,224.0,219.5,220.0,220.0,216.0,220.5,212.0,221.0,208.0,221.0,204.0,222.0,200.0,222.0,196.0,222.5,192.0,223.0,188.0,223.5,184.0,224.0,180.0,224.5,176.0,225.0,172.0,225.5,168.0,226.0,164.0,226.5,160.0,227.0,156.0,227.5,152.0,228.0,148.0,228.5,144.0,229.0,140.0,229.5,136.0,230.0,132.0,230.5,128.0,231.0,124.0,231.5,120.0,232.0,116.0,232.5,112.0,233.0,108.0,233.5,104.0,233.5,100.0,234.5,96.0,234.5,92.0,235.5,88.0,235.5,84.0,236.5,80.0,236.5,76.0,237.5,72.0,237.5,68.0,238.5,64.0,238.5,60.0,239.0,56.0,239.5,52.0,240.0,48.0,240.5,44.0,241.0,40.0,241.5,36.0,242.0,32.0,242.5,28.0,243.0,24.0,243.5,20.0,244.0,16.0,244.5,12.0,245.0,8.0,245.5,4.0,245.5,0.0,246.5" stroke="black" stroke-width="1" fill="none" />
<polyline points="0.0,240.0,4.0,239.5,8.0,239.0,12.0,238.5,16.0,237.5,20.0,237.0,24.0,236.5,28.0,236.0,32.0,235.5,36.0,235.0,40.0,234.5,44.0,233.5,48.0,233.0,52.0,232.5,56.0,232.0,60.0,231.5,64.0,231.0,68.0,230.5,72.0,230.0,76.0,229.0,80.0,228.5,84.0,228.0,88.0,227.5,92.0,227.0,96.0,226.5,100.0,226.0,104.0,225.0,108.0,224.5,112.0,224.0,116.0,223.5,120.0,223.0,124.0,222.5,128.0,222.0,132.0,221.0,136.0,221.0,140.0,220.0,144.0,219.5,148.0,219.0,152.0,218.5,156.0,218.0,160.0,217.0,164.0,217.0,168.0,216.0,172.0,216.0,176.0,215.0,180.0,214.5,184.0,214.0,188.0,213.5,192.0,213.0,196.0,212.5,200.0,212.0,204.0,211.0,208.0,211.0,212.0,210.0,216.0,209.5,220.0,209.0,224.0,208.5,228.0,208.0,232.0,207.5,236.0,207.0,240.0,206.0,244.0,206.0,248.0,205.0,252.0,204.5,256.0,204.0,260.0,203.5,264.0,203.0,268.0,202.5,272.0,202.0,276.0,201.0,280.0,201.0,284.0,200.0,288.0,199.5,292.0,199.0,296.0,198.5,300.0,198.0,304.0,197.5,308.0,197.0,312.0,196.5,316.0,195.5,320.0,195.0,324.0,194.5,328.0,194.0,332.0,193.5,336.0,192.0,340.0,189.5,344.0,184.0,348.0,176.5,352.0,168.5,356.0,162.0,351.0,163.5,346.0,167.5,340.5,171.5,336.0,175.5,333.0,179.5,331.0,183.5" stroke="black" stroke-width="1" fill="none" />
<polyline points="337.5,136.0,341.5,139.0,345.5,140.5,349.5,141.0,353.5,140.0,357.5,139.0,361.5,138.5,365.5,137.5,369.5,137.0,373.5,137.0,377.5,136.5,381.5,137.0,384.0,138.0,384.0,142.0,382.0,146.0,380.5,150.0,379.0,154.0,377.0,158.0,375.0,162.0,373.0,166.0,370.5,170.0,367.0,174.0,363.5,178.0,359.5,182.0,356.5,186.0,353.5,190.0,356.0,186.5,360.0,181.5,364.0,177.5,368.0,173.0,372.0,167.5,376.0,160.0,380.0,150.5" stroke="black" stroke-width="1" fill="none" />
<polyline points="365.0,124.5,361.0,128.5,357.0,131.0,353.0,133.0,349.0,134.0,345.0,134.5,341.0,135.0,337.0,135.5,337.5,134.5,340.0,138.5" stroke="black" stroke-width="1" fill="none" />
<polyline points="352.0,118.5,356.0,119.5,360.0,119.0,364.0,117.0,366.0,115.5,367.5,116.0,367.5,120.0,365.5,124.0,361.5,128.0,354.5,132.0" stroke="black" stroke-width="1" fill="none" />
<polyline points="355.0,115.5,352.0,117.5,356.5,113.5,357.5,110.5,353.5,111.5,349.5,110.5,345.5,108.0,341.5,104.5,337.5,101.5,333.5,99.5,329.5,97.5,325.5,97.0,321.5,96.5,317.5,96.5,313.5,97.5,309.5,98.5,305.5,101.0,301.5,104.5,297.5,111.5" stroke="black" stroke-width="1" fill="none" />
<polyline points="312.0,97.5,304.5,101.5,301.0,105.5,298.5,109.5,297.0,113.5,296.5,117.5,296.0,121.5,296.0,125.5,296.5,129.5,297.5,133.5,298.0,137.5,301.0,138.5,305.0,139.0,309.0,139.0,313.0,138.0,317.0,141.5" stroke="black" stroke-width="1" fill="none" />
<polyline points="288.5,152.5,284.5,148.0,280.5,146.5,276.5,145.0,272.5,143.5,268.5,140.5,268.0,139.0,271.0,143.0,281.5,147.0,287.5,151.0,289.5,155.0,290.5,159.0" stroke="black" stroke-width="1" fill="none" />
<polyline points="280.0,134.5,276.0,138.0,272.0,139.0,268.0,139.0" stroke="black" stroke-width="1" fill="none" />
<polyline points="280.0,130.5,276.0,127.5,272.0,124.0,268.0,120.5,264.0,119.0,260.0,118.0,256.0,117.5,252.0,117.5" stroke="black" stroke-width="1" fill="none" />
<polyline points="264.0,119.0,270.5,123.0,275.0,127.0,280.5,131.0,279.0,135.5" stroke="black" stroke-width="1" fill="none" />
<polyline points="265.0,109.0,261.0,113.0,257.0,114.5,253.0,116.0,256.5,114.5,264.0,110.5,266.0,106.5,263.0,105.5,259.0,104.5,255.0,102.5,251.0,101.5,247.0,101.0,243.0,101.0,239.0,101.0" stroke="black" stroke-width="1" fill="none" />
<polyline points="246.0,88.0,242.0,92.0,240.5,96.0,238.5,100.0,241.0,94.5,245.0,88.5,249.0,87.5,249.0,84.0,245.0,83.0,241.0,83.0,237.0,83.5,233.0,84.5,229.0,86.5,225.0,88.5,221.0,91.0,217.0,93.0,219.0,92.0,226.0,88.0,234.0,84.0" stroke="black" stroke-width="1" fill="none" />
<polyline points="224.0,81.5,219.5,85.5,215.5,89.5,215.0,93.5,217.0,87.5,221.0,84.5,224.0,81.0,220.0,81.0,216.0,82.0,212.0,83.0,208.0,84.5,204.0,87.0,200.0,90.0,198.5,91.0,203.5,87.0,211.0,83.0" stroke="black" stroke-width="1" fill="none" />
<polyline points="198.0,82.0,198.0,86.0,197.0,90.0,196.0,91.0" stroke="black" stroke-width="1" fill="none" />
<polyline points="162.0,106.0,158.0,101.0,154.0,95.5,153.5,93.0,157.5,93.0,161.5,94.5,165.5,96.5,169.5,99.0,173.5,96.5,177.5,93.0,181.5,91.0,185.5,89.5,189.5,87.5,193.5,85.5,197.0,82.0,192.5,86.0,184.0,90.0,176.0,94.0,172.0,98.0,166.5,97.5,158.0,93.5,154.0,92.5,154.5,96.5,157.5,100.5,160.5,104.5,162.5,108.5,161.0,112.5,160.0,116.5,160.0,120.5,160.0,124.5,158.0,128.5,157.5,132.5,159.0,136.5,159.0,140.5,158.5,144.5,158.0,148.5,158.0,152.5,157.5,156.5,157.0,160.5,156.0,164.5,155.0,168.5,153.5,172.5,153.0,176.5,156.5,180.5,159.5,184.5,161.0,186.5,165.0,187.5,169.0,188.0,173.0,183.0,177.0,181.0" stroke="black" stroke-width="1" fill="none" />
<polyline points="150.5,237.0,149.0,241.0,148.0,245.0,147.5,249.0,147.5,253.0,148.5,257.0,150.5,261.0,152.5,265.0,155.0,269.0,157.0,273.0,158.5,277.0,159.5,281.0,161.0,285.0,162.5,289.0,164.5,293.0,167.0,297.0,171.0,301.0,176.5,305.0" stroke="black" stroke-width="1" fill="none" />
<polyline points="184.5,307.5,180.5,306.5,176.5,304.5,172.5,301.5,168.5,298.0,164.5,292.5,160.5,283.0,156.5,272.0,152.5,264.0,148.5,256.5" stroke="black" stroke-width="1" fill="none" />
<polyline points="165.0,257.0,169.0,260.5,173.0,266.0" stroke="black" stroke-width="1" fill="none" />
<polyline points="163.5,247.0,167.5,246.5,171.5,247.5,175.5,248.0,179.5,248.5,183.5,249.5,187.5,249.5,191.5,250.5,195.5,250.5,199.5,250.5,203.5,250.5,207.5,253.5,211.5,261.5,215.5,267.0,219.5,272.0,223.5,276.0,227.5,279.5,231.5,283.0,235.5,286.0,239.5,288.5,243.5,291.0,247.5,293.0,251.5,295.5,255.5,297.0,259.5,298.5,263.5,300.0" stroke="black" stroke-width="1" fill="none" />
<polyline points="291.0,283.5,295.0,291.0,299.0,295.0,303.0,297.5,307.0,299.5,311.0,300.5,315.0,300.5,319.0,300.5,323.0,299.0,327.0,296.5,331.0,292.5,330.5,293.0,326.5,297.0" stroke="black" stroke-width="1" fill="none" />
<polyline points="329.0,291.0,325.0,291.0,321.0,290.5,317.0,288.5,313.0,285.0,309.0,279.0,305.0,279.0,309.0,286.0,313.0,289.5,317.0,292.0,321.0,293.0,325.0,293.0" stroke="black" stroke-width="1" fill="none" />
<polyline points="308.5,267.0,312.5,260.5,316.5,257.5,320.5,255.5,324.5,254.5,328.5,253.5,332.5,253.0,336.5,253.5,340.5,254.0,344.5,255.5,348.5,257.0,352.5,259.0,356.5,262.0,360.5,265.5,364.5,270.5,368.5,278.5" stroke="black" stroke-width="1" fill="none" />
<polyline points="388.5,286.5,384.5,278.5,380.5,272.0,376.5,267.0,372.5,262.5,368.5,259.0,364.5,256.0,360.5,253.5,356.5,251.5,352.5,250.0,348.5,248.5,344.5,248.0,340.5,247.5,336.5,247.5,332.5,247.5,328.5,248.5,324.5,249.0,320.5,250.0,316.5,252.0,312.5,254.5,308.5,258.5,304.5,266.0" stroke="black" stroke-width="1" fill="none" />
<polyline points="294.5,257.5,298.5,251.0,302.5,246.0,306.5,242.5,310.5,239.5,314.5,237.5,318.5,235.5,322.5,233.5,326.5,232.5,330.5,231.5,334.5,231.0,338.5,230.5,342.5,230.0,346.5,230.0,350.5,230.5,354.5,231.0,358.5,231.5,362.5,232.5,366.5,234.0,370.5,235.5,374.5,237.5,378.5,240.0,382.5,242.5,386.5,245.5,390.5,248.5,394.5,251.5,398.5,255.0,402.5,258.5,406.5,261.5,410.5,265.5,414.5,268.5,418.5,272.0,422.5,275.0,426.5,277.5,430.5,280.0,434.5,282.5,438.5,284.0,442.5,285.0,446.5,285.0,450.5,285.0,454.5,285.0,458.5,284.0,462.5,283.0,466.5,281.5,470.5,279.0,474.5,276.0,475.5,275.0,470.5,279.0,462.0,283.0" stroke="black" stroke-width="1" fill="none" />
<polyline points="475.5,282.0,471.5,291.5,467.5,297.0,463.5,301.0,459.5,303.5,455.5,305.5,451.5,306.5,447.5,307.5,443.5,308.0,439.5,308.0,435.5,308.0,431.5,307.5,427.5,307.5,428.0,307.0,427.5,311.0,427.5,315.0,427.5,319.0,427.5,323.0,427.5,327.0,427.0,331.0,426.5,335.0,425.5,339.0,425.5,343.0,424.5,347.0,423.5,351.0,422.5,355.0,421.5,359.0,420.0,363.0,419.0,367.0,417.5,371.0,416.0,375.0,414.0,379.0,412.5,383.0,410.5,387.0,408.5,391.0,406.0,395.0,403.5,399.0,401.0,403.0,398.0,407.0,395.0,411.0,391.5,415.0,388.0,419.0,384.5,423.0,380.5,427.0,376.0,431.0,371.0,435.0,366.0,439.0,360.0,443.0,353.5,447.0,346.0,451.0,337.5,455.0,327.5,459.0" stroke="black" stroke-width="1" fill="none" />
<polyline points="337.0,405.0,341.0,403.0,345.0,405.0,349.0,405.0,353.0,404.5,354.0,400.0,350.0,398.0,346.0,394.0,345.0,392.5,349.0,394.0,353.0,395.0,357.0,393.5,357.0,389.5,353.0,384.0" stroke="black" stroke-width="1" fill="none" />
<polyline points="346.0,392.0,347.0,396.0,353.0,400.0,353.5,404.0" stroke="black" stroke-width="1" fill="none" />
<polyline points="338.0,402.5,337.0,406.5,337.0,410.5,338.0,414.5,339.0,418.5,337.5,418.5,333.5,417.5,329.5,415.0,325.5,411.5,321.5,405.5,317.5,396.0" stroke="black" stroke-width="1" fill="none" />
<polyline points="330.0,416.0,325.5,412.0,322.5,408.0,320.5,404.0,318.5,400.0,317.5,396.0,316.5,392.0,316.0,388.0,315.5,384.0,316.0,380.0,316.5,376.0,317.5,372.0,319.0,368.0,321.0,364.0,323.5,360.0,327.5,356.0,332.5,352.0,338.5,348.0,344.0,344.0,347.5,340.0,349.5,336.0,351.0,332.0,349.5,336.0,345.5,342.5,341.5,346.0,337.5,349.0,333.5,351.0,329.5,354.0,325.5,358.0,321.5,363.0,317.5,371.5" stroke="black" stroke-width="1" fill="none" />
<polyline points="300.5,355.5,304.5,349.0,308.5,345.0,312.5,342.5,316.5,341.0,320.5,340.0,324.5,339.0,328.5,338.0,332.5,337.0,336.5,336.0,340.5,334.5,344.5,332.0,348.5,330.0,348.0,330.0,341.0,334.0" stroke="black" stroke-width="1" fill="none" />
<polyline points="318.5,340.0,310.0,344.0,305.5,348.0,302.5,352.0,300.5,356.0,299.5,360.0,299.5,364.0,300.0,368.0,300.5,372.0,301.5,376.0,300.5,380.0" stroke="black" stroke-width="1" fill="none" />
<polyline points="270.5,354.0,266.5,345.0" stroke="black" stroke-width="1" fill="none" />
<polyline points="258.0,397.5,254.0,401.5,250.0,409.0" stroke="black" stroke-width="1" fill="none" />
<polyline points="244.5,399.0,236.0,403.0,231.5,407.0,229.0,411.0,222.0,415.0,216.5,419.0,220.0,423.0,216.5,421.0,220.5,423.0,224.5,424.5,228.5,426.0,232.5,427.0,236.5,428.0,240.5,428.5,244.5,428.5" stroke="black" stroke-width="1" fill="none" />
<polyline points="244.5,422.5,248.5,421.5,252.5,422.5,252.5,423.0,253.0,419.0,251.0,415.0,250.0,411.0,251.0,407.0,253.0,403.0,256.0,399.0,256.0,396.5,252.0,397.0,248.0,398.0,244.0,399.5,240.0,401.0,236.0,403.0,232.0,406.5,228.0,412.0,224.0,414.0,220.0,416.5,216.0,420.0" stroke="black" stroke-width="1" fill="none" />
<polyline points="227.5,437.0,218.0,433.0,209.0,429.0,202.0,425.0,195.5,421.0,190.0,417.0,184.5,413.0,179.5,409.0,174.5,405.0,170.0,401.0,166.0,397.0,162.0,393.0,158.0,389.0,154.5,385.0,151.0,381.0,147.5,377.0,144.5,373.0,141.5,369.0,138.5,365.0,135.5,361.0,133.0,357.0,130.0,353.0,128.0,349.0,125.5,345.0,123.0,341.0,121.0,337.0,118.5,333.0,116.5,329.0,114.5,325.0,113.0,321.0,111.0,317.0,109.5,313.0,108.0,309.0,106.5,305.0,105.0,301.0,103.5,297.0,102.5,293.0,101.0,289.0,100.0,285.0,99.0,281.0,98.0,277.0,97.5,273.0,96.5,269.0,96.0,265.0,95.5,261.0,95.0,257.0,94.5,253.0,94.5,249.0,94.0,245.0,91.0,244.5,87.0,245.0,83.0,245.5,79.0,246.0,75.0,246.5,71.0,247.0,67.0,247.5,63.0,247.5,59.0,248.5,55.0,248.5,51.0,249.5,47.0,249.5,43.0,250.0,39.0,250.5,35.0,251.0,31.0,251.5,27.0,252.0,28.0,251.5,27.0,255.5,27.0,259.5,28.0,263.5,28.0,267.5,29.0,271.5,29.5,275.5,30.0,279.5,31.0,283.5,31.5,287.5,32.5,291.5,33.5,295.5,34.5,299.5,35.5,303.5,36.5,307.5,38.0,311.5,39.5,315.5,40.5,319.5,42.0,323.5,43.5,327.5,45.5,331.5,47.0,335.5,49.0,339.5,50.5,343.5,52.5,347.5,54.5,351.5,57.0,355.5,59.0,359.5,61.5,363.5,64.0,367.5,66.5,371.5,69.0,375.5,72.0,379.5,75.0,383.5,78.0,387.5,81.0,391.5,84.5,395.5,88.0,399.5,92.0,403.5,95.5,407.5,100.0,411.5,104.0,415.5,108.5,419.5,113.0,423.5,118.0,427.5,123.5,431.5,129.5,435.5,135.5,439.5,142.0,443.5,149.5,447.5,157.5,451.5,166.0,455.5,176.5,459.5" stroke="black" stroke-width="1" fill="none" />
<polyline points="179.5,394.5,183.5,397.0,187.5,400.0,191.5,403.0,195.5,406.0,199.5,408.0,203.5,407.5,207.5,402.5,211.5,395.0,215.5,396.5,219.5,401.0,223.5,395.5,227.5,390.0,231.5,388.5,235.5,387.5,239.5,387.0,243.5,386.5,247.5,386.0,251.5,385.5,255.5,384.5,259.5,384.0,263.5,383.5,267.5,382.5,271.5,382.0,275.5,381.5,279.5,380.5,283.5,380.5,287.5,381.0,291.5,382.5,295.5,383.0,299.5,381.0" stroke="black" stroke-width="1" fill="none" />
<polyline points="353.5,373.0,357.5,363.0,361.5,355.5" stroke="black" stroke-width="1" fill="none" />
<polyline points="360.5,318.0,364.5,312.0" stroke="black" stroke-width="1" fill="none" />
<polyline points="325.0,294.5,321.0,296.5,317.0,297.5,313.0,297.5,309.0,296.5,305.0,294.5,301.0,291.5,297.0,287.0,293.0,279.0" stroke="black" stroke-width="1" fill="none" />
<polyline points="289.5,261.0,293.5,251.5,297.5,246.0,301.5,242.0,305.5,238.5,309.5,236.0,313.5,234.0,317.5,232.0,321.5,230.0,325.5,227.5,329.5,225.0" stroke="black" stroke-width="1" fill="none" />
<polyline points="320.0,234.5,312.0,238.5,306.5,242.5,302.0,246.5,299.0,250.5,296.0,254.5,294.5,258.5,293.0,262.5,292.5,266.5,292.0,270.5,292.0,274.5,292.5,278.5,294.0,282.5,296.0,286.5,299.0,290.5,304.5,294.5,304.5,298.5,298.0,294.5,294.5,290.5,292.0,286.5,290.5,282.5,289.5,278.5,289.0,274.5,288.5,270.5,289.0,266.5,289.5,262.5,290.5,258.5,292.0,254.5,294.0,250.5,297.0,246.5,300.5,242.5,305.5,238.5,312.0,234.5,320.0,230.5,327.0,226.5,332.5,222.5,333.0,218.5,333.0,215.5,329.0,215.5,325.0,216.0,321.0,216.5,317.0,217.0,313.0,217.5,309.0,218.0,305.0,218.5,301.0,219.0,297.0,219.5,293.0,220.0,289.0,220.5,285.0,221.0,281.0,221.5,277.0,222.0,273.0,222.5,269.0,223.0,265.0,223.5,261.0,224.0,257.0,224.0,253.0,225.0,249.0,225.0,245.0,226.0,241.0,226.0,237.0,226.5,233.0,227.0,229.0,227.5,225.0,228.0,221.0,228.5,217.0,229.0,213.0,229.5,209.0,230.0,205.0,230.5,201.0,231.0,197.0,231.5,193.0,232.0,189.0,232.5,185.0,233.0,181.0,233.5,177.0,234.0,173.0,234.5,169.0,235.0,165.0,235.5,161.0,236.0,157.0,236.5,153.0,237.0,149.0,239.5" stroke="black" stroke-width="1" fill="none" />
<polyline points="143.0,239.0,143.0,243.0,142.5,247.0,142.0,251.0,142.0,255.0,141.0,259.0,139.5,263.0,138.0,267.0,136.0,271.0,136.5,275.0,137.0,279.0,136.0,283.0,133.5,287.0,133.0,291.0,136.0,295.0,137.0,299.0,136.0,303.0,132.0,307.0,128.0,311.0,125.5,315.0" stroke="black" stroke-width="1" fill="none" />
<polyline points="137.0,295.5,133.0,291.0,132.0,288.5,136.0,283.0" stroke="black" stroke-width="1" fill="none" />
<polyline points="136.0,270.0,140.0,261.5" stroke="black" stroke-width="1" fill="none" />
<polyline points="124.5,258.5,128.5,249.5,132.5,244.5,136.5,241.5,140.5,239.0,140.0,239.0,134.5,243.0,130.0,247.0,127.5,251.0,126.0,255.0,124.5,259.0,123.5,263.0,122.5,267.0,121.0,271.0,119.5,275.0,118.5,279.0,117.5,283.0,117.5,287.0,118.5,291.0,120.5,295.0,120.5,299.0,120.5,303.0,120.5,307.0,121.0,311.0,122.0,315.0,123.5,317.0,127.5,312.0,131.5,307.5,135.5,303.5" stroke="black" stroke-width="1" fill="none" />
<polyline points="103.0,295.0,107.0,306.5,111.0,316.5,115.0,325.0,119.0,333.0,123.0,340.5,127.0,347.0,131.0,353.5,135.0,359.5,139.0,365.5,143.0,370.5,147.0,375.5,151.0,380.5,155.0,385.0,159.0,389.5,163.0,393.5,167.0,397.5,171.0,401.5,175.0,405.0,179.0,408.5,183.0,411.5,187.0,414.5,191.0,417.5,195.0,420.0,199.0,422.5,203.0,425.0,207.0,427.5,211.0,429.5,215.0,431.5,219.0,433.5,223.0,435.0,227.0,436.5,231.0,438.0,235.0,439.0,239.0,440.0,243.0,441.0,247.0,441.5,251.0,442.5,255.0,442.5,259.0,443.5,263.0,443.5,267.0,443.5,271.0,443.5,275.0,443.5,279.0,443.5,283.0,443.0,287.0,442.5,291.0,442.5,295.0,442.0,299.0,441.5,303.0,440.5,307.0,440.0,311.0,439.0,315.0,438.0,319.0,437.0,323.0,435.5,327.0,434.5,331.0,432.5,335.0,431.0,339.0,429.0,343.0,427.0,347.0,424.5,351.0,422.0,355.0,419.0,359.0,415.5,363.0,412.0,367.0,408.0,371.0,403.5,375.0,398.5,379.0,392.5,383.0,385.5,387.0,377.0" stroke="black" stroke-width="1" fill="none" />
<polyline points="271.0,363.0,267.0,364.0,263.0,365.0,259.0,366.0,255.0,367.0,251.0,367.5,247.0,368.5,243.0,369.5,239.0,370.5,235.0,371.5,231.0,372.5,227.0,373.5,223.0,374.5,219.0,375.0,215.0,375.5,211.0,375.5,207.0,376.5,203.0,378.0,199.0,383.0,195.0,386.5,191.0,387.5,187.0,388.5,183.0,389.5,179.0,392.0" stroke="black" stroke-width="1" fill="none" />
<polyline points="184.0,389.0,179.0,393.0,182.5,397.0,188.0,401.0,194.0,405.0" stroke="black" stroke-width="1" fill="none" />
<polyline points="204.0,407.0,207.5,403.0,209.0,399.0,211.0,395.0,213.5,395.5,217.5,399.5,220.0,400.5,223.0,396.5,225.0,392.5,230.5,388.5" stroke="black" stroke-width="1" fill="none" />
<polyline points="207.5,376.0,201.5,380.0,198.5,384.0" stroke="black" stroke-width="1" fill="none" />
<polyline points="246.0,421.0,245.5,425.0" stroke="black" stroke-width="1" fill="none" />
<polyline points="186.5,304.5,187.0,300.5,187.5,296.5,188.0,292.5,187.5,288.5,185.5,284.5" stroke="black" stroke-width="1" fill="none" />
<polyline points="205.0,251.0,208.0,255.0,210.0,259.0,212.0,263.0,215.0,267.0,218.5,271.0,222.0,275.0,226.0,279.0,231.0,283.0,236.5,287.0,243.0,291.0,250.5,295.0,260.0,299.0,265.5,303.0,263.0,307.0,262.0,311.0,262.0,315.0,261.5,319.0,262.0,323.0,262.5,327.0,263.0,331.0,264.0,335.0,265.0,339.0,266.0,343.0,267.0,347.0,268.5,351.0,271.0,355.0,272.0,359.0,270.5,363.0" stroke="black" stroke-width="1" fill="none" />
<polyline points="359.0,392.0,355.0,388.0,353.0,384.0,352.5,380.0,353.0,376.0,354.0,372.0,355.5,368.0,357.5,364.0,359.0,360.0,361.5,356.0,363.5,352.0,365.0,348.0,365.5,344.0,366.5,340.0,366.5,336.0,365.5,332.0,364.5,328.0,362.5,324.0,361.0,320.0,362.0,316.0,364.5,312.0,366.5,308.0,368.0,304.0,369.0,300.0,370.0,296.0,370.5,292.0,370.5,288.0,369.5,284.0,368.5,280.0,367.0,276.0,365.0,272.0,362.0,268.0,358.0,264.0,353.0,260.0,346.0,256.0" stroke="black" stroke-width="1" fill="none" />
<polyline points="352.5,250.0,361.0,254.0,367.0,258.0,371.5,262.0,375.0,266.0,378.5,270.0,381.0,274.0,383.5,278.0,386.0,282.0,388.0,286.0,389.5,290.0,391.0,294.0,392.5,298.0,394.0,302.0,394.5,306.0,395.5,310.0,396.0,314.0,396.5,318.0,397.0,322.0,397.0,326.0,397.0,330.0,397.0,334.0,396.5,338.0,396.0,342.0,395.5,346.0,395.0,350.0,394.0,354.0,393.0,358.0,392.0,362.0,391.0,366.0,390.0,370.0,388.0,374.0,386.5,378.0,385.0,382.0,383.0,386.0,380.5,390.0,378.0,394.0,375.5,398.0,372.5,402.0,369.0,406.0,365.0,410.0,361.0,414.0,356.0,418.0,350.5,422.0,344.5,426.0,337.0,430.0,327.5,434.0" stroke="black" stroke-width="1" fill="none" />
<polyline points="420.0,363.0,416.0,374.5,412.0,383.5,408.0,391.5,404.0,398.0,400.0,404.0,396.0,409.5,392.0,414.5,388.0,419.0,384.0,423.5,380.0,427.5,376.0,431.0,372.0,434.5,368.0,437.5,364.0,440.5,360.0,443.0,356.0,445.5,352.0,448.0,348.0,450.0,344.0,452.0,340.0,454.0,336.0,456.0,332.0,457.5,328.0,459.0,324.0,460.5,320.0,462.0,316.0,463.0,312.0,464.0,308.0,465.0,304.0,466.0,300.0,467.0,296.0,468.0,292.0,468.5,288.0,469.0,284.0,470.0,280.0,470.0,276.0,470.5,272.0,471.0,268.0,471.0,264.0,471.5,260.0,472.0,256.0,472.0,252.0,472.0,248.0,472.0,244.0,472.0,240.0,472.0,236.0,471.5,232.0,471.0,228.0,471.0,224.0,470.5,220.0,470.0,216.0,469.0,212.0,469.0,208.0,468.0,204.0,467.0,200.0,466.0,196.0,465.0,192.0,464.0,188.0,463.0,184.0,462.0,180.0,460.5,176.0,459.0,172.0,457.5,168.0,456.0,164.0,454.0,160.0,452.5,156.0,450.5,152.0,448.5,148.0,446.5,144.0,444.0,140.0,442.0,136.0,439.5,132.0,437.0,128.0,434.0,124.0,431.5,120.0,428.5,116.0,425.5,112.0,422.0,108.0,418.5,104.0,415.0,100.0,411.0,96.0,407.5,92.0,403.0,88.0,399.0,84.0,394.0,80.0,389.5,76.0,384.5,72.0,379.0,68.0,373.0,64.0,367.0,60.0,360.5,56.0,353.0,52.0,345.5,48.0,337.0,44.0,327.5,40.0,317.0,36.0,304.5" stroke="black" stroke-width="1" fill="none" />
<polyline points="34.5,184.0,38.5,171.5,42.5,160.5,46.5,151.0,50.5,142.5,54.5,135.0,58.5,128.0,62.5,121.5,66.5,115.5,70.5,109.5,74.5,104.0,78.5,99.0,82.5,94.5,86.5,90.0,90.5,85.5,94.5,81.5,98.5,77.5,102.5,73.5,106.5,70.0,110.5,67.0,114.5,63.5,118.5,60.5,122.5,57.5,126.5,54.5,130.5,52.0,134.5,49.0,138.5,47.0,142.5,44.5,146.5,42.0,150.5,40.0,154.5,38.0,158.5,36.0,162.5,34.5,166.5,32.5,170.5,31.0,174.5,29.5,178.5,28.0,182.5,26.5,186.5,25.0,190.5,24.0,194.5,23.0,198.5,22.0,202.5,21.0,206.5,20.0,210.5,19.0,214.5,18.5,218.5,18.0,222.5,17.0,226.5,17.0,230.5,16.5,234.5,16.0,238.5,16.0,242.5,15.5,246.5,15.5,250.5,15.5,254.5,15.5,258.5,15.5,262.5,16.0,266.5,16.0,270.5,16.0,274.5,17.0,278.5,17.0,282.5,18.0,286.5,18.0,290.5,19.0,294.5,20.0,298.5,21.0,302.5,22.0,306.5,23.0,310.5,24.5,314.5,26.0,318.5,27.5,322.5,29.0,326.5,31.0,330.5,33.0,334.5,35.5,338.5,38.0,342.5,40.5,346.5,43.5,350.5,46.5,354.5,50.0,358.5,53.5,362.5,57.0,366.5,61.0,370.5,65.0,374.5,69.5,378.5,73.5,382.5,77.5,386.5,81.5,390.5,84.5,394.5,87.0,398.5,88.0,402.5,89.0,406.5,88.0,410.5,87.0,414.5,84.0,418.5,79.5" stroke="black" stroke-width="1" fill="none" />
<polyline points="422.5,69.5,426.5,69.0,430.5,73.0" stroke="black" stroke-width="1" fill="none" />
<polyline points="425.5,69.0,430.0,73.0,431.5,77.0,432.5,81.0,432.5,85.0,432.5,89.0,432.0,93.0,430.5,97.0,428.0,101.0,424.5,105.0,419.5,109.0,411.0,113.0,412.0,117.0,419.0,121.0" stroke="black" stroke-width="1" fill="none" />
<polyline points="430.0,135.0,437.5,131.0,441.0,127.0,443.5,123.0,445.0,119.0,445.5,115.0" stroke="black" stroke-width="1" fill="none" />
<polyline points="414.0,84.5,418.0,80.5,420.5,76.5,422.0,72.5,423.5,68.5" stroke="black" stroke-width="1" fill="none" />
<polyline points="346.5,109.5,342.0,105.5,337.0,101.5,328.0,97.5" stroke="black" stroke-width="1" fill="none" />
<polyline points="311.5,48.0,320.5,52.0,327.5,56.0,334.0,60.0,339.5,64.0,344.5,68.0,349.0,72.0,353.5,76.0,357.0,80.0,360.5,84.0,363.5,88.0,366.5,92.0,369.5,96.0,372.0,100.0,375.0,104.0,377.5,108.0,380.5,112.0,383.5,116.0,387.0,120.0,390.5,124.0,395.0,128.0,400.5,132.0,410.0,136.0" stroke="black" stroke-width="1" fill="none" />
<polyline points="441.5,172.5,436.5,176.5" stroke="black" stroke-width="1" fill="none" />
<polyline points="478.5,181.5,482.5,185.5,485.0,189.5,486.5,193.5,487.0,197.5,487.5,201.5,486.5,205.5,490.0,204.5,494.0,198.5,494.5,194.5,494.0,198.5,491.5,202.5" stroke="black" stroke-width="1" fill="none" />
<polyline points="495.5,194.5,497.5,198.5,498.0,202.5,498.0,206.5,496.5,210.5,494.5,214.5,491.5,218.5,487.0,222.5,479.0,226.5" stroke="black" stroke-width="1" fill="none" />
<polyline points="477.0,275.0,476.5,279.0,475.5,283.0,474.0,287.0,472.0,291.0,469.0,295.0,465.5,299.0,460.5,303.0" stroke="black" stroke-width="1" fill="none" />
<polyline points="429.5,280.0,423.5,276.0,418.0,272.0,413.5,268.0,408.5,264.0,404.0,260.0,399.5,256.0,394.5,252.0,389.5,248.0,384.0,244.0,378.0,240.0,370.5,236.0,359.5,232.0" stroke="black" stroke-width="1" fill="none" />
<polyline points="322.0,249.5,313.5,253.5,309.0,257.5,306.5,261.5,305.0,265.5,304.0,269.5,304.0,273.5,304.5,277.5,306.0,281.5,308.0,285.5,312.0,289.5" stroke="black" stroke-width="1" fill="none" />
<polyline points="320.5,290.5,314.0,286.5,310.5,282.5,308.5,278.5,307.5,274.5,308.0,270.5,309.0,266.5,311.0,262.5,315.0,258.5,323.0,254.5" stroke="black" stroke-width="1" fill="none" />
<polyline points="185.5,284.5,181.5,284.0,177.5,284.5,175.5,282.5,174.5,278.5,174.5,274.5,174.0,270.5,173.0,266.5,170.5,262.5,166.0,258.5,164.0,254.5,163.5,250.5,164.0,246.5" stroke="black" stroke-width="1" fill="none" />
<polyline points="93.5,215.5,93.5,211.5,94.0,207.5,94.0,203.5,94.5,199.5,95.0,195.5,95.5,191.5,96.0,187.5,96.5,183.5,97.5,179.5,98.5,175.5,99.5,171.5,100.5,167.5,102.0,163.5,103.0,159.5,104.5,155.5,106.0,151.5,107.5,147.5,109.5,143.5,111.0,139.5,113.0,135.5,115.0,131.5,117.5,127.5,120.0,123.5,122.0,119.5,125.0,115.5,128.0,111.5,130.5,107.5,134.0,103.5,137.0,99.5,141.0,95.5,144.5,91.5,148.5,87.5,152.5,83.5,157.0,79.5,162.0,75.5,167.0,71.5,172.5,67.5,179.0,63.5,185.5,59.5,193.0,55.5,201.0,51.5,212.0,47.5" stroke="black" stroke-width="1" fill="none" />
<polyline points="183.5,26.0,172.5,30.0,163.0,34.0,154.5,38.0,146.5,42.0,139.5,46.0,133.0,50.0,127.5,54.0,121.5,58.0,116.5,62.0,111.5,66.0,106.5,70.0,102.0,74.0,98.0,78.0,94.0,82.0,90.0,86.0,86.5,90.0,83.0,94.0,79.5,98.0,76.5,102.0,73.0,106.0,70.5,110.0,67.5,114.0,65.0,118.0,62.5,122.0,59.5,126.0,57.5,130.0,55.0,134.0,53.0,138.0,51.0,142.0,49.0,146.0,47.0,150.0,45.5,154.0,43.5,158.0,42.0,162.0,40.5,166.0,39.0,170.0,38.0,174.0,36.5,178.0,35.5,182.0,34.0,186.0,33.0,190.0,32.0,194.0,31.5,198.0,30.5,202.0,30.0,206.0,29.0,210.0,28.5,214.0,28.0,218.0,27.5,222.0,27.5,226.0,30.5,226.0,34.5,225.5,38.5,225.0,42.5,224.5,46.5,224.0,50.5,223.5,54.5,223.0,58.5,222.0,62.5,221.5,66.5,221.0,70.5,220.5,74.5,220.0,78.5,219.5,82.5,219.0,86.5,218.5,90.5,218.0" stroke="black" stroke-width="1" fill="none" />
<polyline points="0.0,234.0,64.0,234.0" stroke="black" stroke-width="1" fill="none" />
<polyline points="64.0,242.0,96.0,242.0" stroke="black" stroke-width="1" fill="none" />
<polyline points="96.0,248.0,40.0,304.0,40.0,302.0,104.0,302.0,104.0,304.0,56.0,352.0,56.0,354.0,136.0,354.0,136.0,352.0,96.0,392.0" stroke="black" stroke-width="1" fill="none" />
<polyline points="96.0,398.0,168.0,398.0,168.0,400.0,136.0,432.0,136.0,430.0,208.0,430.0" stroke="black" stroke-width="1" fill="none" />
<polyline points="208.0,424.0,184.0,448.0" stroke="black" stroke-width="1" fill="none" />
<polyline points="184.0,456.0,216.0,424.0" stroke="black" stroke-width="1" fill="none" />
<polyline points="216.0,432.0,192.0,456.0,192.0,454.0,312.0,454.0,312.0,456.0,352.0,416.0" stroke="black" stroke-width="1" fill="none" />
<polyline points="352.0,410.0,392.0,410.0" stroke="black" stroke-width="1" fill="none" />
<polyline points="400.0,398.0,376.0,398.0" stroke="black" stroke-width="1" fill="none" />
<polyline points="368.0,394.0,400.0,394.0" stroke="black" stroke-width="1" fill="none" />
<polyline points="408.0,384.0,352.0,440.0" stroke="black" stroke-width="1" fill="none" />
<polyline points="336.0,448.0,416.0,368.0" stroke="black" stroke-width="1" fill="none" />
<polyline points="416.0,360.0,328.0,448.0" stroke="black" stroke-width="1" fill="none" />
<polyline points="328.0,432.0,304.0,456.0" stroke="black" stroke-width="1" fill="none" />
<polyline points="296.0,456.0,320.0,432.0" stroke="black" stroke-width="1" fill="none" />
<polyline points="312.0,432.0,280.0,464.0" stroke="black" stroke-width="1" fill="none" />
<polyline points="272.0,464.0,296.0,440.0" stroke="black" stroke-width="1" fill="none" />
<polyline points="288.0,440.0,264.0,464.0" stroke="black" stroke-width="1" fill="none" />
<polyline points="256.0,464.0,280.0,440.0" stroke="black" stroke-width="1" fill="none" />
<polyline points="280.0,434.0,360.0,434.0" stroke="black" stroke-width="1" fill="none" />
<polyline points="352.0,422.0,376.0,422.0" stroke="black" stroke-width="1" fill="none" />
<polyline points="384.0,414.0,360.0,414.0" stroke="black" stroke-width="1" fill="none" />
<polyline points="368.0,406.0,392.0,406.0" stroke="black" stroke-width="1" fill="none" />
<polyline points="384.0,390.0,400.0,390.0" stroke="black" stroke-width="1" fill="none" />
<polyline points="384.0,384.0,424.0,344.0" stroke="black" stroke-width="1" fill="none" />
<polyline points="424.0,336.0,392.0,368.0,392.0,366.0,416.0,366.0" stroke="black" stroke-width="1" fill="none" />
<polyline points="416.0,358.0,400.0,358.0" stroke="black" stroke-width="1" fill="none" />
<polyline points="400.0,350.0,416.0,350.0" stroke="black" stroke-width="1" fill="none" />
<polyline points="400.0,344.0,424.0,320.0" stroke="black" stroke-width="1" fill="none" />
<polyline points="424.0,312.0,400.0,336.0,400.0,334.0,424.0,334.0" stroke="black" stroke-width="1" fill="none" />
<polyline points="424.0,328.0,392.0,360.0,392.0,362.0,416.0,362.0" stroke="black" stroke-width="1" fill="none" />
<polyline points="424.0,342.0,400.0,342.0" stroke="black" stroke-width="1" fill="none" />
<polyline points="392.0,338.0,424.0,338.0" stroke="black" stroke-width="1" fill="none" />
<polyline points="400.0,328.0,448.0,280.0" stroke="black" stroke-width="1" fill="none" />
<polyline points="440.0,280.0,400.0,320.0,400.0,318.0,424.0,318.0" stroke="black" stroke-width="1" fill="none" />
<polyline points="440.0,304.0,464.0,280.0" stroke="black" stroke-width="1" fill="none" />
<polyline points="464.0,274.0,480.0,274.0" stroke="black" stroke-width="1" fill="none" />
<polyline points="472.0,280.0,448.0,304.0" stroke="black" stroke-width="1" fill="none" />
<polyline points="432.0,304.0,456.0,280.0" stroke="black" stroke-width="1" fill="none" />
<polyline points="456.0,286.0,472.0,286.0" stroke="black" stroke-width="1" fill="none" />
<polyline points="432.0,280.0,400.0,312.0,400.0,310.0,424.0,310.0" stroke="black" stroke-width="1" fill="none" />
<polyline points="424.0,326.0,400.0,326.0,400.0,322.0,432.0,322.0" stroke="black" stroke-width="1" fill="none" />
<polyline points="432.0,314.0,400.0,314.0" stroke="black" stroke-width="1" fill="none" />
<polyline points="400.0,304.0,424.0,280.0" stroke="black" stroke-width="1" fill="none" />
<polyline points="424.0,272.0,400.0,296.0,400.0,294.0,464.0,294.0" stroke="black" stroke-width="1" fill="none" />
<polyline points="416.0,272.0,392.0,296.0,392.0,298.0,456.0,298.0" stroke="black" stroke-width="1" fill="none" />
<polyline points="416.0,264.0,392.0,288.0,392.0,286.0,440.0,286.0" stroke="black" stroke-width="1" fill="none" />
<polyline points="408.0,264.0,392.0,280.0,392.0,278.0,424.0,278.0" stroke="black" stroke-width="1" fill="none" />
<polyline points="408.0,256.0,384.0,280.0" stroke="black" stroke-width="1" fill="none" />
<polyline points="384.0,274.0,432.0,274.0" stroke="black" stroke-width="1" fill="none" />
<polyline points="400.0,256.0,384.0,272.0,384.0,270.0,416.0,270.0" stroke="black" stroke-width="1" fill="none" />
<polyline points="392.0,282.0,472.0,282.0" stroke="black" stroke-width="1" fill="none" />
<polyline points="472.0,224.0,496.0,200.0" stroke="black" stroke-width="1" fill="none" />
<polyline points="488.0,200.0,464.0,224.0" stroke="black" stroke-width="1" fill="none" />
<polyline points="456.0,224.0,488.0,192.0" stroke="black" stroke-width="1" fill="none" />
<polyline points="488.0,186.0,480.0,186.0" stroke="black" stroke-width="1" fill="none" />
<polyline points="472.0,194.0,488.0,194.0" stroke="black" stroke-width="1" fill="none" />
<polyline points="488.0,206.0,480.0,206.0" stroke="black" stroke-width="1" fill="none" />
<polyline points="472.0,202.0,496.0,202.0" stroke="black" stroke-width="1" fill="none" />
<polyline points="496.0,208.0,488.0,216.0,488.0,214.0,472.0,214.0" stroke="black" stroke-width="1" fill="none" />
<polyline points="456.0,216.0,448.0,224.0,448.0,222.0,480.0,222.0" stroke="black" stroke-width="1" fill="none" />
<polyline points="448.0,216.0,440.0,224.0" stroke="black" stroke-width="1" fill="none" />
<polyline points="440.0,218.0,488.0,218.0" stroke="black" stroke-width="1" fill="none" />
<polyline points="448.0,208.0,440.0,216.0" stroke="black" stroke-width="1" fill="none" />
<polyline points="440.0,208.0,432.0,216.0,432.0,214.0,440.0,214.0" stroke="black" stroke-width="1" fill="none" />
<polyline points="424.0,210.0,496.0,210.0" stroke="black" stroke-width="1" fill="none" />
<polyline points="448.0,184.0,440.0,192.0,440.0,190.0,448.0,190.0" stroke="black" stroke-width="1" fill="none" />
<polyline points="448.0,176.0,432.0,192.0" stroke="black" stroke-width="1" fill="none" />
<polyline points="424.0,192.0,440.0,176.0" stroke="black" stroke-width="1" fill="none" />
<polyline points="440.0,170.0,448.0,170.0" stroke="black" stroke-width="1" fill="none" />
<polyline points="432.0,176.0,416.0,192.0" stroke="black" stroke-width="1" fill="none" />
<polyline points="416.0,184.0,400.0,200.0,400.0,202.0,432.0,202.0" stroke="black" stroke-width="1" fill="none" />
<polyline points="424.0,200.0,416.0,208.0" stroke="black" stroke-width="1" fill="none" />
<polyline points="416.0,200.0,408.0,208.0" stroke="black" stroke-width="1" fill="none" />
<polyline points="392.0,200.0,408.0,184.0" stroke="black" stroke-width="1" fill="none" />
<polyline points="400.0,184.0,384.0,200.0" stroke="black" stroke-width="1" fill="none" />
<polyline points="376.0,200.0,392.0,184.0" stroke="black" stroke-width="1" fill="none" />
<polyline points="384.0,184.0,368.0,200.0" stroke="black" stroke-width="1" fill="none" />
<polyline points="360.0,200.0,376.0,184.0" stroke="black" stroke-width="1" fill="none" />
<polyline points="384.0,190.0,432.0,190.0" stroke="black" stroke-width="1" fill="none" />
<polyline points="432.0,182.0,448.0,182.0,448.0,178.0,416.0,178.0" stroke="black" stroke-width="1" fill="none" />
<polyline points="400.0,198.0,392.0,198.0" stroke="black" stroke-width="1" fill="none" />
<polyline points="360.0,192.0,352.0,200.0" stroke="black" stroke-width="1" fill="none" />
<polyline points="352.0,192.0,344.0,200.0" stroke="black" stroke-width="1" fill="none" />
<polyline points="336.0,200.0,368.0,168.0,368.0,166.0,360.0,166.0" stroke="black" stroke-width="1" fill="none" />
<polyline points="360.0,158.0,376.0,158.0" stroke="black" stroke-width="1" fill="none" />
<polyline points="376.0,152.0,344.0,184.0" stroke="black" stroke-width="1" fill="none" />
<polyline points="344.0,178.0,360.0,178.0,360.0,174.0,352.0,174.0,352.0,170.0,368.0,170.0" stroke="black" stroke-width="1" fill="none" />
<polyline points="352.0,168.0,384.0,136.0" stroke="black" stroke-width="1" fill="none" />
<polyline points="376.0,136.0,352.0,160.0" stroke="black" stroke-width="1" fill="none" />
<polyline points="352.0,144.0,312.0,184.0" stroke="black" stroke-width="1" fill="none" />
<polyline points="320.0,184.0,368.0,136.0" stroke="black" stroke-width="1" fill="none" />
<polyline points="368.0,142.0,376.0,142.0" stroke="black" stroke-width="1" fill="none" />
<polyline points="392.0,128.0,432.0,88.0" stroke="black" stroke-width="1" fill="none" />
<polyline points="432.0,80.0,392.0,120.0,392.0,118.0,408.0,118.0,408.0,120.0,400.0,128.0,400.0,126.0,424.0,126.0" stroke="black" stroke-width="1" fill="none" />
<polyline points="424.0,120.0,408.0,136.0" stroke="black" stroke-width="1" fill="none" />
<polyline points="416.0,136.0,432.0,120.0" stroke="black" stroke-width="1" fill="none" />
<polyline points="432.0,126.0,440.0,126.0" stroke="black" stroke-width="1" fill="none" />
<polyline points="440.0,120.0,424.0,136.0" stroke="black" stroke-width="1" fill="none" />
<polyline points="416.0,120.0,408.0,128.0" stroke="black" stroke-width="1" fill="none" />
<polyline points="400.0,130.0,432.0,130.0" stroke="black" stroke-width="1" fill="none" />
<polyline points="440.0,114.0,448.0,114.0" stroke="black" stroke-width="1" fill="none" />
<polyline points="432.0,78.0,424.0,78.0" stroke="black" stroke-width="1" fill="none" />
<polyline points="416.0,74.0,432.0,74.0,432.0,72.0,384.0,120.0" stroke="black" stroke-width="1" fill="none" />
<polyline points="384.0,114.0,416.0,114.0" stroke="black" stroke-width="1" fill="none" />
<polyline points="392.0,122.0,440.0,122.0" stroke="black" stroke-width="1" fill="none" />
<polyline points="432.0,86.0,416.0,86.0,416.0,82.0,432.0,82.0" stroke="black" stroke-width="1" fill="none" />
<polyline points="408.0,88.0,384.0,112.0,384.0,110.0,408.0,110.0" stroke="black" stroke-width="1" fill="none" />
<polyline points="400.0,88.0,384.0,104.0" stroke="black" stroke-width="1" fill="none" />
<polyline points="376.0,104.0,392.0,88.0" stroke="black" stroke-width="1" fill="none" />
<polyline points="392.0,80.0,376.0,96.0,376.0,94.0,424.0,94.0" stroke="black" stroke-width="1" fill="none" />
<polyline points="384.0,80.0,368.0,96.0" stroke="black" stroke-width="1" fill="none" />
<polyline points="368.0,90.0,432.0,90.0" stroke="black" stroke-width="1" fill="none" />
<polyline points="424.0,106.0,376.0,106.0,376.0,102.0,424.0,102.0" stroke="black" stroke-width="1" fill="none" />
<polyline points="432.0,98.0,376.0,98.0" stroke="black" stroke-width="1" fill="none" />
<polyline points="368.0,88.0,376.0,80.0" stroke="black" stroke-width="1" fill="none" />
<polyline points="376.0,72.0,360.0,88.0" stroke="black" stroke-width="1" fill="none" />
<polyline points="360.0,82.0,392.0,82.0" stroke="black" stroke-width="1" fill="none" />
<polyline points="384.0,86.0,368.0,86.0" stroke="black" stroke-width="1" fill="none" />
<polyline points="360.0,80.0,368.0,72.0" stroke="black" stroke-width="1" fill="none" />
<polyline points="368.0,64.0,360.0,72.0" stroke="black" stroke-width="1" fill="none" />
<polyline points="360.0,78.0,376.0,78.0" stroke="black" stroke-width="1" fill="none" />
<polyline points="360.0,64.0,352.0,72.0,352.0,70.0,368.0,70.0" stroke="black" stroke-width="1" fill="none" />
<polyline points="360.0,56.0,352.0,64.0" stroke="black" stroke-width="1" fill="none" />
<polyline points="352.0,56.0,344.0,64.0,344.0,62.0,360.0,62.0" stroke="black" stroke-width="1" fill="none" />
<polyline points="352.0,74.0,384.0,74.0" stroke="black" stroke-width="1" fill="none" />
<polyline points="376.0,66.0,344.0,66.0" stroke="black" stroke-width="1" fill="none" />
<polyline points="336.0,64.0,352.0,48.0" stroke="black" stroke-width="1" fill="none" />
<polyline points="344.0,48.0,336.0,56.0,336.0,58.0,368.0,58.0" stroke="black" stroke-width="1" fill="none" />
<polyline points="344.0,40.0,328.0,56.0,328.0,54.0,352.0,54.0" stroke="black" stroke-width="1" fill="none" />
<polyline points="336.0,40.0,328.0,48.0" stroke="black" stroke-width="1" fill="none" />
<polyline points="320.0,48.0,336.0,32.0" stroke="black" stroke-width="1" fill="none" />
<polyline points="328.0,32.0,312.0,48.0,312.0,46.0,344.0,46.0" stroke="black" stroke-width="1" fill="none" />
<polyline points="360.0,50.0,320.0,50.0" stroke="black" stroke-width="1" fill="none" />
<polyline points="312.0,40.0,320.0,32.0" stroke="black" stroke-width="1" fill="none" />
<polyline points="312.0,32.0,304.0,40.0" stroke="black" stroke-width="1" fill="none" />
<polyline points="296.0,40.0,312.0,24.0" stroke="black" stroke-width="1" fill="none" />
<polyline points="304.0,24.0,288.0,40.0,288.0,38.0,328.0,38.0" stroke="black" stroke-width="1" fill="none" />
<polyline points="352.0,42.0,296.0,42.0" stroke="black" stroke-width="1" fill="none" />
<polyline points="280.0,40.0,296.0,24.0" stroke="black" stroke-width="1" fill="none" />
<polyline points="288.0,24.0,272.0,40.0" stroke="black" stroke-width="1" fill="none" />
<polyline points="264.0,40.0,288.0,16.0" stroke="black" stroke-width="1" fill="none" />
<polyline points="280.0,16.0,256.0,40.0" stroke="black" stroke-width="1" fill="none" />
<polyline points="248.0,40.0,272.0,16.0" stroke="black" stroke-width="1" fill="none" />
<polyline points="264.0,16.0,240.0,40.0" stroke="black" stroke-width="1" fill="none" />
<polyline points="232.0,40.0,256.0,16.0" stroke="black" stroke-width="1" fill="none" />
<polyline points="248.0,16.0,224.0,40.0" stroke="black" stroke-width="1" fill="none" />
<polyline points="208.0,48.0,240.0,16.0" stroke="black" stroke-width="1" fill="none" />
<polyline points="240.0,22.0,264.0,22.0" stroke="black" stroke-width="1" fill="none" />
<polyline points="232.0,16.0,200.0,48.0" stroke="black" stroke-width="1" fill="none" />
<polyline points="192.0,30.0,312.0,30.0" stroke="black" stroke-width="1" fill="none" />
<polyline points="320.0,96.0,296.0,120.0,296.0,122.0,368.0,122.0" stroke="black" stroke-width="1" fill="none" />
<polyline points="360.0,120.0,352.0,128.0" stroke="black" stroke-width="1" fill="none" />
<polyline points="352.0,120.0,304.0,168.0,304.0,166.0,344.0,166.0" stroke="black" stroke-width="1" fill="none" />
<polyline points="336.0,186.0,448.0,186.0" stroke="black" stroke-width="1" fill="none" />
<polyline points="400.0,248.0,384.0,264.0" stroke="black" stroke-width="1" fill="none" />
<polyline points="376.0,264.0,392.0,248.0" stroke="black" stroke-width="1" fill="none" />
<polyline points="384.0,248.0,376.0,256.0,376.0,258.0,408.0,258.0" stroke="black" stroke-width="1" fill="none" />
<polyline points="384.0,240.0,368.0,256.0,368.0,254.0,392.0,254.0" stroke="black" stroke-width="1" fill="none" />
<polyline points="400.0,262.0,376.0,262.0,376.0,266.0,416.0,266.0" stroke="black" stroke-width="1" fill="none" />
<polyline points="392.0,290.0,472.0,290.0" stroke="black" stroke-width="1" fill="none" />
<polyline points="424.0,302.0,400.0,302.0" stroke="black" stroke-width="1" fill="none" />
<polyline points="392.0,306.0,432.0,306.0" stroke="black" stroke-width="1" fill="none" />
<polyline points="424.0,346.0,392.0,346.0" stroke="black" stroke-width="1" fill="none" />
<polyline points="392.0,354.0,424.0,354.0" stroke="black" stroke-width="1" fill="none" />
<polyline points="408.0,374.0,392.0,374.0" stroke="black" stroke-width="1" fill="none" />
<polyline points="384.0,370.0,416.0,370.0" stroke="black" stroke-width="1" fill="none" />
<polyline points="408.0,382.0,384.0,382.0,384.0,378.0,408.0,378.0" stroke="black" stroke-width="1" fill="none" />
<polyline points="408.0,386.0,376.0,386.0" stroke="black" stroke-width="1" fill="none" />
<polyline points="368.0,402.0,400.0,402.0" stroke="black" stroke-width="1" fill="none" />
<polyline points="352.0,392.0,344.0,400.0" stroke="black" stroke-width="1" fill="none" />
<polyline points="328.0,400.0,352.0,376.0" stroke="black" stroke-width="1" fill="none" />
<polyline points="352.0,368.0,320.0,400.0,320.0,398.0,336.0,398.0" stroke="black" stroke-width="1" fill="none" />
<polyline points="336.0,406.0,328.0,406.0,328.0,408.0,352.0,384.0" stroke="black" stroke-width="1" fill="none" />
<polyline points="320.0,384.0,360.0,344.0" stroke="black" stroke-width="1" fill="none" />
<polyline points="360.0,352.0,320.0,392.0,320.0,390.0,344.0,390.0" stroke="black" stroke-width="1" fill="none" />
<polyline points="336.0,402.0,320.0,402.0" stroke="black" stroke-width="1" fill="none" />
<polyline points="320.0,394.0,352.0,394.0" stroke="black" stroke-width="1" fill="none" />
<polyline points="344.0,418.0,384.0,418.0" stroke="black" stroke-width="1" fill="none" />
<polyline points="368.0,430.0,336.0,430.0" stroke="black" stroke-width="1" fill="none" />
<polyline points="328.0,426.0,376.0,426.0" stroke="black" stroke-width="1" fill="none" />
<polyline points="360.0,386.0,320.0,386.0,320.0,382.0,352.0,382.0" stroke="black" stroke-width="1" fill="none" />
<polyline points="320.0,376.0,368.0,328.0" stroke="black" stroke-width="1" fill="none" />
<polyline points="360.0,328.0,320.0,368.0,320.0,366.0,352.0,366.0" stroke="black" stroke-width="1" fill="none" />
<polyline points="360.0,350.0,336.0,350.0" stroke="black" stroke-width="1" fill="none" />
<polyline points="328.0,346.0,360.0,346.0,360.0,342.0,352.0,342.0" stroke="black" stroke-width="1" fill="none" />
<polyline points="352.0,334.0,360.0,334.0" stroke="black" stroke-width="1" fill="none" />
<polyline points="352.0,330.0,368.0,330.0" stroke="black" stroke-width="1" fill="none" />
<polyline points="360.0,320.0,352.0,328.0,352.0,326.0,360.0,326.0" stroke="black" stroke-width="1" fill="none" />
<polyline points="360.0,312.0,344.0,328.0" stroke="black" stroke-width="1" fill="none" />
<polyline points="336.0,328.0,368.0,296.0" stroke="black" stroke-width="1" fill="none" />
<polyline points="368.0,288.0,328.0,328.0" stroke="black" stroke-width="1" fill="none" />
<polyline points="312.0,336.0,368.0,280.0" stroke="black" stroke-width="1" fill="none" />
<polyline points="368.0,272.0,264.0,376.0" stroke="black" stroke-width="1" fill="none" />
<polyline points="256.0,376.0,360.0,272.0" stroke="black" stroke-width="1" fill="none" />
<polyline points="360.0,264.0,272.0,352.0,272.0,350.0,296.0,350.0" stroke="black" stroke-width="1" fill="none" />
<polyline points="296.0,360.0,280.0,376.0" stroke="black" stroke-width="1" fill="none" />
<polyline points="272.0,376.0,304.0,344.0" stroke="black" stroke-width="1" fill="none" />
<polyline points="320.0,354.0,360.0,354.0" stroke="black" stroke-width="1" fill="none" />
<polyline points="368.0,338.0,344.0,338.0" stroke="black" stroke-width="1" fill="none" />
<polyline points="352.0,358.0,328.0,358.0" stroke="black" stroke-width="1" fill="none" />
<polyline points="320.0,362.0,352.0,362.0" stroke="black" stroke-width="1" fill="none" />
<polyline points="352.0,374.0,320.0,374.0" stroke="black" stroke-width="1" fill="none" />
<polyline points="312.0,370.0,352.0,370.0" stroke="black" stroke-width="1" fill="none" />
<polyline points="352.0,378.0,312.0,378.0" stroke="black" stroke-width="1" fill="none" />
<polyline points="296.0,368.0,288.0,376.0,288.0,374.0,296.0,374.0" stroke="black" stroke-width="1" fill="none" />
<polyline points="296.0,358.0,280.0,358.0" stroke="black" stroke-width="1" fill="none" />
<polyline points="272.0,354.0,304.0,354.0" stroke="black" stroke-width="1" fill="none" />
<polyline points="304.0,346.0,272.0,346.0,272.0,344.0,320.0,296.0" stroke="black" stroke-width="1" fill="none" />
<polyline points="320.0,302.0,360.0,302.0" stroke="black" stroke-width="1" fill="none" />
<polyline points="368.0,294.0,336.0,294.0" stroke="black" stroke-width="1" fill="none" />
<polyline points="336.0,286.0,368.0,286.0" stroke="black" stroke-width="1" fill="none" />
<polyline points="352.0,264.0,328.0,288.0" stroke="black" stroke-width="1" fill="none" />
<polyline points="320.0,288.0,352.0,256.0" stroke="black" stroke-width="1" fill="none" />
<polyline points="344.0,256.0,320.0,280.0" stroke="black" stroke-width="1" fill="none" />
<polyline points="312.0,278.0,368.0,278.0" stroke="black" stroke-width="1" fill="none" />
<polyline points="360.0,250.0,400.0,250.0" stroke="black" stroke-width="1" fill="none" />
<polyline points="376.0,240.0,368.0,248.0" stroke="black" stroke-width="1" fill="none" />
<polyline points="360.0,248.0,376.0,232.0" stroke="black" stroke-width="1" fill="none" />
<polyline points="368.0,232.0,352.0,248.0" stroke="black" stroke-width="1" fill="none" />
<polyline points="352.0,240.0,360.0,232.0" stroke="black" stroke-width="1" fill="none" />
<polyline points="352.0,232.0,344.0,240.0" stroke="black" stroke-width="1" fill="none" />
<polyline points="344.0,232.0,336.0,240.0" stroke="black" stroke-width="1" fill="none" />
<polyline points="336.0,232.0,328.0,240.0" stroke="black" stroke-width="1" fill="none" />
<polyline points="328.0,232.0,296.0,264.0,296.0,262.0,304.0,262.0,304.0,264.0,296.0,272.0" stroke="black" stroke-width="1" fill="none" />
<polyline points="296.0,278.0,304.0,278.0" stroke="black" stroke-width="1" fill="none" />
<polyline points="304.0,272.0,296.0,280.0" stroke="black" stroke-width="1" fill="none" />
<polyline points="288.0,280.0,264.0,304.0,264.0,306.0,368.0,306.0" stroke="black" stroke-width="1" fill="none" />
<polyline points="392.0,330.0,424.0,330.0" stroke="black" stroke-width="1" fill="none" />
<polyline points="384.0,246.0,360.0,246.0" stroke="black" stroke-width="1" fill="none" />
<polyline points="336.0,256.0,304.0,288.0" stroke="black" stroke-width="1" fill="none" />
<polyline points="296.0,288.0,264.0,320.0,264.0,318.0,360.0,318.0" stroke="black" stroke-width="1" fill="none" />
<polyline points="312.0,296.0,272.0,336.0,272.0,334.0,312.0,334.0" stroke="black" stroke-width="1" fill="none" />
<polyline points="304.0,296.0,264.0,336.0,264.0,338.0,312.0,338.0" stroke="black" stroke-width="1" fill="none" />
<polyline points="304.0,342.0,272.0,342.0" stroke="black" stroke-width="1" fill="none" />
<polyline points="264.0,330.0,336.0,330.0" stroke="black" stroke-width="1" fill="none" />
<polyline points="296.0,296.0,264.0,328.0,264.0,326.0,344.0,326.0" stroke="black" stroke-width="1" fill="none" />
<polyline points="312.0,272.0,328.0,256.0" stroke="black" stroke-width="1" fill="none" />
<polyline points="320.0,256.0,312.0,264.0" stroke="black" stroke-width="1" fill="none" />
<polyline points="312.0,270.0,360.0,270.0" stroke="black" stroke-width="1" fill="none" />
<polyline points="352.0,262.0,320.0,262.0" stroke="black" stroke-width="1" fill="none" />
<polyline points="320.0,246.0,304.0,246.0" stroke="black" stroke-width="1" fill="none" />
<polyline points="296.0,256.0,320.0,232.0" stroke="black" stroke-width="1" fill="none" />
<polyline points="320.0,238.0,368.0,238.0" stroke="black" stroke-width="1" fill="none" />
<polyline points="328.0,216.0,320.0,224.0" stroke="black" stroke-width="1" fill="none" />
<polyline points="320.0,216.0,248.0,288.0,248.0,286.0,288.0,286.0,288.0,288.0,264.0,312.0,264.0,310.0,360.0,310.0" stroke="black" stroke-width="1" fill="none" />
<polyline points="288.0,272.0,264.0,296.0,264.0,294.0,296.0,294.0" stroke="black" stroke-width="1" fill="none" />
<polyline points="304.0,302.0,272.0,302.0" stroke="black" stroke-width="1" fill="none" />
<polyline points="264.0,298.0,368.0,298.0" stroke="black" stroke-width="1" fill="none" />
<polyline points="288.0,264.0,256.0,296.0" stroke="black" stroke-width="1" fill="none" />
<polyline points="256.0,290.0,368.0,290.0" stroke="black" stroke-width="1" fill="none" />
<polyline points="288.0,256.0,256.0,288.0" stroke="black" stroke-width="1" fill="none" />
<polyline points="240.0,288.0,312.0,216.0" stroke="black" stroke-width="1" fill="none" />
<polyline points="304.0,216.0,240.0,280.0,240.0,282.0,368.0,282.0" stroke="black" stroke-width="1" fill="none" />
<polyline points="360.0,198.0,320.0,198.0,320.0,200.0,328.0,192.0" stroke="black" stroke-width="1" fill="none" />
<polyline points="320.0,192.0,304.0,208.0" stroke="black" stroke-width="1" fill="none" />
<polyline points="304.0,200.0,296.0,208.0" stroke="black" stroke-width="1" fill="none" />
<polyline points="296.0,200.0,288.0,208.0" stroke="black" stroke-width="1" fill="none" />
<polyline points="288.0,200.0,280.0,208.0" stroke="black" stroke-width="1" fill="none" />
<polyline points="280.0,200.0,272.0,208.0" stroke="black" stroke-width="1" fill="none" />
<polyline points="272.0,200.0,264.0,208.0,264.0,206.0,296.0,206.0" stroke="black" stroke-width="1" fill="none" />
<polyline points="296.0,216.0,232.0,280.0,232.0,278.0,288.0,278.0" stroke="black" stroke-width="1" fill="none" />
<polyline points="264.0,314.0,360.0,314.0" stroke="black" stroke-width="1" fill="none" />
<polyline points="296.0,366.0,264.0,366.0" stroke="black" stroke-width="1" fill="none" />
<polyline points="264.0,360.0,248.0,376.0" stroke="black" stroke-width="1" fill="none" />
<polyline points="248.0,368.0,240.0,376.0" stroke="black" stroke-width="1" fill="none" />
<polyline points="240.0,368.0,216.0,392.0" stroke="black" stroke-width="1" fill="none" />
<polyline points="208.0,376.0,192.0,392.0,192.0,394.0,208.0,394.0" stroke="black" stroke-width="1" fill="none" />
<polyline points="200.0,400.0,232.0,368.0" stroke="black" stroke-width="1" fill="none" />
<polyline points="224.0,368.0,192.0,400.0" stroke="black" stroke-width="1" fill="none" />
<polyline points="192.0,408.0,160.0,440.0" stroke="black" stroke-width="1" fill="none" />
<polyline points="160.0,448.0,192.0,416.0" stroke="black" stroke-width="1" fill="none" />
<polyline points="200.0,416.0,168.0,448.0,168.0,446.0,336.0,446.0" stroke="black" stroke-width="1" fill="none" />
<polyline points="352.0,438.0,312.0,438.0" stroke="black" stroke-width="1" fill="none" />
<polyline points="272.0,440.0,248.0,464.0" stroke="black" stroke-width="1" fill="none" />
<polyline points="240.0,464.0,264.0,440.0" stroke="black" stroke-width="1" fill="none" />
<polyline points="256.0,440.0,232.0,464.0,232.0,462.0,264.0,462.0" stroke="black" stroke-width="1" fill="none" />
<polyline points="248.0,440.0,224.0,464.0" stroke="black" stroke-width="1" fill="none" />
<polyline points="216.0,464.0,240.0,440.0" stroke="black" stroke-width="1" fill="none" />
<polyline points="240.0,432.0,216.0,456.0" stroke="black" stroke-width="1" fill="none" />
<polyline points="208.0,456.0,232.0,432.0" stroke="black" stroke-width="1" fill="none" />
<polyline points="224.0,432.0,200.0,456.0,200.0,458.0,304.0,458.0" stroke="black" stroke-width="1" fill="none" />
<polyline points="248.0,408.0,240.0,416.0" stroke="black" stroke-width="1" fill="none" />
<polyline points="232.0,416.0,248.0,400.0" stroke="black" stroke-width="1" fill="none" />
<polyline points="248.0,392.0,224.0,416.0,224.0,414.0,248.0,414.0,248.0,418.0,232.0,418.0" stroke="black" stroke-width="1" fill="none" />
<polyline points="232.0,406.0,248.0,406.0" stroke="black" stroke-width="1" fill="none" />
<polyline points="240.0,394.0,256.0,394.0" stroke="black" stroke-width="1" fill="none" />
<polyline points="248.0,402.0,232.0,402.0" stroke="black" stroke-width="1" fill="none" />
<polyline points="216.0,410.0,256.0,410.0" stroke="black" stroke-width="1" fill="none" />
<polyline points="272.0,374.0,224.0,374.0" stroke="black" stroke-width="1" fill="none" />
<polyline points="240.0,362.0,304.0,362.0" stroke="black" stroke-width="1" fill="none" />
<polyline points="264.0,322.0,368.0,322.0" stroke="black" stroke-width="1" fill="none" />
<polyline points="328.0,222.0,304.0,222.0" stroke="black" stroke-width="1" fill="none" />
<polyline points="280.0,224.0,232.0,272.0" stroke="black" stroke-width="1" fill="none" />
<polyline points="224.0,272.0,272.0,224.0" stroke="black" stroke-width="1" fill="none" />
<polyline points="264.0,224.0,224.0,264.0" stroke="black" stroke-width="1" fill="none" />
<polyline points="224.0,270.0,288.0,270.0" stroke="black" stroke-width="1" fill="none" />
<polyline points="256.0,224.0,216.0,264.0,216.0,262.0,288.0,262.0" stroke="black" stroke-width="1" fill="none" />
<polyline points="264.0,218.0,336.0,218.0" stroke="black" stroke-width="1" fill="none" />
<polyline points="328.0,200.0,336.0,192.0" stroke="black" stroke-width="1" fill="none" />
<polyline points="344.0,190.0,352.0,190.0" stroke="black" stroke-width="1" fill="none" />
<polyline points="344.0,144.0,304.0,184.0,304.0,182.0,320.0,182.0" stroke="black" stroke-width="1" fill="none" />
<polyline points="304.0,174.0,336.0,174.0" stroke="black" stroke-width="1" fill="none" />
<polyline points="352.0,158.0,312.0,158.0" stroke="black" stroke-width="1" fill="none" />
<polyline points="304.0,160.0,352.0,112.0" stroke="black" stroke-width="1" fill="none" />
<polyline points="344.0,112.0,320.0,136.0" stroke="black" stroke-width="1" fill="none" />
<polyline points="320.0,142.0,336.0,142.0" stroke="black" stroke-width="1" fill="none" />
<polyline points="344.0,136.0,296.0,184.0" stroke="black" stroke-width="1" fill="none" />
<polyline points="296.0,178.0,328.0,178.0" stroke="black" stroke-width="1" fill="none" />
<polyline points="320.0,150.0,376.0,150.0" stroke="black" stroke-width="1" fill="none" />
<polyline points="344.0,104.0,312.0,136.0,312.0,138.0,384.0,138.0" stroke="black" stroke-width="1" fill="none" />
<polyline points="336.0,104.0,304.0,136.0,304.0,134.0,336.0,134.0" stroke="black" stroke-width="1" fill="none" />
<polyline points="312.0,146.0,384.0,146.0" stroke="black" stroke-width="1" fill="none" />
<polyline points="336.0,96.0,304.0,128.0,304.0,126.0,360.0,126.0" stroke="black" stroke-width="1" fill="none" />
<polyline points="328.0,96.0,296.0,128.0,296.0,130.0,352.0,130.0" stroke="black" stroke-width="1" fill="none" />
<polyline points="328.0,102.0,312.0,102.0" stroke="black" stroke-width="1" fill="none" />
<polyline points="304.0,98.0,336.0,98.0" stroke="black" stroke-width="1" fill="none" />
<polyline points="352.0,118.0,304.0,118.0" stroke="black" stroke-width="1" fill="none" />
<polyline points="304.0,110.0,344.0,110.0" stroke="black" stroke-width="1" fill="none" />
<polyline points="368.0,114.0,296.0,114.0" stroke="black" stroke-width="1" fill="none" />
<polyline points="296.0,106.0,352.0,106.0" stroke="black" stroke-width="1" fill="none" />
<polyline points="376.0,154.0,304.0,154.0" stroke="black" stroke-width="1" fill="none" />
<polyline points="296.0,162.0,376.0,162.0" stroke="black" stroke-width="1" fill="none" />
<polyline points="336.0,170.0,296.0,170.0" stroke="black" stroke-width="1" fill="none" />
<polyline points="280.0,160.0,288.0,152.0" stroke="black" stroke-width="1" fill="none" />
<polyline points="280.0,152.0,240.0,192.0" stroke="black" stroke-width="1" fill="none" />
<polyline points="232.0,192.0,280.0,144.0" stroke="black" stroke-width="1" fill="none" />
<polyline points="272.0,144.0,224.0,192.0" stroke="black" stroke-width="1" fill="none" />
<polyline points="232.0,202.0,328.0,202.0" stroke="black" stroke-width="1" fill="none" />
<polyline points="288.0,194.0,416.0,194.0" stroke="black" stroke-width="1" fill="none" />
<polyline points="272.0,184.0,264.0,192.0" stroke="black" stroke-width="1" fill="none" />
<polyline points="264.0,200.0,256.0,208.0" stroke="black" stroke-width="1" fill="none" />
<polyline points="256.0,200.0,248.0,208.0" stroke="black" stroke-width="1" fill="none" />
<polyline points="240.0,208.0,232.0,216.0" stroke="black" stroke-width="1" fill="none" />
<polyline points="232.0,208.0,224.0,216.0" stroke="black" stroke-width="1" fill="none" />
<polyline points="224.0,208.0,216.0,216.0" stroke="black" stroke-width="1" fill="none" />
<polyline points="216.0,208.0,208.0,216.0,208.0,214.0,224.0,214.0" stroke="black" stroke-width="1" fill="none" />
<polyline points="224.0,224.0,200.0,248.0" stroke="black" stroke-width="1" fill="none" />
<polyline points="208.0,248.0,232.0,224.0" stroke="black" stroke-width="1" fill="none" />
<polyline points="232.0,230.0,312.0,230.0" stroke="black" stroke-width="1" fill="none" />
<polyline points="248.0,224.0,216.0,256.0,216.0,254.0,288.0,254.0" stroke="black" stroke-width="1" fill="none" />
<polyline points="240.0,224.0,208.0,256.0" stroke="black" stroke-width="1" fill="none" />
<polyline points="208.0,250.0,344.0,250.0" stroke="black" stroke-width="1" fill="none" />
<polyline points="272.0,176.0,256.0,192.0" stroke="black" stroke-width="1" fill="none" />
<polyline points="248.0,192.0,272.0,168.0" stroke="black" stroke-width="1" fill="none" />
<polyline points="272.0,128.0,200.0,200.0" stroke="black" stroke-width="1" fill="none" />
<polyline points="200.0,208.0,192.0,216.0" stroke="black" stroke-width="1" fill="none" />
<polyline points="200.0,216.0,208.0,208.0" stroke="black" stroke-width="1" fill="none" />
<polyline points="208.0,200.0,280.0,128.0" stroke="black" stroke-width="1" fill="none" />
<polyline points="272.0,120.0,192.0,200.0" stroke="black" stroke-width="1" fill="none" />
<polyline points="184.0,200.0,264.0,120.0" stroke="black" stroke-width="1" fill="none" />
<polyline points="256.0,120.0,184.0,192.0,184.0,194.0,232.0,194.0" stroke="black" stroke-width="1" fill="none" />
<polyline points="264.0,190.0,192.0,190.0" stroke="black" stroke-width="1" fill="none" />
<polyline points="192.0,182.0,272.0,182.0" stroke="black" stroke-width="1" fill="none" />
<polyline points="288.0,246.0,208.0,246.0" stroke="black" stroke-width="1" fill="none" />
<polyline points="208.0,232.0,192.0,248.0" stroke="black" stroke-width="1" fill="none" />
<polyline points="184.0,248.0,200.0,232.0" stroke="black" stroke-width="1" fill="none" />
<polyline points="192.0,232.0,184.0,240.0" stroke="black" stroke-width="1" fill="none" />
<polyline points="184.0,232.0,176.0,240.0" stroke="black" stroke-width="1" fill="none" />
<polyline points="176.0,232.0,168.0,240.0,168.0,238.0,296.0,238.0" stroke="black" stroke-width="1" fill="none" />
<polyline points="224.0,274.0,368.0,274.0" stroke="black" stroke-width="1" fill="none" />
<polyline points="368.0,266.0,216.0,266.0" stroke="black" stroke-width="1" fill="none" />
<polyline points="216.0,258.0,360.0,258.0" stroke="black" stroke-width="1" fill="none" />
<polyline points="304.0,370.0,200.0,370.0" stroke="black" stroke-width="1" fill="none" />
<polyline points="192.0,378.0,256.0,378.0" stroke="black" stroke-width="1" fill="none" />
<polyline points="232.0,382.0,200.0,382.0" stroke="black" stroke-width="1" fill="none" />
<polyline points="192.0,384.0,184.0,392.0,184.0,390.0,208.0,390.0" stroke="black" stroke-width="1" fill="none" />
<polyline points="224.0,386.0,184.0,386.0" stroke="black" stroke-width="1" fill="none" />
<polyline points="176.0,400.0,144.0,432.0" stroke="black" stroke-width="1" fill="none" />
<polyline points="144.0,440.0,176.0,408.0" stroke="black" stroke-width="1" fill="none" />
<polyline points="184.0,408.0,152.0,440.0,152.0,438.0,232.0,438.0" stroke="black" stroke-width="1" fill="none" />
<polyline points="200.0,424.0,176.0,448.0,176.0,450.0,328.0,450.0" stroke="black" stroke-width="1" fill="none" />
<polyline points="168.0,392.0,128.0,432.0" stroke="black" stroke-width="1" fill="none" />
<polyline points="128.0,426.0,224.0,426.0" stroke="black" stroke-width="1" fill="none" />
<polyline points="160.0,392.0,128.0,424.0" stroke="black" stroke-width="1" fill="none" />
<polyline points="120.0,424.0,160.0,384.0" stroke="black" stroke-width="1" fill="none" />
<polyline points="152.0,384.0,120.0,416.0,120.0,418.0,208.0,418.0" stroke="black" stroke-width="1" fill="none" />
<polyline points="152.0,442.0,352.0,442.0" stroke="black" stroke-width="1" fill="none" />
<polyline points="152.0,376.0,112.0,416.0,112.0,414.0,184.0,414.0" stroke="black" stroke-width="1" fill="none" />
<polyline points="136.0,434.0,264.0,434.0" stroke="black" stroke-width="1" fill="none" />
<polyline points="144.0,376.0,112.0,408.0" stroke="black" stroke-width="1" fill="none" />
<polyline points="104.0,408.0,144.0,368.0" stroke="black" stroke-width="1" fill="none" />
<polyline points="136.0,368.0,104.0,400.0" stroke="black" stroke-width="1" fill="none" />
<polyline points="104.0,406.0,176.0,406.0" stroke="black" stroke-width="1" fill="none" />
<polyline points="200.0,422.0,120.0,422.0" stroke="black" stroke-width="1" fill="none" />
<polyline points="104.0,410.0,192.0,410.0" stroke="black" stroke-width="1" fill="none" />
<polyline points="136.0,360.0,96.0,400.0,96.0,402.0,184.0,402.0" stroke="black" stroke-width="1" fill="none" />
<polyline points="128.0,352.0,88.0,392.0,88.0,390.0,160.0,390.0" stroke="black" stroke-width="1" fill="none" />
<polyline points="128.0,344.0,88.0,384.0" stroke="black" stroke-width="1" fill="none" />
<polyline points="80.0,384.0,120.0,344.0" stroke="black" stroke-width="1" fill="none" />
<polyline points="120.0,336.0,80.0,376.0,80.0,378.0,160.0,378.0" stroke="black" stroke-width="1" fill="none" />
<polyline points="120.0,328.0,72.0,376.0,72.0,374.0,144.0,374.0" stroke="black" stroke-width="1" fill="none" />
<polyline points="112.0,328.0,72.0,368.0,72.0,366.0,136.0,366.0" stroke="black" stroke-width="1" fill="none" />
<polyline points="112.0,320.0,64.0,368.0" stroke="black" stroke-width="1" fill="none" />
<polyline points="64.0,362.0,144.0,362.0" stroke="black" stroke-width="1" fill="none" />
<polyline points="112.0,312.0,64.0,360.0,64.0,358.0,128.0,358.0" stroke="black" stroke-width="1" fill="none" />
<polyline points="104.0,312.0,64.0,352.0,64.0,350.0,128.0,350.0" stroke="black" stroke-width="1" fill="none" />
<polyline points="128.0,306.0,120.0,306.0,120.0,304.0,136.0,288.0" stroke="black" stroke-width="1" fill="none" />
<polyline points="128.0,288.0,120.0,296.0,120.0,298.0,136.0,298.0,136.0,296.0,128.0,304.0" stroke="black" stroke-width="1" fill="none" />
<polyline points="128.0,294.0,136.0,294.0,136.0,290.0,120.0,290.0,120.0,288.0,136.0,272.0" stroke="black" stroke-width="1" fill="none" />
<polyline points="136.0,264.0,120.0,280.0,120.0,278.0,136.0,278.0" stroke="black" stroke-width="1" fill="none" />
<polyline points="136.0,270.0,128.0,270.0" stroke="black" stroke-width="1" fill="none" />
<polyline points="128.0,262.0,136.0,262.0" stroke="black" stroke-width="1" fill="none" />
<polyline points="136.0,256.0,120.0,272.0,120.0,274.0,136.0,274.0" stroke="black" stroke-width="1" fill="none" />
<polyline points="128.0,286.0,120.0,286.0,120.0,282.0,136.0,282.0" stroke="black" stroke-width="1" fill="none" />
<polyline points="136.0,266.0,120.0,266.0" stroke="black" stroke-width="1" fill="none" />
<polyline points="120.0,258.0,144.0,258.0" stroke="black" stroke-width="1" fill="none" />
<polyline points="152.0,258.0,176.0,258.0" stroke="black" stroke-width="1" fill="none" />
<polyline points="176.0,264.0,160.0,280.0,160.0,278.0,168.0,278.0,168.0,280.0,176.0,272.0" stroke="black" stroke-width="1" fill="none" />
<polyline points="176.0,280.0,168.0,288.0,168.0,286.0,176.0,286.0" stroke="black" stroke-width="1" fill="none" />
<polyline points="176.0,294.0,184.0,294.0" stroke="black" stroke-width="1" fill="none" />
<polyline points="184.0,288.0,176.0,296.0,176.0,298.0,184.0,298.0" stroke="black" stroke-width="1" fill="none" />
<polyline points="168.0,296.0,184.0,280.0" stroke="black" stroke-width="1" fill="none" />
<polyline points="192.0,290.0,168.0,290.0" stroke="black" stroke-width="1" fill="none" />
<polyline points="160.0,282.0,192.0,282.0" stroke="black" stroke-width="1" fill="none" />
<polyline points="168.0,264.0,160.0,272.0,160.0,270.0,168.0,270.0" stroke="black" stroke-width="1" fill="none" />
<polyline points="160.0,274.0,176.0,274.0" stroke="black" stroke-width="1" fill="none" />
<polyline points="160.0,264.0,168.0,256.0" stroke="black" stroke-width="1" fill="none" />
<polyline points="160.0,256.0,152.0,264.0,152.0,266.0,176.0,266.0" stroke="black" stroke-width="1" fill="none" />
<polyline points="168.0,262.0,160.0,262.0" stroke="black" stroke-width="1" fill="none" />
<polyline points="152.0,256.0,160.0,248.0" stroke="black" stroke-width="1" fill="none" />
<polyline points="152.0,248.0,168.0,232.0" stroke="black" stroke-width="1" fill="none" />
<polyline points="160.0,232.0,152.0,240.0" stroke="black" stroke-width="1" fill="none" />
<polyline points="152.0,234.0,376.0,234.0" stroke="black" stroke-width="1" fill="none" />
<polyline points="264.0,104.0,192.0,176.0,192.0,174.0,272.0,174.0" stroke="black" stroke-width="1" fill="none" />
<polyline points="256.0,104.0,200.0,160.0,200.0,158.0,280.0,158.0" stroke="black" stroke-width="1" fill="none" />
<polyline points="248.0,104.0,200.0,152.0,200.0,150.0,280.0,150.0" stroke="black" stroke-width="1" fill="none" />
<polyline points="240.0,104.0,200.0,144.0" stroke="black" stroke-width="1" fill="none" />
<polyline points="200.0,154.0,288.0,154.0" stroke="black" stroke-width="1" fill="none" />
<polyline points="240.0,96.0,160.0,176.0,160.0,174.0,176.0,174.0" stroke="black" stroke-width="1" fill="none" />
<polyline points="184.0,178.0,272.0,178.0" stroke="black" stroke-width="1" fill="none" />
<polyline points="272.0,166.0,200.0,166.0" stroke="black" stroke-width="1" fill="none" />
<polyline points="192.0,162.0,272.0,162.0" stroke="black" stroke-width="1" fill="none" />
<polyline points="240.0,94.0,224.0,94.0" stroke="black" stroke-width="1" fill="none" />
<polyline points="216.0,96.0,160.0,152.0,160.0,150.0,192.0,150.0" stroke="black" stroke-width="1" fill="none" />
<polyline points="184.0,160.0,160.0,184.0,160.0,182.0,168.0,182.0" stroke="black" stroke-width="1" fill="none" />
<polyline points="160.0,178.0,176.0,178.0" stroke="black" stroke-width="1" fill="none" />
<polyline points="184.0,186.0,280.0,186.0" stroke="black" stroke-width="1" fill="none" />
<polyline points="272.0,170.0,192.0,170.0" stroke="black" stroke-width="1" fill="none" />
<polyline points="184.0,198.0,200.0,198.0" stroke="black" stroke-width="1" fill="none" />
<polyline points="192.0,226.0,360.0,226.0" stroke="black" stroke-width="1" fill="none" />
<polyline points="240.0,88.0,152.0,176.0" stroke="black" stroke-width="1" fill="none" />
<polyline points="152.0,170.0,176.0,170.0,176.0,166.0,160.0,166.0" stroke="black" stroke-width="1" fill="none" />
<polyline points="160.0,160.0,232.0,88.0" stroke="black" stroke-width="1" fill="none" />
<polyline points="232.0,82.0,248.0,82.0" stroke="black" stroke-width="1" fill="none" />
<polyline points="216.0,88.0,160.0,144.0,160.0,142.0,264.0,142.0" stroke="black" stroke-width="1" fill="none" />
<polyline points="208.0,88.0,160.0,136.0,160.0,134.0,272.0,134.0" stroke="black" stroke-width="1" fill="none" />
<polyline points="224.0,82.0,208.0,82.0" stroke="black" stroke-width="1" fill="none" />
<polyline points="200.0,88.0,160.0,128.0,160.0,126.0,272.0,126.0" stroke="black" stroke-width="1" fill="none" />
<polyline points="208.0,94.0,200.0,94.0" stroke="black" stroke-width="1" fill="none" />
<polyline points="192.0,88.0,160.0,120.0,160.0,122.0,272.0,122.0" stroke="black" stroke-width="1" fill="none" />
<polyline points="192.0,94.0,184.0,94.0" stroke="black" stroke-width="1" fill="none" />
<polyline points="176.0,96.0,160.0,112.0,160.0,114.0,264.0,114.0" stroke="black" stroke-width="1" fill="none" />
<polyline points="240.0,102.0,176.0,102.0" stroke="black" stroke-width="1" fill="none" />
<polyline points="168.0,96.0,160.0,104.0,160.0,106.0,264.0,106.0" stroke="black" stroke-width="1" fill="none" />
<polyline points="240.0,90.0,176.0,90.0" stroke="black" stroke-width="1" fill="none" />
<polyline points="160.0,98.0,256.0,98.0" stroke="black" stroke-width="1" fill="none" />
<polyline points="176.0,64.0,224.0,16.0" stroke="black" stroke-width="1" fill="none" />
<polyline points="208.0,24.0,32.0,200.0,32.0,198.0,88.0,198.0" stroke="black" stroke-width="1" fill="none" />
<polyline points="96.0,200.0,80.0,216.0" stroke="black" stroke-width="1" fill="none" />
<polyline points="72.0,216.0,96.0,192.0" stroke="black" stroke-width="1" fill="none" />
<polyline points="96.0,184.0,64.0,216.0" stroke="black" stroke-width="1" fill="none" />
<polyline points="56.0,216.0,96.0,176.0" stroke="black" stroke-width="1" fill="none" />
<polyline points="96.0,168.0,48.0,216.0" stroke="black" stroke-width="1" fill="none" />
<polyline points="56.0,226.0,136.0,226.0" stroke="black" stroke-width="1" fill="none" />
<polyline points="144.0,224.0,152.0,216.0" stroke="black" stroke-width="1" fill="none" />
<polyline points="144.0,216.0,136.0,224.0" stroke="black" stroke-width="1" fill="none" />
<polyline points="136.0,216.0,128.0,224.0" stroke="black" stroke-width="1" fill="none" />
<polyline points="112.0,224.0,104.0,232.0" stroke="black" stroke-width="1" fill="none" />
<polyline points="104.0,224.0,96.0,232.0" stroke="black" stroke-width="1" fill="none" />
<polyline points="96.0,224.0,88.0,232.0" stroke="black" stroke-width="1" fill="none" />
<polyline points="88.0,224.0,80.0,232.0" stroke="black" stroke-width="1" fill="none" />
<polyline points="80.0,248.0,32.0,296.0,32.0,298.0,104.0,298.0,104.0,296.0,56.0,344.0,56.0,342.0,120.0,342.0" stroke="black" stroke-width="1" fill="none" />
<polyline points="152.0,382.0,80.0,382.0,80.0,386.0,168.0,386.0" stroke="black" stroke-width="1" fill="none" />
<polyline points="176.0,394.0,88.0,394.0" stroke="black" stroke-width="1" fill="none" />
<polyline points="72.0,370.0,152.0,370.0" stroke="black" stroke-width="1" fill="none" />
<polyline points="104.0,288.0,56.0,336.0,56.0,334.0,120.0,334.0" stroke="black" stroke-width="1" fill="none" />
<polyline points="96.0,288.0,48.0,336.0,48.0,338.0,128.0,338.0" stroke="black" stroke-width="1" fill="none" />
<polyline points="96.0,280.0,48.0,328.0,48.0,326.0,112.0,326.0" stroke="black" stroke-width="1" fill="none" />
<polyline points="96.0,272.0,48.0,320.0,48.0,318.0,112.0,318.0" stroke="black" stroke-width="1" fill="none" />
<polyline points="96.0,264.0,40.0,320.0,40.0,322.0,120.0,322.0" stroke="black" stroke-width="1" fill="none" />
<polyline points="128.0,256.0,144.0,240.0" stroke="black" stroke-width="1" fill="none" />
<polyline points="152.0,246.0,160.0,246.0" stroke="black" stroke-width="1" fill="none" />
<polyline points="160.0,254.0,152.0,254.0" stroke="black" stroke-width="1" fill="none" />
<polyline points="136.0,254.0,128.0,254.0,128.0,250.0,168.0,250.0" stroke="black" stroke-width="1" fill="none" />
<polyline points="168.0,224.0,176.0,216.0" stroke="black" stroke-width="1" fill="none" />
<polyline points="168.0,216.0,160.0,224.0" stroke="black" stroke-width="1" fill="none" />
<polyline points="160.0,216.0,152.0,224.0" stroke="black" stroke-width="1" fill="none" />
<polyline points="168.0,210.0,264.0,210.0" stroke="black" stroke-width="1" fill="none" />
<polyline points="248.0,118.0,168.0,118.0" stroke="black" stroke-width="1" fill="none" />
<polyline points="168.0,110.0,256.0,110.0" stroke="black" stroke-width="1" fill="none" />
<polyline points="240.0,38.0,168.0,38.0" stroke="black" stroke-width="1" fill="none" />
<polyline points="168.0,32.0,48.0,152.0,48.0,150.0,104.0,150.0,104.0,152.0,32.0,224.0" stroke="black" stroke-width="1" fill="none" />
<polyline points="32.0,216.0,112.0,136.0" stroke="black" stroke-width="1" fill="none" />
<polyline points="120.0,120.0,32.0,208.0,32.0,206.0,88.0,206.0" stroke="black" stroke-width="1" fill="none" />
<polyline points="112.0,218.0,200.0,218.0" stroke="black" stroke-width="1" fill="none" />
<polyline points="184.0,158.0,160.0,158.0,160.0,154.0,192.0,154.0" stroke="black" stroke-width="1" fill="none" />
<polyline points="160.0,146.0,288.0,146.0" stroke="black" stroke-width="1" fill="none" />
<polyline points="320.0,26.0,176.0,26.0" stroke="black" stroke-width="1" fill="none" />
<polyline points="176.0,32.0,40.0,168.0,40.0,170.0,96.0,170.0" stroke="black" stroke-width="1" fill="none" />
<polyline points="112.0,134.0,64.0,134.0" stroke="black" stroke-width="1" fill="none" />
<polyline points="64.0,126.0,112.0,126.0" stroke="black" stroke-width="1" fill="none" />
<polyline points="128.0,102.0,80.0,102.0,80.0,98.0,136.0,98.0" stroke="black" stroke-width="1" fill="none" />
<polyline points="112.0,70.0,168.0,70.0" stroke="black" stroke-width="1" fill="none" />
<polyline points="152.0,46.0,208.0,46.0" stroke="black" stroke-width="1" fill="none" />
<polyline points="200.0,24.0,32.0,192.0,32.0,194.0,96.0,194.0" stroke="black" stroke-width="1" fill="none" />
<polyline points="88.0,248.0,40.0,296.0,40.0,294.0,96.0,294.0" stroke="black" stroke-width="1" fill="none" />
<polyline points="96.0,256.0,40.0,312.0,40.0,310.0,104.0,310.0" stroke="black" stroke-width="1" fill="none" />
<polyline points="128.0,346.0,56.0,346.0" stroke="black" stroke-width="1" fill="none" />
<polyline points="48.0,330.0,120.0,330.0" stroke="black" stroke-width="1" fill="none" />
<polyline points="112.0,314.0,40.0,314.0" stroke="black" stroke-width="1" fill="none" />
<polyline points="40.0,306.0,112.0,306.0" stroke="black" stroke-width="1" fill="none" />
<polyline points="128.0,242.0,392.0,242.0" stroke="black" stroke-width="1" fill="none" />
<polyline points="296.0,18.0,200.0,18.0" stroke="black" stroke-width="1" fill="none" />
<polyline points="192.0,24.0,40.0,176.0,40.0,174.0,96.0,174.0" stroke="black" stroke-width="1" fill="none" />
<polyline points="104.0,142.0,56.0,142.0" stroke="black" stroke-width="1" fill="none" />
<polyline points="56.0,136.0,152.0,40.0" stroke="black" stroke-width="1" fill="none" />
<polyline points="144.0,42.0,224.0,42.0" stroke="black" stroke-width="1" fill="none" />
<polyline points="160.0,34.0,336.0,34.0" stroke="black" stroke-width="1" fill="none" />
<polyline points="272.0,138.0,160.0,138.0" stroke="black" stroke-width="1" fill="none" />
<polyline points="160.0,130.0,280.0,130.0" stroke="black" stroke-width="1" fill="none" />
<polyline points="184.0,162.0,152.0,162.0" stroke="black" stroke-width="1" fill="none" />
<polyline points="152.0,78.0,104.0,78.0" stroke="black" stroke-width="1" fill="none" />
<polyline points="96.0,74.0,160.0,74.0" stroke="black" stroke-width="1" fill="none" />
<polyline points="136.0,54.0,192.0,54.0" stroke="black" stroke-width="1" fill="none" />
<polyline points="128.0,56.0,64.0,120.0" stroke="black" stroke-width="1" fill="none" />
<polyline points="64.0,114.0,128.0,114.0" stroke="black" stroke-width="1" fill="none" />
<polyline points="144.0,86.0,96.0,86.0" stroke="black" stroke-width="1" fill="none" />
<polyline points="88.0,82.0,152.0,82.0" stroke="black" stroke-width="1" fill="none" />
<polyline points="128.0,62.0,176.0,62.0" stroke="black" stroke-width="1" fill="none" />
<polyline points="200.0,50.0,128.0,50.0" stroke="black" stroke-width="1" fill="none" />
<polyline points="120.0,58.0,184.0,58.0" stroke="black" stroke-width="1" fill="none" />
<polyline points="176.0,66.0,104.0,66.0" stroke="black" stroke-width="1" fill="none" />
<polyline points="88.0,94.0,136.0,94.0" stroke="black" stroke-width="1" fill="none" />
<polyline points="144.0,90.0,80.0,90.0" stroke="black" stroke-width="1" fill="none" />
<polyline points="72.0,106.0,128.0,106.0" stroke="black" stroke-width="1" fill="none" />
<polyline points="120.0,118.0,72.0,118.0" stroke="black" stroke-width="1" fill="none" />
<polyline points="72.0,110.0,128.0,110.0" stroke="black" stroke-width="1" fill="none" />
<polyline points="112.0,130.0,56.0,130.0" stroke="black" stroke-width="1" fill="none" />
<polyline points="56.0,122.0,120.0,122.0" stroke="black" stroke-width="1" fill="none" />
<polyline points="96.0,166.0,48.0,166.0" stroke="black" stroke-width="1" fill="none" />
<polyline points="48.0,158.0,96.0,158.0" stroke="black" stroke-width="1" fill="none" />
<polyline points="104.0,146.0,48.0,146.0" stroke="black" stroke-width="1" fill="none" />
<polyline points="48.0,138.0,112.0,138.0" stroke="black" stroke-width="1" fill="none" />
<polyline points="88.0,190.0,40.0,190.0" stroke="black" stroke-width="1" fill="none" />
<polyline points="40.0,182.0,96.0,182.0" stroke="black" stroke-width="1" fill="none" />
<polyline points="104.0,162.0,40.0,162.0" stroke="black" stroke-width="1" fill="none" />
<polyline points="40.0,154.0,104.0,154.0" stroke="black" stroke-width="1" fill="none" />
<polyline points="80.0,214.0,32.0,214.0" stroke="black" stroke-width="1" fill="none" />
<polyline points="24.0,210.0,96.0,210.0" stroke="black" stroke-width="1" fill="none" />
<polyline points="72.0,248.0,32.0,288.0,32.0,290.0,104.0,290.0" stroke="black" stroke-width="1" fill="none" />
<polyline points="64.0,248.0,32.0,280.0,32.0,278.0,96.0,278.0" stroke="black" stroke-width="1" fill="none" />
<polyline points="56.0,248.0,32.0,272.0,32.0,270.0,96.0,270.0" stroke="black" stroke-width="1" fill="none" />
<polyline points="48.0,248.0,32.0,264.0,32.0,262.0,88.0,262.0" stroke="black" stroke-width="1" fill="none" />
<polyline points="40.0,248.0,32.0,256.0,32.0,254.0,88.0,254.0" stroke="black" stroke-width="1" fill="none" />
<polyline points="96.0,286.0,40.0,286.0" stroke="black" stroke-width="1" fill="none" />
<polyline points="32.0,282.0,104.0,282.0" stroke="black" stroke-width="1" fill="none" />
<polyline points="96.0,274.0,32.0,274.0" stroke="black" stroke-width="1" fill="none" />
<polyline points="32.0,266.0,96.0,266.0" stroke="black" stroke-width="1" fill="none" />
<polyline points="96.0,202.0,32.0,202.0" stroke="black" stroke-width="1" fill="none" />
<polyline points="32.0,186.0,96.0,186.0" stroke="black" stroke-width="1" fill="none" />
<polyline points="96.0,178.0,32.0,178.0" stroke="black" stroke-width="1" fill="none" />
<polyline points="24.0,218.0,56.0,218.0" stroke="black" stroke-width="1" fill="none" />
<polyline points="24.0,250.0,96.0,250.0" stroke="black" stroke-width="1" fill="none" />
<polyline points="96.0,258.0,24.0,258.0" stroke="black" stroke-width="1" fill="none" />
</svg>