<svg xmlns="http://www.w3.org/2000/svg" height="280px" width="491px" version="1.1"><polyline points="216.0,16.5,203.5,20.5,195.5,24.5,189.0,28.5,183.5,32.5,179.0,36.5,174.0,40.5,170.5,44.5,166.5,48.5,163.5,52.5,160.5,56.5,158.0,60.5,156.0,64.5,154.0,68.5,152.0,72.5,150.5,76.5,149.0,80.5,148.0,84.5,147.0,88.5,146.0,92.5,145.5,96.5,145.5,100.5,148.5,100.0,152.5,99.5,156.5,99.0,160.5,98.5,164.5,98.0,168.5,97.5,172.5,97.0" stroke="black" stroke-width="1" fill="none" />
<polyline points="176.5,77.0,180.5,66.0,184.5,59.0,188.5,53.0,192.5,47.5,196.5,43.5,200.5,40.0,204.5,37.0,208.5,34.5,212.5,32.0,216.5,29.5,220.5,28.0,224.5,27.0,228.5,25.5,232.5,24.5,236.5,24.0,240.5,23.5,244.5,23.0,248.5,23.0,252.5,23.5,256.5,24.0,260.5,24.5,264.5,25.5,268.5,27.0,272.5,28.5,276.5,30.5,280.5,33.5,284.5,37.0,288.5,41.5,292.5,46.5,296.5,52.0,300.5,56.5,304.5,60.5,308.5,62.5,312.5,63.5,316.5,63.5,320.5,62.0,324.5,57.0,323.0,59.5,325.5,55.5,322.5,55.5,318.5,57.0,314.5,57.0,310.5,55.0,310.0,54.0,314.0,52.0,318.0,47.5" stroke="black" stroke-width="1" fill="none" />
<polyline points="314.5,57.0,312.0,53.0,317.0,49.0,319.5,45.0,319.5,41.0,318.5,37.0,317.0,35.5,313.0,40.0,309.0,43.0,305.0,43.5,301.0,41.5,297.0,38.0,293.0,34.0,289.0,30.0,285.0,26.5,281.0,23.5,277.0,21.0,273.0,19.5,269.0,17.5,265.0,16.5,261.0,15.5,257.0,14.5,253.0,14.0,249.0,13.5,245.0,13.0,241.0,13.0,237.0,13.5,233.0,13.5,229.0,14.0,225.0,14.5,221.0,15.5,217.0,16.5,213.0,17.5,209.0,19.0,205.0,20.0,201.0,22.0,197.0,24.0,193.0,26.0,189.0,28.5,185.0,31.5,181.0,34.5,177.0,38.0,173.0,41.5,169.0,46.0,165.0,50.5,161.0,56.0,157.0,62.5,153.0,70.0,149.0,80.5" stroke="black" stroke-width="1" fill="none" />
<polyline points="146.0,110.5,145.5,114.5,145.5,118.5,146.5,122.5,147.0,126.5,148.5,130.5,149.5,134.5,151.0,138.5,152.5,142.5,154.0,146.5,156.0,150.5,158.5,154.5,161.0,158.5,163.5,162.5,167.0,166.5,170.0,170.5,174.0,174.5,178.5,178.5,183.0,182.5,189.0,186.5,195.0,190.5,203.5,194.5" stroke="black" stroke-width="1" fill="none" />
<polyline points="211.0,170.0,215.0,173.0,219.0,175.0,223.0,173.0,227.0,171.0,231.0,168.5,235.0,167.0,239.0,166.5,243.0,165.5,247.0,165.0,251.0,164.5,255.0,164.0,259.0,165.0" stroke="black" stroke-width="1" fill="none" />
<polyline points="262.5,154.5,266.5,149.0,270.5,147.5,274.5,146.5,278.5,146.0,282.5,144.0,281.0,144.5" stroke="black" stroke-width="1" fill="none" />
<polyline points="271.0,147.0,264.5,151.0,262.5,155.0,262.5,159.0,263.0,163.0" stroke="black" stroke-width="1" fill="none" />
<polyline points="270.0,161.0,274.0,154.5,278.0,151.5,282.0,148.5,284.5,145.0,281.5,149.0,275.5,153.0,271.5,157.0,270.0,161.0,269.5,165.0,269.5,169.0,271.0,173.0,273.5,177.0,278.5,174.5,282.5,174.0,279.0,173.5,279.0,177.5" stroke="black" stroke-width="1" fill="none" />
<polyline points="282.0,170.0,286.0,170.0,286.5,173.0,282.5,169.0" stroke="black" stroke-width="1" fill="none" />
<polyline points="285.5,162.0,289.5,152.5" stroke="black" stroke-width="1" fill="none" />
<polyline points="270.5,171.5,274.5,177.5,278.5,180.0" stroke="black" stroke-width="1" fill="none" />
<polyline points="241.0,181.5,239.5,182.5,242.0,179.5,241.0,175.5,244.0,171.5,241.0,175.0,241.0,171.0,233.0,175.0,228.0,179.0,227.0,180.0,231.0,177.5,235.0,173.5,239.0,172.0,243.0,170.5" stroke="black" stroke-width="1" fill="none" />
<polyline points="233.5,167.0,229.5,171.0,224.5,170.0,222.0,174.0" stroke="black" stroke-width="1" fill="none" />
<polyline points="227.5,181.0,231.5,182.5,235.5,183.5" stroke="black" stroke-width="1" fill="none" />
<polyline points="229.5,186.5,220.0,182.5,214.0,178.5,209.0,174.5,204.5,170.5,200.5,166.5,196.5,162.5,193.5,158.5,191.0,154.5,188.5,150.5,186.0,146.5,183.5,142.5,182.0,138.5,180.0,134.5,178.5,130.5,177.0,126.5,176.0,122.5,175.5,118.5,174.5,114.5,174.5,110.5,173.0,108.0,169.0,108.5,165.0,109.0,161.0,109.5,157.0,110.0,153.0,110.0,149.0,110.5,145.0,111.0" stroke="black" stroke-width="1" fill="none" />
<polyline points="149.0,132.5,153.0,143.5,157.0,151.5,161.0,158.0,165.0,164.0,169.0,168.5,173.0,173.0,177.0,177.0,181.0,180.5,185.0,183.5,189.0,186.0,193.0,189.0,197.0,191.5,201.0,193.0,205.0,195.0,209.0,196.5,213.0,198.0,217.0,198.0,221.0,198.0,225.0,198.0,229.0,198.0,233.0,198.0,237.0,198.0,241.0,198.0,245.0,198.0,249.0,198.0,253.0,198.0,257.0,198.0,261.0,198.0,265.0,198.0,269.0,198.0,273.0,198.0,277.0,197.5,281.0,195.0,285.0,192.0,289.0,189.5,293.0,186.5,297.0,183.0,301.0,179.0,305.0,174.0,309.0,168.0,313.0,160.0" stroke="black" stroke-width="1" fill="none" />
<polyline points="301.5,158.0,297.5,167.0,293.5,173.0,289.5,177.0,285.5,180.5,281.5,183.0,277.5,185.0,273.5,186.5,269.5,188.0,265.5,188.5,261.5,189.5,257.5,190.0,253.5,190.0,249.5,190.5,245.5,190.0,241.5,189.5,237.5,189.0,233.5,188.0,229.5,186.5,225.5,184.5,221.5,183.0,217.5,180.5,213.5,177.5,209.5,174.5,205.5,171.0,201.5,167.0,197.5,163.0,193.5,158.0,189.5,151.5,185.5,145.0,181.5,137.0,177.5,127.0" stroke="black" stroke-width="1" fill="none" />
<polyline points="189.5,134.5,186.0,137.0,185.5,133.0,185.5,129.0,184.5,125.0,185.0,121.0,186.5,117.0,187.5,113.0,190.0,109.0,195.0,105.5,191.0,107.5,187.0,114.5" stroke="black" stroke-width="1" fill="none" />
<polyline points="197.5,113.0,201.5,120.5,205.5,129.0,209.5,132.5,213.5,132.5" stroke="black" stroke-width="1" fill="none" />
<polyline points="213.0,124.5,209.0,122.5,208.5,118.0,204.5,112.5,204.0,109.0,204.5,113.0,208.0,117.0,208.5,121.0,213.5,125.0,214.5,129.0,213.5,133.0" stroke="black" stroke-width="1" fill="none" />
<polyline points="222.5,111.0,224.5,115.0,227.5,119.0,232.0,123.0,237.5,127.0,247.0,131.0,246.5,135.0,246.0,139.0,246.5,143.0,247.5,147.0,248.5,151.0,250.5,155.0,246.5,157.5,242.5,158.5,238.5,159.5,234.5,160.5,230.5,161.5,226.5,162.0,222.5,162.5,218.5,165.5,214.5,167.0,210.5,169.0" stroke="black" stroke-width="1" fill="none" />
<polyline points="217.5,174.5,211.0,170.5,216.5,166.5,222.0,162.5" stroke="black" stroke-width="1" fill="none" />
<polyline points="258.5,123.0,262.5,129.0,266.5,130.5,270.5,131.0,274.5,127.0,270.5,126.5,266.5,121.5,265.0,122.0,269.0,127.0" stroke="black" stroke-width="1" fill="none" />
<polyline points="266.0,118.0,270.0,113.0,274.0,111.5,278.0,111.5,282.0,112.0,286.0,114.0,290.0,118.5" stroke="black" stroke-width="1" fill="none" />
<polyline points="286.0,110.5,292.0,114.5,296.0,118.5,299.0,122.5,301.0,126.5,302.5,130.5,303.5,134.5,304.0,138.5,304.0,142.5,304.0,146.5,303.5,150.5,302.5,154.5,301.5,158.5,300.0,162.5,298.0,166.5,295.5,170.5,292.0,174.5,288.0,178.5,282.5,182.5,273.0,186.5" stroke="black" stroke-width="1" fill="none" />
<polyline points="282.0,229.0,288.0,233.0,292.0,237.0,295.0,241.0,296.5,245.0,298.0,249.0,298.0,253.0,298.0,257.0,297.0,261.0,295.0,265.0,292.5,269.0,289.0,273.0,282.5,277.0" stroke="black" stroke-width="1" fill="none" />
<polyline points="303.0,279.0,307.0,279.0,311.0,279.0,315.0,279.0,319.0,279.0,321.5,276.0,317.5,272.5" stroke="black" stroke-width="1" fill="none" />
<polyline points="304.5,276.0,302.5,277.5,307.5,273.5,308.5,269.5,308.5,265.5,308.5,261.5,308.5,257.5,308.5,253.5,308.5,249.5,308.5,245.5,308.5,241.5,308.5,237.5,308.0,233.5,307.0,232.0,303.0,230.0,302.5,228.5,306.5,228.5,310.5,228.5,314.5,228.0,318.5,228.0,322.5,228.0,326.5,228.0,330.5,228.5,334.5,229.5,338.5,234.0" stroke="black" stroke-width="1" fill="none" />
<polyline points="333.0,229.0,337.5,233.0,339.5,237.0,340.0,241.0,339.0,245.0,336.5,249.0,332.0,253.0,331.0,257.0,334.0,261.0,336.5,265.0,339.0,269.0,342.5,273.0,348.5,277.0" stroke="black" stroke-width="1" fill="none" />
<polyline points="351.0,262.5,355.0,270.0,359.0,274.0,363.0,276.5,367.0,278.5,371.0,279.5,375.0,280.0,379.0,280.0,383.0,279.5,387.0,279.0,391.0,277.5" stroke="black" stroke-width="1" fill="none" />
<polyline points="405.5,278.5,409.5,279.0,413.5,278.5,417.5,278.5,421.5,279.0,425.5,279.0,429.5,279.0,433.5,279.0,437.5,279.0,441.5,275.5,442.0,275.0,443.0,271.0,443.0,267.0,441.0,266.5,439.0,270.5" stroke="black" stroke-width="1" fill="none" />
<polyline points="431.5,255.5,427.5,255.0,423.5,254.5,419.5,255.0,421.0,254.5,419.5,258.5,419.5,262.5,419.5,266.5,419.5,270.5,420.0,271.5,424.0,274.0,428.0,274.0,432.0,274.0,436.0,273.0,440.0,268.0,444.0,267.0" stroke="black" stroke-width="1" fill="none" />
<polyline points="459.0,267.0,463.0,268.5,467.0,273.5,471.0,275.0,475.0,275.5,479.0,274.0,483.0,270.0" stroke="black" stroke-width="1" fill="none" />
<polyline points="488.0,257.5,484.0,254.0,480.0,251.5,476.0,248.5,472.0,246.0,468.0,240.5,467.5,238.0,471.5,232.5,475.5,231.5,479.5,232.0,483.5,234.0,487.5,240.0,489.0,239.5,489.5,235.5,489.5,231.5,488.5,229.5,484.5,228.5,480.5,227.5,476.5,227.5,472.5,227.5,468.5,228.5,464.5,231.0,460.5,237.0" stroke="black" stroke-width="1" fill="none" />
<polyline points="461.0,245.0,465.0,251.0,469.0,254.0,473.0,256.5,477.0,259.0,481.0,262.5" stroke="black" stroke-width="1" fill="none" />
<polyline points="488.5,273.5,484.5,277.0,480.5,279.0,476.5,280.0,472.5,280.0,468.5,279.5,464.5,278.5,460.5,277.0" stroke="black" stroke-width="1" fill="none" />
<polyline points="462.0,267.0,464.0,271.0,470.5,275.0" stroke="black" stroke-width="1" fill="none" />
<polyline points="463.5,278.5,460.0,274.5,459.5,270.5,460.0,266.5" stroke="black" stroke-width="1" fill="none" />
<polyline points="435.0,259.5,431.0,255.5" stroke="black" stroke-width="1" fill="none" />
<polyline points="436.5,260.0,438.0,257.5,437.5,253.5,437.5,249.5,437.5,245.5,435.0,245.0,432.0,249.0" stroke="black" stroke-width="1" fill="none" />
<polyline points="439.5,239.5,435.5,234.0,431.5,233.0,427.5,232.5,423.5,232.5,419.5,234.0,420.0,232.5,419.5,236.5,419.5,240.5,419.5,244.5,419.5,248.5,422.0,250.0,426.0,250.0,430.0,250.0,434.0,247.0,438.0,246.0" stroke="black" stroke-width="1" fill="none" />
<polyline points="441.0,236.0,441.0,232.0,441.0,228.5,437.0,228.0,433.0,228.0,429.0,228.0,425.0,228.0,421.0,228.0,417.0,228.0,413.0,228.0,409.0,228.0,405.0,228.5,405.5,230.0,409.5,231.5,408.0,231.0,411.0,235.0,411.0,239.0,411.5,243.0,411.5,247.0,411.5,251.0,411.5,255.0,411.5,259.0,411.5,263.0,411.0,267.0,411.0,271.0,409.0,275.0,405.5,279.0,408.5,275.5" stroke="black" stroke-width="1" fill="none" />
<polyline points="399.0,260.5,395.0,263.5" stroke="black" stroke-width="1" fill="none" />
<polyline points="386.0,262.5,382.0,260.0,381.5,258.0,385.5,257.5,389.5,257.5,393.5,257.5,397.5,257.5,396.0,261.5,395.0,265.5,395.0,269.5,395.0,273.5,391.0,277.5" stroke="black" stroke-width="1" fill="none" />
<polyline points="383.5,274.0,379.5,275.0,375.5,275.0,371.5,274.0,367.5,271.5,363.5,267.5,359.5,259.5" stroke="black" stroke-width="1" fill="none" />
<polyline points="359.0,244.5,363.0,237.0,367.0,234.5,371.0,232.5,375.0,232.0,379.0,232.0,383.0,232.0,387.0,233.5,391.0,238.0,394.0,236.5,394.0,232.5,394.0,229.5,390.0,228.5,386.0,228.0,382.0,227.5,378.0,227.5,374.0,227.5,370.0,228.0,366.0,229.0,362.0,230.5,358.0,233.5,354.0,237.5,350.0,247.0" stroke="black" stroke-width="1" fill="none" />
<polyline points="330.0,255.5,334.0,260.5,338.0,266.5,342.0,272.0,346.0,275.5" stroke="black" stroke-width="1" fill="none" />
<polyline points="329.5,254.5,333.5,252.0,337.5,247.5" stroke="black" stroke-width="1" fill="none" />
<polyline points="329.0,235.0,325.0,232.5,321.0,231.5,317.0,232.5,318.0,232.0,317.0,236.0,317.0,240.0,317.0,244.0,317.0,248.0,317.5,251.5,321.5,252.0,325.5,251.0,329.5,247.5" stroke="black" stroke-width="1" fill="none" />
<polyline points="320.5,256.5,323.5,260.5,326.0,264.5,329.0,268.5,331.5,272.5,335.0,276.5" stroke="black" stroke-width="1" fill="none" />
<polyline points="345.0,279.5,341.0,279.5,337.0,278.0,333.0,274.0,329.0,268.0,325.0,262.0,321.0,256.5,317.0,256.0,317.0,256.0,317.0,260.0,317.0,264.0,317.0,268.0,317.0,272.0,320.0,276.0" stroke="black" stroke-width="1" fill="none" />
<polyline points="285.0,268.0,281.0,272.0,277.0,274.0,273.0,275.0,269.0,275.0,265.0,274.0,261.0,272.5,257.0,268.5,253.0,260.5" stroke="black" stroke-width="1" fill="none" />
<polyline points="244.5,261.5,248.5,268.5,252.5,273.0,256.5,275.5,260.5,278.0,264.5,279.0,268.5,279.5,272.5,280.0,276.5,279.5,280.5,278.0,284.5,276.0,288.5,273.5,292.5,269.0,296.5,262.0" stroke="black" stroke-width="1" fill="none" />
<polyline points="285.0,237.5,281.0,234.5,277.0,232.5,273.0,231.5,269.0,231.5,265.0,232.5,261.0,234.0,257.0,237.5,253.0,245.0" stroke="black" stroke-width="1" fill="none" />
<polyline points="243.5,247.5,247.5,238.5,251.5,234.0,255.5,231.0,259.5,229.0,263.5,228.0,267.5,227.0,271.5,227.0,275.5,227.5,279.5,228.5,283.5,229.5,287.5,232.0,291.5,236.0,295.5,241.5" stroke="black" stroke-width="1" fill="none" />
<polyline points="276.5,232.5,283.0,236.5,286.5,240.5,288.0,244.5,289.0,248.5,289.5,252.5,289.0,256.5,288.5,260.5,287.5,264.5,284.5,268.5,280.5,272.5" stroke="black" stroke-width="1" fill="none" />
<polyline points="260.0,272.0,256.0,268.0,254.0,264.0,252.5,260.0,252.0,256.0,252.0,252.0,252.5,248.0,253.5,244.0,255.0,240.0,258.5,236.0,265.5,232.0" stroke="black" stroke-width="1" fill="none" />
<polyline points="260.5,228.5,253.5,232.5,249.5,236.5,246.5,240.5,244.5,244.5,243.5,248.5,243.0,252.5,243.5,256.5,244.0,260.5,245.5,264.5,248.0,268.5,251.0,272.5,257.0,276.5" stroke="black" stroke-width="1" fill="none" />
<polyline points="234.5,277.0,230.5,279.0,226.5,279.0,222.5,279.0,218.5,279.0,214.5,279.0,210.5,278.5,206.5,278.5,202.5,279.0,198.5,278.5" stroke="black" stroke-width="1" fill="none" />
<polyline points="183.0,276.0,186.5,272.0,186.5,268.0,186.5,264.0,186.5,260.0,187.5,256.0,191.0,254.0,187.0,257.0" stroke="black" stroke-width="1" fill="none" />
<polyline points="173.5,254.5,169.5,253.0,169.0,251.5,173.0,251.0,177.0,251.0,181.0,251.0,185.0,251.0,189.0,251.0,193.0,251.0" stroke="black" stroke-width="1" fill="none" />
<polyline points="212.5,255.0,216.5,254.5,220.5,255.0,224.5,255.5,224.5,255.5,228.5,259.5" stroke="black" stroke-width="1" fill="none" />
<polyline points="234.0,266.5,232.0,270.5" stroke="black" stroke-width="1" fill="none" />
<polyline points="236.5,267.0,236.5,271.0,235.5,275.0" stroke="black" stroke-width="1" fill="none" />
<polyline points="237.0,267.0,233.0,269.0,229.0,273.0,225.0,274.0,221.0,274.0,217.0,274.0,213.0,271.5,212.5,270.5,212.5,266.5,212.5,262.5,212.5,258.5,214.0,254.5" stroke="black" stroke-width="1" fill="none" />
<polyline points="230.0,260.0,231.0,257.5,231.0,253.5,231.0,249.5,231.0,245.5,228.5,245.0,225.5,249.0" stroke="black" stroke-width="1" fill="none" />
<polyline points="232.5,239.5,228.5,234.0,224.5,232.5,220.5,232.5,216.5,232.5,212.5,233.0,213.0,232.5,212.5,236.5,212.5,240.5,212.5,244.5,212.5,248.5,215.0,250.0,219.0,250.0,223.0,250.0,227.0,248.0,231.0,245.0" stroke="black" stroke-width="1" fill="none" />
<polyline points="234.5,235.5,234.5,231.5,234.0,228.5,230.0,228.0,226.0,228.0,222.0,228.0,218.0,228.0,214.0,228.0,210.0,228.0,206.0,228.0,202.0,228.0,198.0,228.5,198.5,230.0,202.5,231.5,201.0,231.0,204.0,235.0,204.0,239.0,204.5,243.0,204.5,247.0,204.5,251.0,204.5,255.0,204.5,259.0,204.5,263.0,204.0,267.0,204.0,271.0,202.0,275.0,198.5,279.0,201.5,275.5" stroke="black" stroke-width="1" fill="none" />
<polyline points="175.0,272.0,171.0,273.5,167.0,274.0,163.0,274.5,159.0,274.0,155.0,273.0,151.0,271.0,147.0,268.0,143.0,262.5,139.0,254.5" stroke="black" stroke-width="1" fill="none" />
<polyline points="128.0,255.0,132.0,264.5,136.0,269.5,140.0,273.0,144.0,275.5,148.0,277.5,152.0,278.5,156.0,279.5,160.0,279.5,164.0,280.0,168.0,279.5,172.0,279.0,176.0,278.5,180.0,277.5,184.0,275.5" stroke="black" stroke-width="1" fill="none" />
<polyline points="176.5,270.0,176.5,266.0,176.5,262.0,176.0,258.0,172.0,254.0" stroke="black" stroke-width="1" fill="none" />
<polyline points="182.0,223.0,178.0,218.5,174.0,216.5,170.0,215.5,166.0,215.0,162.0,215.0,158.0,215.5,154.0,216.5,150.0,218.0,146.0,220.0,142.0,224.5,138.0,232.5" stroke="black" stroke-width="1" fill="none" />
<polyline points="128.0,233.5,132.0,225.0,136.0,220.0,140.0,216.5,144.0,214.0,148.0,212.5,152.0,211.0,156.0,210.5,160.0,210.0,164.0,210.0,168.0,210.0,172.0,210.0,176.0,210.5,180.0,211.5,184.0,213.0,185.5,214.5,185.5,218.5,185.5,222.5,182.5,224.5,180.0,220.5,173.0,216.5" stroke="black" stroke-width="1" fill="none" />
<polyline points="155.0,216.0,146.0,220.0,142.5,224.0,140.0,228.0,138.5,232.0,137.5,236.0,137.0,240.0,137.0,244.0,137.5,248.0,138.0,252.0,139.5,256.0,141.0,260.0,143.5,264.0,146.5,268.0,152.0,272.0" stroke="black" stroke-width="1" fill="none" />
<polyline points="92.0,276.5,88.0,273.5,89.0,279.0,85.0,279.0,81.0,279.0,77.0,279.0,73.0,279.0" stroke="black" stroke-width="1" fill="none" />
<polyline points="52.0,251.5,48.0,247.0,44.0,244.5,40.0,242.0,36.0,239.0,32.0,237.0,28.0,234.0,24.0,228.0,23.5,223.0,27.5,217.5,31.5,215.5,35.5,215.0,39.5,215.5,43.5,216.5,47.5,219.5,49.5,224.0,47.5,220.0,41.5,216.0" stroke="black" stroke-width="1" fill="none" />
<polyline points="48.0,211.5,53.0,215.5,53.0,219.5,53.0,223.5,51.0,226.0" stroke="black" stroke-width="1" fill="none" />
<polyline points="62.0,227.5,61.5,231.5,61.0,235.5,60.5,239.5,64.5,236.5,68.5,233.5,72.5,233.0,76.5,233.0,78.5,233.5,78.5,237.5,78.5,241.5,78.5,245.5,78.5,249.5,78.5,253.5,78.5,257.5,78.5,261.5,78.5,265.5,78.5,269.5,78.0,273.5,72.5,277.5,74.5,276.0" stroke="black" stroke-width="1" fill="none" />
<polyline points="44.0,257.0,40.0,254.0,36.0,251.0,32.0,248.5,28.0,246.5,24.0,243.5,20.0,240.0,16.0,234.5" stroke="black" stroke-width="1" fill="none" />
<polyline points="15.0,223.0,19.0,216.0,23.0,213.0,27.0,211.0,31.0,210.0,35.0,210.0,39.0,210.0,43.0,210.5,47.0,211.0,51.0,212.5" stroke="black" stroke-width="1" fill="none" />
<polyline points="33.0,215.0,25.5,219.0,23.5,223.0,23.5,227.0,25.0,231.0,29.0,235.0,35.0,239.0,41.0,243.0,47.0,247.0,51.0,251.0,53.5,255.0,55.0,259.0,55.0,263.0,54.5,267.0,52.5,271.0,48.5,275.0" stroke="black" stroke-width="1" fill="none" />
<polyline points="54.5,266.0,50.5,273.5,46.5,276.5,42.5,278.5,38.5,279.5,34.5,279.5,30.5,280.0,26.5,279.5,22.5,279.0,18.5,278.0,14.5,274.5,14.5,275.5,14.0,271.5,13.5,267.5,13.0,263.5,13.0,263.5,17.0,265.0,21.0,270.5,25.0,273.5,29.0,274.5,33.0,274.5,37.0,274.0,41.0,273.0,45.0,269.0" stroke="black" stroke-width="1" fill="none" />
<polyline points="21.0,271.0,17.5,267.0,15.0,263.0" stroke="black" stroke-width="1" fill="none" />
<polyline points="43.5,271.0,46.0,267.0,46.5,263.0,45.0,259.0,40.5,255.0,35.0,251.0,29.0,247.0,22.5,243.0,18.5,239.0,16.0,235.0,15.0,231.0,14.5,227.0,15.0,223.0,16.5,219.0,20.0,215.0,27.0,211.0" stroke="black" stroke-width="1" fill="none" />
<polyline points="62.0,227.5,66.0,228.0,70.0,228.5,74.0,228.5,78.0,228.5,82.0,228.5,86.0,228.5,90.0,228.5,94.0,228.5,98.0,228.0,102.0,227.5,103.5,229.5,104.0,233.5,104.5,237.5,103.0,239.5,99.0,234.5,95.0,233.0,91.0,233.0,87.0,233.0,87.0,233.0,87.0,237.0,87.0,241.0,87.0,245.0,87.0,249.0,87.0,253.0,87.0,257.0,87.0,261.0,87.0,265.0,87.0,269.0,87.5,273.0,93.0,277.0" stroke="black" stroke-width="1" fill="none" />
<polyline points="101.0,237.5,96.0,233.5" stroke="black" stroke-width="1" fill="none" />
<polyline points="68.5,233.5,64.0,237.5" stroke="black" stroke-width="1" fill="none" />
<polyline points="143.5,275.5,137.5,271.5,134.0,267.5,131.0,263.5,129.5,259.5,128.0,255.5,127.0,251.5,126.5,247.5,126.5,243.5,127.0,239.5,127.5,235.5,129.0,231.5,130.5,227.5,133.0,223.5,136.5,219.5,141.5,215.5,150.0,211.5" stroke="black" stroke-width="1" fill="none" />
<polyline points="227.0,233.5,231.0,237.5" stroke="black" stroke-width="1" fill="none" />
<polyline points="325.0,232.5,330.0,236.5,331.5,240.5,331.5,244.5,328.5,248.5" stroke="black" stroke-width="1" fill="none" />
<polyline points="366.5,228.5,359.0,232.5,355.0,236.5,352.5,240.5,351.0,244.5,350.0,248.5,349.5,252.5,349.5,256.5,350.5,260.5,351.5,264.5,353.5,268.5,356.5,272.5,362.0,276.5" stroke="black" stroke-width="1" fill="none" />
<polyline points="385.0,273.5,386.5,269.5,386.5,265.5,385.0,261.5,382.0,257.5" stroke="black" stroke-width="1" fill="none" />
<polyline points="390.0,236.5,383.5,232.5" stroke="black" stroke-width="1" fill="none" />
<polyline points="371.0,232.5,364.0,236.5,360.5,240.5,359.0,244.5,358.5,248.5,358.0,252.5,358.5,256.5,359.5,260.5,361.0,264.5,364.0,268.5,368.0,272.5" stroke="black" stroke-width="1" fill="none" />
<polyline points="433.5,233.5,438.0,237.5" stroke="black" stroke-width="1" fill="none" />
<polyline points="449.0,236.5,447.0,240.5,449.0,236.5,450.5,232.5,450.0,228.5,450.0,228.5,454.0,228.5,457.0,229.5,456.5,233.5,454.0,237.5,451.0,241.5,451.0,241.5,455.0,236.0" stroke="black" stroke-width="1" fill="none" />
<polyline points="468.5,228.5,463.0,232.5,461.0,236.5,460.0,240.5,460.5,244.5,462.5,248.5,466.5,252.5,472.5,256.5,478.5,260.5,482.5,264.5,483.5,268.5,481.5,272.5" stroke="black" stroke-width="1" fill="none" />
<polyline points="485.0,236.5,480.5,232.5" stroke="black" stroke-width="1" fill="none" />
<polyline points="473.0,232.0,468.5,236.0,467.5,240.0,469.5,244.0,475.0,248.0,480.5,252.0,486.0,256.0,489.5,260.0,491.0,264.0,491.0,268.0,489.5,272.0,486.0,276.0" stroke="black" stroke-width="1" fill="none" />
<polyline points="332.0,131.5,336.0,127.5,338.0,123.5,337.5,124.0,333.5,130.5,329.5,133.0,325.5,134.0,321.5,134.0,317.5,134.0,317.5,134.0,317.5,138.0,317.5,142.0,317.0,146.0,316.0,150.0,315.0,154.0,314.0,158.0,312.5,162.0,310.0,166.0,308.0,170.0,305.0,174.0,302.0,178.0,298.5,182.0,293.5,186.0,288.0,190.0,283.5,194.0" stroke="black" stroke-width="1" fill="none" />
<polyline points="300.5,125.0,296.5,118.5,292.5,114.5,288.5,111.5,284.5,110.0,280.5,109.5,276.5,109.5,272.5,110.0,268.5,111.5,264.5,117.0,259.5,115.0,263.5,109.0,267.5,105.5,271.5,103.5,275.5,102.5,279.5,102.0,283.5,101.5,287.5,102.5,291.5,103.5,295.5,105.5,299.5,108.0,303.5,111.0,307.5,114.0,311.5,117.5,315.5,120.5,319.5,123.0,323.5,124.5,327.5,124.5,331.5,124.0,335.5,122.0,337.5,120.5" stroke="black" stroke-width="1" fill="none" />
<polyline points="344.0,91.5,346.0,87.5,339.5,82.0,339.5,82.0,342.5,86.0,343.0,90.0,344.0,91.5,346.5,94.5,342.5,99.0,338.5,101.0,334.5,101.5,330.5,101.5,326.5,101.0,322.5,99.0,318.5,97.0,314.5,95.0,310.5,93.0,306.5,92.0,302.5,91.0,298.5,90.5,294.5,90.0,290.5,90.5,286.5,91.0,282.5,91.5,278.5,92.0,274.5,92.0,270.5,92.5,266.5,93.0,262.5,93.5,258.5,94.0,254.5,94.5,250.5,95.0,246.5,95.5,242.5,96.0,238.5,96.5,234.5,97.0,230.5,97.5,226.5,98.0,222.5,98.5,218.5,99.0,214.5,99.5,210.5,100.0,206.5,100.5,202.5,101.0,198.5,101.5,194.5,101.5,190.5,102.0,186.5,102.5,182.5,103.0,178.5,103.5,174.5,104.0,170.5,104.5,166.5,105.0,162.5,105.0,158.5,105.5,154.5,106.0,150.5,106.5,146.5,107.0,142.5,107.5,138.5,108.0,134.5,108.5,130.5,109.0,126.5,109.5,122.5,110.0,118.5,110.0,114.5,110.5,110.5,111.0,110.0,110.0,114.0,109.0,118.0,108.5,122.0,108.0,126.0,107.0,130.0,106.5,134.0,106.0,138.0,105.5,142.0,105.0,146.0,104.0,150.0,103.5,154.0,103.0,158.0,102.5,162.0,102.0,166.0,101.5,170.0,101.0,174.0,100.5,178.0,100.0,182.0,99.5,186.0,99.0,190.0,98.5,194.0,98.0,198.0,97.5,202.0,96.5,206.0,96.0,210.0,95.5,214.0,95.0,218.0,94.5,222.0,94.0,226.0,93.5,230.0,93.0,234.0,92.5,238.0,92.0,242.0,91.5,246.0,91.0,250.0,90.5,254.0,90.0,258.0,89.5,262.0,89.0,266.0,88.0,270.0,87.5,274.0,87.0,278.0,86.0,282.0,82.0,286.0,75.0,281.5,76.5,277.0,80.5" stroke="black" stroke-width="1" fill="none" />
<polyline points="286.5,85.5,290.5,85.0,294.5,84.5,298.5,84.0,302.5,83.5,306.5,83.0,310.5,83.0,314.5,82.0,318.5,81.0,322.5,79.0,326.5,80.5,324.5,78.5,327.0,82.5,327.5,86.5" stroke="black" stroke-width="1" fill="none" />
<polyline points="335.5,93.0,331.5,95.5,327.5,95.5,323.5,94.5,319.5,92.5,315.5,91.5,311.5,90.5,307.5,89.5,306.5,88.5,310.5,88.0,314.5,87.5,318.5,87.5,322.5,87.5,326.5,88.5" stroke="black" stroke-width="1" fill="none" />
<polyline points="325.0,100.5,317.5,96.5,308.0,92.5,311.5,90.5,323.5,94.5" stroke="black" stroke-width="1" fill="none" />
<polyline points="334.5,94.0,337.5,90.0,338.5,86.0,338.5,82.0" stroke="black" stroke-width="1" fill="none" />
<polyline points="347.0,87.0,347.5,91.0,346.5,95.0,342.5,99.0" stroke="black" stroke-width="1" fill="none" />
<polyline points="295.5,72.0,291.5,78.5,287.5,82.5,287.0,83.5,290.5,79.5,293.5,75.5,296.0,71.5,297.5,67.5,299.0,64.0,295.0,63.5,291.0,63.5,287.0,64.5,283.0,65.0,279.0,63.5,278.5,63.5,282.5,62.5,286.5,61.5,290.5,57.5,290.0,58.5" stroke="black" stroke-width="1" fill="none" />
<polyline points="285.0,53.0,281.0,50.0,277.0,47.5,273.0,47.0,269.0,47.0,265.0,48.5,261.0,54.5" stroke="black" stroke-width="1" fill="none" />
<polyline points="254.5,61.0,250.5,58.0,246.5,55.5,242.5,55.5,242.5,54.5,246.5,53.0,244.5,49.5,240.5,48.5,236.5,48.5,242.0,49.0,246.5,53.0,250.5,58.5,254.0,62.5,251.5,66.5,258.0,70.5" stroke="black" stroke-width="1" fill="none" />
<polyline points="262.5,75.0,266.5,69.0,268.5,64.5,267.0,68.5,263.5,72.5,262.5,76.5,262.0,80.5,261.5,84.5,265.0,85.0,269.0,84.5,273.0,83.5,277.0,80.5,281.0,77.0,285.0,74.0,285.5,75.5,283.5,79.5,281.0,83.5" stroke="black" stroke-width="1" fill="none" />
<polyline points="274.0,101.0,270.0,102.5,266.0,104.5,262.0,108.0,258.0,114.5" stroke="black" stroke-width="1" fill="none" />
<polyline points="260.0,123.0,264.0,128.0,268.0,129.5,272.0,129.0" stroke="black" stroke-width="1" fill="none" />
<polyline points="261.5,128.5,259.0,124.5,258.0,120.5,258.0,116.5,259.0,112.5,261.5,108.5,266.0,104.5,274.5,100.5,277.0,96.5,273.5,96.0,269.5,96.5,265.5,97.0,261.5,97.5,257.5,98.0,253.5,98.5,249.5,99.0,245.5,99.5,241.5,100.0,237.5,100.5,233.5,101.0,229.5,101.5,225.5,101.5,221.5,102.0,217.5,102.5,213.5,103.0,209.5,103.5,205.5,104.0,201.5,104.5,197.5,106.0,199.0,104.5,197.0,108.5,197.0,112.5,199.0,116.5,201.5,120.5,202.5,124.5,204.5,128.5,208.5,132.5" stroke="black" stroke-width="1" fill="none" />
<polyline points="204.0,109.0,208.0,109.5,212.0,110.0,216.0,110.0,220.0,110.5,224.0,113.5,228.0,119.0,232.0,122.5,236.0,125.5,240.0,128.0,244.0,129.5" stroke="black" stroke-width="1" fill="none" />
<polyline points="267.0,123.5,266.0,119.5,267.0,115.5,273.5,111.5,271.5,110.0,266.0,114.0,264.5,118.0,265.0,122.0,267.0,126.0,273.0,130.0" stroke="black" stroke-width="1" fill="none" />
<polyline points="282.5,112.5,288.0,116.5,291.0,120.5,292.5,124.5,292.5,128.5,291.5,132.5,290.0,136.5,289.0,140.5,290.5,144.5,291.0,148.5,289.5,152.5,287.5,156.5,286.0,160.5,285.5,164.5,287.5,168.5" stroke="black" stroke-width="1" fill="none" />
<polyline points="318.0,122.5,312.0,118.5,307.5,114.5,302.5,110.5,296.5,106.5,287.5,102.5" stroke="black" stroke-width="1" fill="none" />
<polyline points="274.5,102.5,266.0,106.5,262.0,110.5,260.0,114.5,259.0,118.5,259.5,122.5,261.5,126.5" stroke="black" stroke-width="1" fill="none" />
<polyline points="250.5,76.5,254.5,73.5,252.0,74.0,250.5,78.0,251.5,82.0,252.5,86.0" stroke="black" stroke-width="1" fill="none" />
<polyline points="257.5,69.5,253.5,67.0,249.5,65.5,249.0,64.5,253.0,63.5" stroke="black" stroke-width="1" fill="none" />
<polyline points="268.0,64.0,264.0,64.5,261.5,63.0,261.0,59.0,261.0,55.0,262.5,51.0,267.5,47.0" stroke="black" stroke-width="1" fill="none" />
<polyline points="276.5,47.5,282.0,51.5,286.5,54.5,286.0,56.0,290.0,55.0" stroke="black" stroke-width="1" fill="none" />
<polyline points="313.5,39.5,315.5,35.5" stroke="black" stroke-width="1" fill="none" />
<polyline points="305.5,61.5,301.0,57.5,297.0,53.5,294.5,49.5,291.0,45.5,288.0,41.5,284.5,37.5,280.0,33.5,273.5,29.5,263.5,25.5" stroke="black" stroke-width="1" fill="none" />
<polyline points="265.0,16.5,275.5,20.5,282.0,24.5,287.0,28.5,291.0,32.5,295.0,36.5,299.5,40.5" stroke="black" stroke-width="1" fill="none" />
<polyline points="240.0,41.5,238.0,45.5,238.0,44.5,236.0,41.0,227.5,45.0,230.0,44.0,234.0,42.0,238.0,41.0,242.0,42.0" stroke="black" stroke-width="1" fill="none" />
<polyline points="228.5,40.0,226.0,44.0,227.5,42.5,226.5,40.5,222.5,42.0,218.5,45.5,219.0,42.0,215.5,43.0,211.5,44.5,207.5,47.0,203.5,46.5,199.5,45.5,199.5,45.5,202.0,49.5,202.5,53.5,202.5,57.5,201.0,61.5,201.5,65.5,201.5,69.5,201.0,73.5,199.5,77.5,200.5,81.5,199.0,79.5,203.0,84.0,207.0,83.0,211.0,77.0,215.0,71.0,219.0,69.0,219.5,69.5,219.0,73.5,216.0,77.5,214.0,81.5,212.5,85.5,212.0,89.5,214.0,91.5,218.0,91.0,222.0,90.5,226.0,90.0,230.0,89.5,234.0,89.0,238.0,88.5,242.0,88.0,246.0,87.5,250.0,87.0" stroke="black" stroke-width="1" fill="none" />
<polyline points="217.0,76.0,213.0,83.0,210.0,81.0,211.0,77.0,214.0,73.0,218.0,69.0" stroke="black" stroke-width="1" fill="none" />
<polyline points="209.5,45.5,217.5,41.5,226.0,40.5" stroke="black" stroke-width="1" fill="none" />
<polyline points="226.5,26.0,215.5,30.0,209.0,34.0,203.0,38.0,198.5,42.0,194.5,46.0,191.0,50.0,188.0,54.0,185.0,58.0,183.0,62.0,180.5,66.0,179.0,70.0,177.5,74.0,176.5,78.0,175.5,82.0,175.0,86.0,174.5,90.0,174.0,94.0" stroke="black" stroke-width="1" fill="none" />
<polyline points="195.0,106.0,194.5,110.0,194.0,114.0,192.5,118.0,192.5,122.0,191.0,126.0,192.5,130.0,190.0,134.0" stroke="black" stroke-width="1" fill="none" />
<polyline points="16.0,218.0,24.0,218.0,24.0,216.0,16.0,224.0,16.0,226.0,24.0,226.0,24.0,224.0,16.0,232.0,16.0,230.0,24.0,230.0" stroke="black" stroke-width="1" fill="none" />
<polyline points="24.0,238.0,32.0,238.0,32.0,242.0,48.0,242.0,48.0,240.0,40.0,248.0,40.0,250.0,56.0,250.0,56.0,248.0,48.0,256.0,48.0,258.0,56.0,258.0,56.0,256.0,48.0,264.0" stroke="black" stroke-width="1" fill="none" />
<polyline points="40.0,266.0,56.0,266.0" stroke="black" stroke-width="1" fill="none" />
<polyline points="80.0,266.0,88.0,266.0,88.0,264.0,80.0,272.0,80.0,270.0,88.0,270.0" stroke="black" stroke-width="1" fill="none" />
<polyline points="80.0,264.0,88.0,256.0" stroke="black" stroke-width="1" fill="none" />
<polyline points="88.0,248.0,80.0,256.0,80.0,258.0,88.0,258.0" stroke="black" stroke-width="1" fill="none" />
<polyline points="88.0,250.0,80.0,250.0,80.0,248.0,88.0,240.0" stroke="black" stroke-width="1" fill="none" />
<polyline points="88.0,232.0,80.0,240.0,80.0,242.0,88.0,242.0" stroke="black" stroke-width="1" fill="none" />
<polyline points="88.0,234.0,80.0,234.0,80.0,232.0,88.0,224.0" stroke="black" stroke-width="1" fill="none" />
<polyline points="104.0,226.0,64.0,226.0" stroke="black" stroke-width="1" fill="none" />
<polyline points="40.0,240.0,32.0,248.0" stroke="black" stroke-width="1" fill="none" />
<polyline points="24.0,240.0,32.0,232.0" stroke="black" stroke-width="1" fill="none" />
<polyline points="40.0,234.0,16.0,234.0" stroke="black" stroke-width="1" fill="none" />
<polyline points="24.0,210.0,56.0,210.0" stroke="black" stroke-width="1" fill="none" />
<polyline points="24.0,264.0,16.0,272.0" stroke="black" stroke-width="1" fill="none" />
<polyline points="16.0,266.0,24.0,266.0" stroke="black" stroke-width="1" fill="none" />
<polyline points="24.0,274.0,40.0,274.0" stroke="black" stroke-width="1" fill="none" />
<polyline points="128.0,258.0,144.0,258.0,144.0,256.0,136.0,264.0,136.0,266.0,152.0,266.0,152.0,264.0,144.0,272.0" stroke="black" stroke-width="1" fill="none" />
<polyline points="152.0,274.0,176.0,274.0,176.0,272.0,184.0,264.0" stroke="black" stroke-width="1" fill="none" />
<polyline points="184.0,256.0,176.0,264.0,176.0,266.0,184.0,266.0,184.0,270.0,176.0,270.0" stroke="black" stroke-width="1" fill="none" />
<polyline points="176.0,258.0,184.0,258.0" stroke="black" stroke-width="1" fill="none" />
<polyline points="176.0,256.0,184.0,248.0" stroke="black" stroke-width="1" fill="none" />
<polyline points="176.0,250.0,192.0,250.0" stroke="black" stroke-width="1" fill="none" />
<polyline points="200.0,250.0,216.0,250.0,216.0,248.0,208.0,256.0" stroke="black" stroke-width="1" fill="none" />
<polyline points="200.0,258.0,216.0,258.0" stroke="black" stroke-width="1" fill="none" />
<polyline points="216.0,264.0,208.0,272.0" stroke="black" stroke-width="1" fill="none" />
<polyline points="200.0,266.0,216.0,266.0" stroke="black" stroke-width="1" fill="none" />
<polyline points="232.0,266.0,240.0,266.0" stroke="black" stroke-width="1" fill="none" />
<polyline points="248.0,266.0,264.0,266.0" stroke="black" stroke-width="1" fill="none" />
<polyline points="264.0,274.0,272.0,274.0" stroke="black" stroke-width="1" fill="none" />
<polyline points="280.0,266.0,288.0,266.0,288.0,264.0,296.0,256.0" stroke="black" stroke-width="1" fill="none" />
<polyline points="296.0,248.0,288.0,256.0,288.0,258.0,296.0,258.0" stroke="black" stroke-width="1" fill="none" />
<polyline points="296.0,250.0,288.0,250.0,288.0,248.0,296.0,240.0,296.0,242.0,288.0,242.0" stroke="black" stroke-width="1" fill="none" />
<polyline points="288.0,234.0,296.0,234.0" stroke="black" stroke-width="1" fill="none" />
<polyline points="304.0,234.0,320.0,234.0" stroke="black" stroke-width="1" fill="none" />
<polyline points="328.0,234.0,344.0,234.0" stroke="black" stroke-width="1" fill="none" />
<polyline points="352.0,234.0,360.0,234.0" stroke="black" stroke-width="1" fill="none" />
<polyline points="360.0,240.0,352.0,248.0,352.0,250.0,360.0,250.0,360.0,248.0,352.0,256.0,352.0,258.0,360.0,258.0,360.0,256.0,352.0,264.0" stroke="black" stroke-width="1" fill="none" />
<polyline points="344.0,264.0,336.0,272.0" stroke="black" stroke-width="1" fill="none" />
<polyline points="328.0,266.0,344.0,266.0" stroke="black" stroke-width="1" fill="none" />
<polyline points="336.0,256.0,328.0,264.0" stroke="black" stroke-width="1" fill="none" />
<polyline points="328.0,258.0,336.0,258.0" stroke="black" stroke-width="1" fill="none" />
<polyline points="328.0,248.0,320.0,256.0" stroke="black" stroke-width="1" fill="none" />
<polyline points="320.0,248.0,312.0,256.0,312.0,258.0,320.0,258.0" stroke="black" stroke-width="1" fill="none" />
<polyline points="320.0,264.0,312.0,272.0" stroke="black" stroke-width="1" fill="none" />
<polyline points="304.0,266.0,320.0,266.0" stroke="black" stroke-width="1" fill="none" />
<polyline points="312.0,250.0,336.0,250.0" stroke="black" stroke-width="1" fill="none" />
<polyline points="336.0,242.0,328.0,242.0" stroke="black" stroke-width="1" fill="none" />
<polyline points="320.0,242.0,312.0,242.0" stroke="black" stroke-width="1" fill="none" />
<polyline points="304.0,226.0,336.0,226.0" stroke="black" stroke-width="1" fill="none" />
<polyline points="352.0,242.0,360.0,242.0" stroke="black" stroke-width="1" fill="none" />
<polyline points="360.0,226.0,392.0,226.0" stroke="black" stroke-width="1" fill="none" />
<polyline points="408.0,226.0,440.0,226.0" stroke="black" stroke-width="1" fill="none" />
<polyline points="448.0,226.0,456.0,226.0" stroke="black" stroke-width="1" fill="none" />
<polyline points="464.0,226.0,488.0,226.0" stroke="black" stroke-width="1" fill="none" />
<polyline points="472.0,240.0,464.0,248.0" stroke="black" stroke-width="1" fill="none" />
<polyline points="464.0,242.0,472.0,242.0" stroke="black" stroke-width="1" fill="none" />
<polyline points="472.0,250.0,488.0,250.0" stroke="black" stroke-width="1" fill="none" />
<polyline points="488.0,256.0,480.0,264.0,480.0,266.0,488.0,266.0" stroke="black" stroke-width="1" fill="none" />
<polyline points="488.0,258.0,480.0,258.0" stroke="black" stroke-width="1" fill="none" />
<polyline points="472.0,256.0,480.0,248.0" stroke="black" stroke-width="1" fill="none" />
<polyline points="480.0,274.0,464.0,274.0" stroke="black" stroke-width="1" fill="none" />
<polyline points="464.0,266.0,456.0,266.0" stroke="black" stroke-width="1" fill="none" />
<polyline points="440.0,266.0,432.0,266.0" stroke="black" stroke-width="1" fill="none" />
<polyline points="432.0,250.0,440.0,250.0" stroke="black" stroke-width="1" fill="none" />
<polyline points="440.0,242.0,432.0,242.0" stroke="black" stroke-width="1" fill="none" />
<polyline points="448.0,234.0,472.0,234.0" stroke="black" stroke-width="1" fill="none" />
<polyline points="424.0,266.0,408.0,266.0" stroke="black" stroke-width="1" fill="none" />
<polyline points="408.0,258.0,424.0,258.0" stroke="black" stroke-width="1" fill="none" />
<polyline points="424.0,250.0,408.0,250.0" stroke="black" stroke-width="1" fill="none" />
<polyline points="408.0,242.0,424.0,242.0" stroke="black" stroke-width="1" fill="none" />
<polyline points="424.0,234.0,408.0,234.0" stroke="black" stroke-width="1" fill="none" />
<polyline points="392.0,256.0,384.0,264.0,384.0,266.0,392.0,266.0,392.0,264.0,384.0,272.0" stroke="black" stroke-width="1" fill="none" />
<polyline points="384.0,258.0,400.0,258.0" stroke="black" stroke-width="1" fill="none" />
<polyline points="368.0,264.0,360.0,272.0" stroke="black" stroke-width="1" fill="none" />
<polyline points="360.0,266.0,368.0,266.0" stroke="black" stroke-width="1" fill="none" />
<polyline points="368.0,274.0,384.0,274.0" stroke="black" stroke-width="1" fill="none" />
<polyline points="256.0,256.0,248.0,264.0" stroke="black" stroke-width="1" fill="none" />
<polyline points="248.0,258.0,256.0,258.0" stroke="black" stroke-width="1" fill="none" />
<polyline points="256.0,250.0,240.0,250.0" stroke="black" stroke-width="1" fill="none" />
<polyline points="240.0,242.0,256.0,242.0" stroke="black" stroke-width="1" fill="none" />
<polyline points="248.0,240.0,256.0,232.0" stroke="black" stroke-width="1" fill="none" />
<polyline points="256.0,226.0,288.0,226.0" stroke="black" stroke-width="1" fill="none" />
<polyline points="280.0,192.0,312.0,160.0" stroke="black" stroke-width="1" fill="none" />
<polyline points="312.0,152.0,304.0,160.0,304.0,158.0,312.0,158.0,312.0,154.0,304.0,154.0,304.0,152.0,312.0,144.0" stroke="black" stroke-width="1" fill="none" />
<polyline points="304.0,144.0,320.0,128.0" stroke="black" stroke-width="1" fill="none" />
<polyline points="320.0,120.0,304.0,136.0,304.0,134.0,312.0,134.0" stroke="black" stroke-width="1" fill="none" />
<polyline points="304.0,130.0,328.0,130.0" stroke="black" stroke-width="1" fill="none" />
<polyline points="312.0,120.0,304.0,128.0,304.0,126.0,320.0,126.0" stroke="black" stroke-width="1" fill="none" />
<polyline points="312.0,112.0,304.0,120.0,304.0,122.0,336.0,122.0" stroke="black" stroke-width="1" fill="none" />
<polyline points="336.0,98.0,328.0,98.0" stroke="black" stroke-width="1" fill="none" />
<polyline points="336.0,96.0,344.0,88.0,344.0,90.0,336.0,90.0" stroke="black" stroke-width="1" fill="none" />
<polyline points="320.0,90.0,312.0,90.0" stroke="black" stroke-width="1" fill="none" />
<polyline points="296.0,104.0,248.0,152.0" stroke="black" stroke-width="1" fill="none" />
<polyline points="248.0,146.0,264.0,146.0" stroke="black" stroke-width="1" fill="none" />
<polyline points="264.0,152.0,256.0,160.0" stroke="black" stroke-width="1" fill="none" />
<polyline points="248.0,160.0,288.0,120.0" stroke="black" stroke-width="1" fill="none" />
<polyline points="288.0,128.0,272.0,144.0" stroke="black" stroke-width="1" fill="none" />
<polyline points="280.0,144.0,288.0,136.0" stroke="black" stroke-width="1" fill="none" />
<polyline points="288.0,144.0,272.0,160.0,272.0,162.0,288.0,162.0,288.0,160.0,280.0,168.0" stroke="black" stroke-width="1" fill="none" />
<polyline points="272.0,168.0,288.0,152.0" stroke="black" stroke-width="1" fill="none" />
<polyline points="288.0,146.0,280.0,146.0" stroke="black" stroke-width="1" fill="none" />
<polyline points="272.0,154.0,288.0,154.0" stroke="black" stroke-width="1" fill="none" />
<polyline points="296.0,162.0,312.0,162.0" stroke="black" stroke-width="1" fill="none" />
<polyline points="312.0,150.0,304.0,150.0,304.0,146.0,320.0,146.0" stroke="black" stroke-width="1" fill="none" />
<polyline points="320.0,138.0,304.0,138.0" stroke="black" stroke-width="1" fill="none" />
<polyline points="296.0,120.0,304.0,112.0" stroke="black" stroke-width="1" fill="none" />
<polyline points="296.0,114.0,312.0,114.0" stroke="black" stroke-width="1" fill="none" />
<polyline points="280.0,112.0,272.0,120.0,272.0,118.0,280.0,118.0" stroke="black" stroke-width="1" fill="none" />
<polyline points="280.0,126.0,288.0,126.0" stroke="black" stroke-width="1" fill="none" />
<polyline points="288.0,134.0,272.0,134.0" stroke="black" stroke-width="1" fill="none" />
<polyline points="264.0,128.0,248.0,144.0,248.0,142.0,272.0,142.0" stroke="black" stroke-width="1" fill="none" />
<polyline points="264.0,150.0,256.0,150.0" stroke="black" stroke-width="1" fill="none" />
<polyline points="248.0,138.0,288.0,138.0" stroke="black" stroke-width="1" fill="none" />
<polyline points="288.0,170.0,304.0,170.0,304.0,174.0,296.0,174.0" stroke="black" stroke-width="1" fill="none" />
<polyline points="296.0,182.0,288.0,182.0" stroke="black" stroke-width="1" fill="none" />
<polyline points="280.0,184.0,272.0,192.0,272.0,190.0,280.0,190.0" stroke="black" stroke-width="1" fill="none" />
<polyline points="272.0,184.0,264.0,192.0" stroke="black" stroke-width="1" fill="none" />
<polyline points="280.0,178.0,296.0,178.0" stroke="black" stroke-width="1" fill="none" />
<polyline points="280.0,170.0,272.0,170.0,272.0,166.0,280.0,166.0" stroke="black" stroke-width="1" fill="none" />
<polyline points="264.0,134.0,248.0,134.0,248.0,136.0,280.0,104.0" stroke="black" stroke-width="1" fill="none" />
<polyline points="272.0,104.0,248.0,128.0,248.0,126.0,256.0,126.0" stroke="black" stroke-width="1" fill="none" />
<polyline points="248.0,130.0,288.0,130.0" stroke="black" stroke-width="1" fill="none" />
<polyline points="272.0,96.0,240.0,128.0" stroke="black" stroke-width="1" fill="none" />
<polyline points="240.0,120.0,264.0,96.0" stroke="black" stroke-width="1" fill="none" />
<polyline points="256.0,96.0,232.0,120.0,232.0,118.0,256.0,118.0" stroke="black" stroke-width="1" fill="none" />
<polyline points="240.0,104.0,232.0,112.0" stroke="black" stroke-width="1" fill="none" />
<polyline points="232.0,104.0,224.0,112.0,224.0,110.0,256.0,110.0" stroke="black" stroke-width="1" fill="none" />
<polyline points="232.0,122.0,296.0,122.0" stroke="black" stroke-width="1" fill="none" />
<polyline points="280.0,88.0,288.0,80.0" stroke="black" stroke-width="1" fill="none" />
<polyline points="288.0,72.0,296.0,64.0" stroke="black" stroke-width="1" fill="none" />
<polyline points="288.0,64.0,272.0,80.0" stroke="black" stroke-width="1" fill="none" />
<polyline points="264.0,80.0,288.0,56.0" stroke="black" stroke-width="1" fill="none" />
<polyline points="280.0,56.0,272.0,64.0,272.0,62.0,280.0,62.0" stroke="black" stroke-width="1" fill="none" />
<polyline points="280.0,70.0,272.0,70.0" stroke="black" stroke-width="1" fill="none" />
<polyline points="272.0,78.0,264.0,78.0,264.0,74.0,296.0,74.0,296.0,70.0,288.0,70.0" stroke="black" stroke-width="1" fill="none" />
<polyline points="296.0,56.0,304.0,48.0" stroke="black" stroke-width="1" fill="none" />
<polyline points="304.0,54.0,312.0,54.0" stroke="black" stroke-width="1" fill="none" />
<polyline points="304.0,56.0,320.0,40.0" stroke="black" stroke-width="1" fill="none" />
<polyline points="304.0,40.0,296.0,48.0,296.0,50.0,312.0,50.0" stroke="black" stroke-width="1" fill="none" />
<polyline points="304.0,58.0,320.0,58.0" stroke="black" stroke-width="1" fill="none" />
<polyline points="296.0,32.0,288.0,40.0,288.0,42.0,320.0,42.0" stroke="black" stroke-width="1" fill="none" />
<polyline points="288.0,24.0,280.0,32.0,280.0,34.0,296.0,34.0" stroke="black" stroke-width="1" fill="none" />
<polyline points="280.0,24.0,272.0,32.0" stroke="black" stroke-width="1" fill="none" />
<polyline points="272.0,26.0,288.0,26.0" stroke="black" stroke-width="1" fill="none" />
<polyline points="272.0,16.0,264.0,24.0" stroke="black" stroke-width="1" fill="none" />
<polyline points="264.0,16.0,256.0,24.0" stroke="black" stroke-width="1" fill="none" />
<polyline points="256.0,16.0,248.0,24.0" stroke="black" stroke-width="1" fill="none" />
<polyline points="248.0,16.0,240.0,24.0" stroke="black" stroke-width="1" fill="none" />
<polyline points="240.0,16.0,232.0,24.0" stroke="black" stroke-width="1" fill="none" />
<polyline points="232.0,16.0,224.0,24.0" stroke="black" stroke-width="1" fill="none" />
<polyline points="224.0,16.0,208.0,32.0" stroke="black" stroke-width="1" fill="none" />
<polyline points="208.0,24.0,152.0,80.0,152.0,78.0,176.0,78.0,176.0,80.0,160.0,96.0" stroke="black" stroke-width="1" fill="none" />
<polyline points="152.0,96.0,176.0,72.0,176.0,70.0,160.0,70.0" stroke="black" stroke-width="1" fill="none" />
<polyline points="160.0,64.0,200.0,24.0" stroke="black" stroke-width="1" fill="none" />
<polyline points="200.0,30.0,216.0,30.0" stroke="black" stroke-width="1" fill="none" />
<polyline points="216.0,22.0,240.0,22.0" stroke="black" stroke-width="1" fill="none" />
<polyline points="240.0,48.0,216.0,72.0" stroke="black" stroke-width="1" fill="none" />
<polyline points="216.0,80.0,240.0,56.0" stroke="black" stroke-width="1" fill="none" />
<polyline points="248.0,56.0,216.0,88.0,216.0,86.0,224.0,86.0,224.0,88.0,248.0,64.0" stroke="black" stroke-width="1" fill="none" />
<polyline points="256.0,64.0,232.0,88.0" stroke="black" stroke-width="1" fill="none" />
<polyline points="240.0,88.0,248.0,80.0" stroke="black" stroke-width="1" fill="none" />
<polyline points="264.0,82.0,328.0,82.0" stroke="black" stroke-width="1" fill="none" />
<polyline points="280.0,48.0,264.0,64.0,264.0,66.0,296.0,66.0" stroke="black" stroke-width="1" fill="none" />
<polyline points="272.0,48.0,264.0,56.0,264.0,54.0,280.0,54.0" stroke="black" stroke-width="1" fill="none" />
<polyline points="288.0,58.0,264.0,58.0" stroke="black" stroke-width="1" fill="none" />
<polyline points="264.0,50.0,288.0,50.0" stroke="black" stroke-width="1" fill="none" />
<polyline points="232.0,48.0,200.0,80.0" stroke="black" stroke-width="1" fill="none" />
<polyline points="200.0,74.0,256.0,74.0" stroke="black" stroke-width="1" fill="none" />
<polyline points="248.0,78.0,224.0,78.0" stroke="black" stroke-width="1" fill="none" />
<polyline points="224.0,70.0,248.0,70.0" stroke="black" stroke-width="1" fill="none" />
<polyline points="224.0,48.0,200.0,72.0" stroke="black" stroke-width="1" fill="none" />
<polyline points="200.0,66.0,256.0,66.0" stroke="black" stroke-width="1" fill="none" />
<polyline points="280.0,90.0,216.0,90.0" stroke="black" stroke-width="1" fill="none" />
<polyline points="216.0,82.0,248.0,82.0" stroke="black" stroke-width="1" fill="none" />
<polyline points="224.0,114.0,288.0,114.0" stroke="black" stroke-width="1" fill="none" />
<polyline points="264.0,154.0,240.0,154.0" stroke="black" stroke-width="1" fill="none" />
<polyline points="232.0,160.0,224.0,168.0" stroke="black" stroke-width="1" fill="none" />
<polyline points="232.0,170.0,240.0,170.0" stroke="black" stroke-width="1" fill="none" />
<polyline points="240.0,178.0,232.0,178.0" stroke="black" stroke-width="1" fill="none" />
<polyline points="232.0,184.0,224.0,192.0" stroke="black" stroke-width="1" fill="none" />
<polyline points="224.0,184.0,216.0,192.0,216.0,194.0,272.0,194.0" stroke="black" stroke-width="1" fill="none" />
<polyline points="240.0,184.0,232.0,192.0" stroke="black" stroke-width="1" fill="none" />
<polyline points="216.0,184.0,208.0,192.0,208.0,190.0,232.0,190.0" stroke="black" stroke-width="1" fill="none" />
<polyline points="216.0,176.0,200.0,192.0" stroke="black" stroke-width="1" fill="none" />
<polyline points="200.0,184.0,208.0,176.0" stroke="black" stroke-width="1" fill="none" />
<polyline points="208.0,168.0,192.0,184.0,192.0,182.0,216.0,182.0" stroke="black" stroke-width="1" fill="none" />
<polyline points="216.0,162.0,248.0,162.0" stroke="black" stroke-width="1" fill="none" />
<polyline points="200.0,160.0,184.0,176.0,184.0,174.0,200.0,174.0" stroke="black" stroke-width="1" fill="none" />
<polyline points="200.0,168.0,184.0,184.0" stroke="black" stroke-width="1" fill="none" />
<polyline points="184.0,178.0,224.0,178.0" stroke="black" stroke-width="1" fill="none" />
<polyline points="192.0,186.0,288.0,186.0" stroke="black" stroke-width="1" fill="none" />
<polyline points="256.0,234.0,248.0,234.0" stroke="black" stroke-width="1" fill="none" />
<polyline points="232.0,250.0,224.0,250.0" stroke="black" stroke-width="1" fill="none" />
<polyline points="224.0,242.0,232.0,242.0" stroke="black" stroke-width="1" fill="none" />
<polyline points="216.0,242.0,200.0,242.0" stroke="black" stroke-width="1" fill="none" />
<polyline points="200.0,234.0,216.0,234.0" stroke="black" stroke-width="1" fill="none" />
<polyline points="200.0,226.0,232.0,226.0" stroke="black" stroke-width="1" fill="none" />
<polyline points="184.0,208.0,176.0,216.0" stroke="black" stroke-width="1" fill="none" />
<polyline points="144.0,216.0,128.0,232.0,128.0,234.0,136.0,234.0,136.0,232.0,128.0,240.0,128.0,238.0,136.0,238.0,136.0,240.0,128.0,248.0,128.0,246.0,136.0,246.0,136.0,248.0,128.0,256.0,128.0,254.0,136.0,254.0" stroke="black" stroke-width="1" fill="none" />
<polyline points="128.0,250.0,144.0,250.0" stroke="black" stroke-width="1" fill="none" />
<polyline points="136.0,242.0,128.0,242.0" stroke="black" stroke-width="1" fill="none" />
<polyline points="128.0,226.0,136.0,226.0" stroke="black" stroke-width="1" fill="none" />
<polyline points="136.0,218.0,144.0,218.0" stroke="black" stroke-width="1" fill="none" />
<polyline points="144.0,210.0,184.0,210.0" stroke="black" stroke-width="1" fill="none" />
<polyline points="176.0,176.0,192.0,160.0" stroke="black" stroke-width="1" fill="none" />
<polyline points="192.0,152.0,176.0,168.0,176.0,166.0,192.0,166.0" stroke="black" stroke-width="1" fill="none" />
<polyline points="184.0,152.0,168.0,168.0" stroke="black" stroke-width="1" fill="none" />
<polyline points="168.0,162.0,200.0,162.0" stroke="black" stroke-width="1" fill="none" />
<polyline points="184.0,144.0,168.0,160.0,168.0,158.0,192.0,158.0" stroke="black" stroke-width="1" fill="none" />
<polyline points="176.0,170.0,224.0,170.0" stroke="black" stroke-width="1" fill="none" />
<polyline points="184.0,136.0,160.0,160.0" stroke="black" stroke-width="1" fill="none" />
<polyline points="160.0,154.0,192.0,154.0" stroke="black" stroke-width="1" fill="none" />
<polyline points="176.0,136.0,160.0,152.0,160.0,150.0,184.0,150.0" stroke="black" stroke-width="1" fill="none" />
<polyline points="184.0,128.0,192.0,120.0" stroke="black" stroke-width="1" fill="none" />
<polyline points="200.0,120.0,208.0,112.0,208.0,114.0,200.0,114.0" stroke="black" stroke-width="1" fill="none" />
<polyline points="200.0,122.0,216.0,122.0" stroke="black" stroke-width="1" fill="none" />
<polyline points="192.0,106.0,304.0,106.0" stroke="black" stroke-width="1" fill="none" />
<polyline points="216.0,70.0,208.0,70.0" stroke="black" stroke-width="1" fill="none" />
<polyline points="208.0,62.0,248.0,62.0" stroke="black" stroke-width="1" fill="none" />
<polyline points="216.0,48.0,208.0,56.0,208.0,54.0,240.0,54.0" stroke="black" stroke-width="1" fill="none" />
<polyline points="240.0,42.0,208.0,42.0" stroke="black" stroke-width="1" fill="none" />
<polyline points="200.0,50.0,248.0,50.0" stroke="black" stroke-width="1" fill="none" />
<polyline points="280.0,18.0,208.0,18.0" stroke="black" stroke-width="1" fill="none" />
<polyline points="192.0,26.0,224.0,26.0" stroke="black" stroke-width="1" fill="none" />
<polyline points="200.0,58.0,256.0,58.0" stroke="black" stroke-width="1" fill="none" />
<polyline points="184.0,56.0,152.0,88.0,152.0,86.0,168.0,86.0" stroke="black" stroke-width="1" fill="none" />
<polyline points="168.0,94.0,152.0,94.0" stroke="black" stroke-width="1" fill="none" />
<polyline points="144.0,90.0,176.0,90.0" stroke="black" stroke-width="1" fill="none" />
<polyline points="192.0,98.0,280.0,98.0" stroke="black" stroke-width="1" fill="none" />
<polyline points="192.0,122.0,184.0,122.0" stroke="black" stroke-width="1" fill="none" />
<polyline points="184.0,114.0,192.0,114.0" stroke="black" stroke-width="1" fill="none" />
<polyline points="176.0,112.0,152.0,136.0,152.0,134.0,176.0,134.0" stroke="black" stroke-width="1" fill="none" />
<polyline points="176.0,128.0,160.0,144.0,160.0,142.0,176.0,142.0" stroke="black" stroke-width="1" fill="none" />
<polyline points="176.0,120.0,152.0,144.0,152.0,146.0,192.0,146.0" stroke="black" stroke-width="1" fill="none" />
<polyline points="184.0,138.0,152.0,138.0" stroke="black" stroke-width="1" fill="none" />
<polyline points="152.0,130.0,192.0,130.0" stroke="black" stroke-width="1" fill="none" />
<polyline points="168.0,112.0,152.0,128.0,152.0,126.0,176.0,126.0" stroke="black" stroke-width="1" fill="none" />
<polyline points="160.0,112.0,152.0,120.0,152.0,118.0,168.0,118.0" stroke="black" stroke-width="1" fill="none" />
<polyline points="152.0,112.0,144.0,120.0,144.0,122.0,176.0,122.0" stroke="black" stroke-width="1" fill="none" />
<polyline points="176.0,114.0,144.0,114.0" stroke="black" stroke-width="1" fill="none" />
<polyline points="144.0,106.0,176.0,106.0" stroke="black" stroke-width="1" fill="none" />
<polyline points="176.0,74.0,152.0,74.0" stroke="black" stroke-width="1" fill="none" />
<polyline points="152.0,66.0,184.0,66.0" stroke="black" stroke-width="1" fill="none" />
<polyline points="184.0,54.0,168.0,54.0" stroke="black" stroke-width="1" fill="none" />
<polyline points="160.0,50.0,192.0,50.0" stroke="black" stroke-width="1" fill="none" />
<polyline points="184.0,38.0,200.0,38.0" stroke="black" stroke-width="1" fill="none" />
<polyline points="192.0,46.0,176.0,46.0" stroke="black" stroke-width="1" fill="none" />
<polyline points="168.0,42.0,200.0,42.0" stroke="black" stroke-width="1" fill="none" />
<polyline points="208.0,34.0,176.0,34.0" stroke="black" stroke-width="1" fill="none" />
<polyline points="176.0,62.0,160.0,62.0,160.0,58.0,184.0,58.0" stroke="black" stroke-width="1" fill="none" />
<polyline points="168.0,98.0,144.0,98.0" stroke="black" stroke-width="1" fill="none" />
<polyline points="144.0,82.0,176.0,82.0" stroke="black" stroke-width="1" fill="none" />
</svg>