<svg xmlns="http://www.w3.org/2000/svg" height="504px" width="496px" version="1.1"><polyline points="249.0,17.0,248.0,25.0,248.0,33.0,248.0,41.0,248.0,49.0,253.0,48.0" stroke="black" stroke-width="1" fill="none" />
<polyline points="272.0,49.0,264.0,39.0,256.0,28.0,256.0,28.0,261.0,36.0,267.0,44.0" stroke="black" stroke-width="1" fill="none" />
<polyline points="272.0,35.0,273.0,27.0,273.0,19.0,273.0,19.0" stroke="black" stroke-width="1" fill="none" />
<polyline points="279.0,19.0,279.0,27.0,279.0,35.0,278.0,43.0" stroke="black" stroke-width="1" fill="none" />
<polyline points="296.0,32.0,304.0,28.0,312.0,33.0" stroke="black" stroke-width="1" fill="none" />
<polyline points="307.0,29.0,313.0,37.0,311.0,45.0" stroke="black" stroke-width="1" fill="none" />
<polyline points="316.0,28.0,308.0,23.0,300.0,21.0,292.0,21.0,293.0,20.0,291.0,28.0,289.0,36.0,287.0,44.0,286.0,52.0,293.0,53.0,301.0,55.0,309.0,54.0,317.0,48.0" stroke="black" stroke-width="1" fill="none" />
<polyline points="310.0,46.0,302.0,50.0,294.0,47.0,294.0,43.0,296.0,35.0,298.0,27.0" stroke="black" stroke-width="1" fill="none" />
<polyline points="309.0,24.0,318.0,32.0,320.0,40.0,317.0,48.0" stroke="black" stroke-width="1" fill="none" />
<polyline points="348.0,58.0,344.0,66.0,344.0,65.0,352.0,58.0,360.0,62.0" stroke="black" stroke-width="1" fill="none" />
<polyline points="358.0,56.0,353.0,48.0,356.0,40.0,350.0,39.0,342.0,54.0,338.0,66.0,340.0,58.0,344.0,50.0,348.0,42.0,352.0,49.0,353.0,53.0,361.0,57.0,369.0,52.0,377.0,50.0,368.0,55.0" stroke="black" stroke-width="1" fill="none" />
<polyline points="374.0,49.0,374.0,57.0,370.0,65.0,366.0,73.0,360.0,70.0" stroke="black" stroke-width="1" fill="none" />
<polyline points="370.0,65.0,362.0,79.0,358.0,75.0,362.0,67.0,352.0,59.0" stroke="black" stroke-width="1" fill="none" />
<polyline points="375.0,75.0,383.0,65.0,391.0,63.0,399.0,65.0,407.0,71.0" stroke="black" stroke-width="1" fill="none" />
<polyline points="397.0,70.0,389.0,70.0,381.0,78.0" stroke="black" stroke-width="1" fill="none" />
<polyline points="382.0,84.0,390.0,91.0,398.0,90.0" stroke="black" stroke-width="1" fill="none" />
<polyline points="408.0,89.0,400.0,97.0,392.0,98.0,384.0,95.0,376.0,85.0" stroke="black" stroke-width="1" fill="none" />
<polyline points="382.0,85.0,382.0,77.0,390.0,69.0,395.0,70.0,403.0,78.0,402.0,86.0" stroke="black" stroke-width="1" fill="none" />
<polyline points="424.0,88.0,415.0,96.0,406.0,104.0,404.0,112.0,408.0,102.0,416.0,95.0,424.0,88.0,427.0,89.0,428.0,97.0,427.0,105.0,426.0,113.0,426.0,118.0,434.0,112.0,442.0,106.0,441.0,106.0,432.0,114.0" stroke="black" stroke-width="1" fill="none" />
<polyline points="431.0,123.0,440.0,115.0,443.0,107.0" stroke="black" stroke-width="1" fill="none" />
<polyline points="444.0,126.0,433.0,134.0,431.0,142.0,433.0,150.0,439.0,158.0" stroke="black" stroke-width="1" fill="none" />
<polyline points="439.0,148.0,447.0,155.0,455.0,153.0" stroke="black" stroke-width="1" fill="none" />
<polyline points="454.0,133.0,446.0,133.0,438.0,139.0" stroke="black" stroke-width="1" fill="none" />
<polyline points="432.0,137.0,440.0,128.0,448.0,126.0,456.0,128.0,464.0,136.0" stroke="black" stroke-width="1" fill="none" />
<polyline points="452.0,133.0,460.0,141.0,459.0,149.0" stroke="black" stroke-width="1" fill="none" />
<polyline points="465.0,149.0,457.0,159.0,449.0,161.0,441.0,159.0,433.0,148.0,438.0,148.0,438.0,140.0,447.0,132.0" stroke="black" stroke-width="1" fill="none" />
<polyline points="453.0,127.0,463.0,135.0,466.0,143.0,465.0,151.0,457.0,159.0" stroke="black" stroke-width="1" fill="none" />
<polyline points="456.0,178.0,464.0,173.0,472.0,170.0,477.0,163.0,469.0,171.0,456.0,179.0,457.0,187.0,461.0,190.0,469.0,189.0,477.0,186.0,485.0,184.0,482.0,191.0" stroke="black" stroke-width="1" fill="none" />
<polyline points="474.0,187.0,483.0,191.0,475.0,194.0,467.0,197.0,459.0,196.0,451.0,186.0" stroke="black" stroke-width="1" fill="none" />
<polyline points="450.0,177.0,458.0,168.0,466.0,166.0,474.0,162.0,467.0,165.0,452.0,173.0,450.0,181.0,452.0,189.0,460.0,197.0" stroke="black" stroke-width="1" fill="none" />
<polyline points="459.0,207.0,467.0,205.0,475.0,203.0,483.0,202.0,491.0,203.0,492.0,209.0,493.0,217.0,491.0,220.0,483.0,224.0,475.0,222.0,467.0,230.0,463.0,228.0,469.0,220.0,473.0,212.0" stroke="black" stroke-width="1" fill="none" />
<polyline points="482.0,209.0,469.0,220.0,467.0,230.0,475.0,222.0,479.0,211.0,468.0,211.0,460.0,212.0" stroke="black" stroke-width="1" fill="none" />
<polyline points="483.0,208.0,486.0,216.0,486.0,216.0" stroke="black" stroke-width="1" fill="none" />
<polyline points="478.0,255.0,475.0,263.0,480.0,266.0" stroke="black" stroke-width="1" fill="none" />
<polyline points="486.0,260.0,483.0,255.0,475.0,258.0" stroke="black" stroke-width="1" fill="none" />
<polyline points="468.0,289.0,468.0,297.0,468.0,303.0,480.0,303.0,488.0,306.0,489.0,303.0,491.0,295.0,491.0,293.0,495.0,294.0,495.0,302.0,493.0,310.0" stroke="black" stroke-width="1" fill="none" />
<polyline points="475.0,301.0,477.0,293.0,477.0,292.0,481.0,292.0,481.0,300.0" stroke="black" stroke-width="1" fill="none" />
<polyline points="464.0,289.0,464.0,290.0,462.0,298.0,461.0,306.0,458.0,318.0,461.0,326.0,452.0,336.0,446.0,349.0,442.0,357.0,444.0,365.0" stroke="black" stroke-width="1" fill="none" />
<polyline points="449.0,360.0,457.0,357.0,465.0,353.0,473.0,356.0,475.0,359.0,474.0,367.0,467.0,375.0,468.0,367.0,456.0,366.0" stroke="black" stroke-width="1" fill="none" />
<polyline points="448.0,355.0,464.0,353.0" stroke="black" stroke-width="1" fill="none" />
<polyline points="473.0,369.0,465.0,375.0,465.0,370.0,469.0,362.0,464.0,360.0,456.0,366.0,448.0,367.0,448.0,359.0,451.0,351.0,463.0,338.0,458.0,333.0,450.0,340.0" stroke="black" stroke-width="1" fill="none" />
<polyline points="442.0,357.0,450.0,346.0,453.0,342.0,461.0,339.0,469.0,337.0,477.0,339.0,485.0,339.0" stroke="black" stroke-width="1" fill="none" />
<polyline points="486.0,313.0,478.0,312.0,470.0,311.0,462.0,309.0" stroke="black" stroke-width="1" fill="none" />
<polyline points="461.0,315.0,466.0,323.0,473.0,331.0,485.0,339.0" stroke="black" stroke-width="1" fill="none" />
<polyline points="482.0,334.0,474.0,331.0,466.0,322.0,458.0,317.0" stroke="black" stroke-width="1" fill="none" />
<polyline points="415.0,301.0,421.0,293.0,424.0,285.0,418.0,298.0,410.0,304.0,402.0,307.0,394.0,307.0,386.0,308.0,387.0,307.0,386.0,315.0,386.0,323.0,385.0,331.0,384.0,339.0,381.0,347.0,379.0,355.0,375.0,363.0,371.0,371.0,367.0,379.0,361.0,387.0,354.0,395.0,346.0,403.0,335.0,411.0,321.0,419.0,301.0,427.0" stroke="black" stroke-width="1" fill="none" />
<polyline points="320.0,460.0,308.0,468.0,305.0,476.0,307.0,484.0,313.0,492.0" stroke="black" stroke-width="1" fill="none" />
<polyline points="307.0,484.0,315.0,492.0,323.0,494.0,331.0,492.0,334.0,483.0,338.0,487.0,335.0,482.0,327.0,487.0,319.0,487.0,316.0,486.0,312.0,478.0,314.0,470.0,328.0,465.0,320.0,466.0,312.0,474.0" stroke="black" stroke-width="1" fill="none" />
<polyline points="305.0,475.0,313.0,463.0,321.0,460.0,329.0,460.0,341.0,454.0,349.0,467.0,357.0,474.0,365.0,469.0" stroke="black" stroke-width="1" fill="none" />
<polyline points="386.0,462.0,378.0,451.0,370.0,440.0,369.0,439.0,377.0,432.0,385.0,429.0,393.0,434.0" stroke="black" stroke-width="1" fill="none" />
<polyline points="394.0,442.0,402.0,445.0,402.0,446.0,394.0,438.0,388.0,430.0,393.0,419.0,402.0,411.0,410.0,403.0,407.0,406.0,399.0,414.0,391.0,421.0,392.0,424.0,400.0,420.0,408.0,424.0,416.0,432.0,424.0,435.0" stroke="black" stroke-width="1" fill="none" />
<polyline points="435.0,414.0,425.0,406.0,416.0,398.0,421.0,390.0,427.0,382.0,424.0,386.0,416.0,396.0,417.0,399.0,425.0,405.0,433.0,411.0,441.0,417.0,449.0,407.0,445.0,403.0,437.0,406.0,446.0,402.0,452.0,400.0,448.0,408.0,442.0,416.0" stroke="black" stroke-width="1" fill="none" />
<polyline points="425.0,432.0,417.0,424.0,409.0,415.0,408.0,412.0,414.0,406.0,408.0,414.0,414.0,422.0,422.0,430.0" stroke="black" stroke-width="1" fill="none" />
<polyline points="419.0,436.0,411.0,428.0,403.0,420.0" stroke="black" stroke-width="1" fill="none" />
<polyline points="382.0,429.0,370.0,437.0,373.0,445.0,379.0,453.0,385.0,461.0" stroke="black" stroke-width="1" fill="none" />
<polyline points="390.0,458.0,386.0,450.0,377.0,440.0,385.0,435.0,377.0,438.0" stroke="black" stroke-width="1" fill="none" />
<polyline points="385.0,436.0,384.0,444.0,386.0,442.0,392.0,448.0,400.0,451.0" stroke="black" stroke-width="1" fill="none" />
<polyline points="366.0,464.0,358.0,447.0,357.0,445.0,365.0,446.0,363.0,444.0,367.0,452.0,371.0,460.0,372.0,468.0,367.0,476.0,369.0,474.0,361.0,480.0,353.0,480.0,345.0,473.0,337.0,458.0,339.0,453.0,338.0,461.0,342.0,469.0,347.0,477.0" stroke="black" stroke-width="1" fill="none" />
<polyline points="349.0,469.0,345.0,461.0,342.0,453.0" stroke="black" stroke-width="1" fill="none" />
<polyline points="360.0,443.0,359.0,451.0,363.0,459.0,366.0,467.0" stroke="black" stroke-width="1" fill="none" />
<polyline points="324.0,383.0,316.0,383.0,317.0,381.0,317.0,389.0" stroke="black" stroke-width="1" fill="none" />
<polyline points="322.0,375.0,330.0,374.0" stroke="black" stroke-width="1" fill="none" />
<polyline points="329.0,357.0,337.0,340.0" stroke="black" stroke-width="1" fill="none" />
<polyline points="327.0,324.0,319.0,328.0,311.0,330.0,303.0,332.0,295.0,335.0,287.0,347.0" stroke="black" stroke-width="1" fill="none" />
<polyline points="301.0,357.0,309.0,344.0,317.0,339.0,325.0,331.0,325.0,331.0,316.0,339.0,306.0,347.0,302.0,355.0,300.0,363.0,300.0,371.0,302.0,379.0,306.0,387.0" stroke="black" stroke-width="1" fill="none" />
<polyline points="302.0,378.0,310.0,390.0,318.0,391.0" stroke="black" stroke-width="1" fill="none" />
<polyline points="283.0,365.0,275.0,363.0,267.0,365.0,259.0,366.0,251.0,367.0,243.0,369.0,235.0,370.0,227.0,377.0,219.0,375.0,211.0,385.0,203.0,380.0,195.0,375.0,194.0,374.0,202.0,369.0,210.0,365.0,218.0,360.0,226.0,359.0,234.0,358.0,242.0,356.0,250.0,354.0,258.0,352.0" stroke="black" stroke-width="1" fill="none" />
<polyline points="233.0,370.0,226.0,378.0,215.0,382.0" stroke="black" stroke-width="1" fill="none" />
<polyline points="223.0,393.0,231.0,389.0,239.0,380.0,247.0,377.0,255.0,376.0,250.0,384.0,250.0,392.0,245.0,397.0,249.0,396.0" stroke="black" stroke-width="1" fill="none" />
<polyline points="249.0,385.0,241.0,379.0,233.0,387.0,223.0,395.0,224.0,395.0,232.0,399.0,240.0,401.0" stroke="black" stroke-width="1" fill="none" />
<polyline points="222.0,404.0,208.0,396.0,197.0,388.0,187.0,380.0,179.0,372.0,172.0,364.0,166.0,356.0,160.0,348.0,155.0,340.0,150.0,332.0,146.0,324.0,142.0,316.0,139.0,308.0,136.0,300.0,134.0,292.0,132.0,284.0,130.0,276.0,129.0,268.0,129.0,260.0,124.0,259.0,116.0,260.0,108.0,261.0,100.0,262.0,92.0,262.0,84.0,263.0,76.0,266.0,77.0,264.0,77.0,272.0,78.0,280.0,79.0,288.0,81.0,296.0,83.0,304.0,86.0,312.0,88.0,320.0,92.0,328.0,95.0,336.0,99.0,344.0,104.0,352.0,109.0,360.0,115.0,368.0,121.0,376.0,129.0,384.0,137.0,392.0,147.0,400.0,158.0,408.0,171.0,416.0,190.0,424.0" stroke="black" stroke-width="1" fill="none" />
<polyline points="189.0,460.0,181.0,468.0,174.0,476.0,168.0,484.0,170.0,481.0,178.0,472.0,186.0,462.0,194.0,462.0,190.0,461.0,195.0,469.0,196.0,477.0,197.0,485.0,198.0,493.0,195.0,496.0" stroke="black" stroke-width="1" fill="none" />
<polyline points="185.0,485.0,177.0,483.0,169.0,488.0,177.0,483.0" stroke="black" stroke-width="1" fill="none" />
<polyline points="186.0,471.0,190.0,478.0,189.0,470.0,188.0,469.0,182.0,477.0,191.0,488.0,193.0,496.0" stroke="black" stroke-width="1" fill="none" />
<polyline points="215.0,495.0,216.0,487.0,217.0,479.0,217.0,479.0,225.0,489.0,233.0,501.0" stroke="black" stroke-width="1" fill="none" />
<polyline points="235.0,487.0,236.0,479.0,237.0,471.0,236.0,473.0" stroke="black" stroke-width="1" fill="none" />
<polyline points="242.0,472.0,242.0,480.0,241.0,488.0,240.0,496.0" stroke="black" stroke-width="1" fill="none" />
<polyline points="256.0,478.0,264.0,476.0,272.0,479.0,273.0,482.0,274.0,490.0" stroke="black" stroke-width="1" fill="none" />
<polyline points="274.0,473.0,266.0,471.0,258.0,471.0,250.0,472.0,251.0,471.0,250.0,479.0,250.0,487.0,251.0,495.0,251.0,503.0,258.0,504.0,266.0,503.0,274.0,500.0" stroke="black" stroke-width="1" fill="none" />
<polyline points="275.0,486.0,267.0,498.0,259.0,498.0,257.0,492.0,257.0,484.0,257.0,476.0" stroke="black" stroke-width="1" fill="none" />
<polyline points="270.0,472.0,280.0,480.0,281.0,488.0,278.0,496.0" stroke="black" stroke-width="1" fill="none" />
<polyline points="228.0,483.0,220.0,470.0,212.0,468.0,214.0,467.0,211.0,475.0,210.0,483.0,209.0,491.0,208.0,499.0" stroke="black" stroke-width="1" fill="none" />
<polyline points="229.0,496.0,224.0,488.0,219.0,480.0" stroke="black" stroke-width="1" fill="none" />
<polyline points="228.0,484.0,223.0,476.0,216.0,468.0" stroke="black" stroke-width="1" fill="none" />
<polyline points="152.0,448.0,144.0,460.0,136.0,472.0,131.0,468.0,137.0,460.0,143.0,452.0" stroke="black" stroke-width="1" fill="none" />
<polyline points="151.0,444.0,150.0,452.0,144.0,460.0,139.0,468.0,135.0,462.0" stroke="black" stroke-width="1" fill="none" />
<polyline points="139.0,452.0,131.0,454.0,128.0,450.0,127.0,442.0,126.0,441.0,118.0,452.0,115.0,457.0,120.0,449.0,125.0,441.0" stroke="black" stroke-width="1" fill="none" />
<polyline points="129.0,430.0,132.0,438.0,133.0,446.0,140.0,445.0,148.0,443.0" stroke="black" stroke-width="1" fill="none" />
<polyline points="127.0,429.0,119.0,439.0,111.0,451.0,110.0,452.0,116.0,444.0,121.0,436.0,126.0,428.0" stroke="black" stroke-width="1" fill="none" />
<polyline points="103.0,433.0,95.0,434.0,87.0,426.0" stroke="black" stroke-width="1" fill="none" />
<polyline points="81.0,427.0,89.0,438.0,97.0,441.0,105.0,440.0,113.0,432.0" stroke="black" stroke-width="1" fill="none" />
<polyline points="103.0,413.0,95.0,412.0,87.0,418.0" stroke="black" stroke-width="1" fill="none" />
<polyline points="81.0,415.0,89.0,407.0,97.0,406.0,105.0,408.0,113.0,415.0" stroke="black" stroke-width="1" fill="none" />
<polyline points="101.0,413.0,109.0,421.0,107.0,429.0" stroke="black" stroke-width="1" fill="none" />
<polyline points="87.0,428.0,87.0,420.0,95.0,412.0" stroke="black" stroke-width="1" fill="none" />
<polyline points="89.0,407.0,81.0,415.0,80.0,423.0,82.0,431.0,90.0,439.0" stroke="black" stroke-width="1" fill="none" />
<polyline points="106.0,439.0,114.0,431.0,115.0,423.0,112.0,415.0,101.0,407.0" stroke="black" stroke-width="1" fill="none" />
<polyline points="74.0,400.0,66.0,401.0,58.0,393.0,57.0,391.0,65.0,385.0,73.0,379.0,81.0,389.0" stroke="black" stroke-width="1" fill="none" />
<polyline points="79.0,396.0,80.0,388.0,75.0,380.0,73.0,379.0,62.0,387.0,59.0,395.0" stroke="black" stroke-width="1" fill="none" />
<polyline points="50.0,391.0,58.0,402.0,66.0,408.0,74.0,408.0,82.0,403.0" stroke="black" stroke-width="1" fill="none" />
<polyline points="81.0,378.0,73.0,371.0,65.0,377.0,57.0,383.0,49.0,388.0" stroke="black" stroke-width="1" fill="none" />
<polyline points="57.0,371.0,49.0,360.0,41.0,363.0" stroke="black" stroke-width="1" fill="none" />
<polyline points="46.0,360.0,43.0,368.0,47.0,376.0,43.0,378.0,35.0,363.0,34.0,359.0,42.0,355.0,50.0,351.0,58.0,347.0,66.0,352.0" stroke="black" stroke-width="1" fill="none" />
<polyline points="63.0,347.0,67.0,355.0,71.0,363.0,66.0,376.0,55.0,384.0,50.0,392.0,56.0,400.0,66.0,408.0" stroke="black" stroke-width="1" fill="none" />
<polyline points="80.0,404.0,86.0,396.0,86.0,388.0,82.0,380.0,76.0,372.0" stroke="black" stroke-width="1" fill="none" />
<polyline points="70.0,365.0,62.0,355.0,54.0,357.0,58.0,354.0,55.0,362.0,58.0,370.0,53.0,369.0,49.0,361.0" stroke="black" stroke-width="1" fill="none" />
<polyline points="61.0,355.0,65.0,363.0" stroke="black" stroke-width="1" fill="none" />
<polyline points="60.0,346.0,44.0,354.0,34.0,362.0,38.0,370.0,42.0,378.0" stroke="black" stroke-width="1" fill="none" />
<polyline points="54.0,336.0,46.0,340.0,38.0,341.0,30.0,350.0,27.0,345.0,33.0,337.0,36.0,329.0" stroke="black" stroke-width="1" fill="none" />
<polyline points="46.0,324.0,49.0,332.0,49.0,332.0" stroke="black" stroke-width="1" fill="none" />
<polyline points="50.0,325.0,42.0,325.0,31.0,339.0,33.0,346.0,40.0,338.0,41.0,326.0,30.0,330.0,22.0,329.0" stroke="black" stroke-width="1" fill="none" />
<polyline points="35.0,312.0,36.0,307.0,35.0,299.0,24.0,300.0,16.0,300.0,15.0,295.0,23.0,294.0,31.0,292.0,39.0,291.0,47.0,291.0,48.0,298.0,50.0,306.0,40.0,319.0,21.0,327.0,24.0,325.0,32.0,322.0,40.0,319.0,48.0,317.0,56.0,327.0" stroke="black" stroke-width="1" fill="none" />
<polyline points="56.0,333.0,55.0,325.0,52.0,317.0" stroke="black" stroke-width="1" fill="none" />
<polyline points="47.0,310.0,44.0,304.0,43.0,298.0,35.0,298.0" stroke="black" stroke-width="1" fill="none" />
<polyline points="29.0,301.0,31.0,309.0" stroke="black" stroke-width="1" fill="none" />
<polyline points="15.0,265.0,23.0,264.0,31.0,263.0,39.0,262.0,47.0,261.0,55.0,260.0,63.0,259.0,71.0,258.0,79.0,257.0,87.0,256.0,95.0,255.0,103.0,254.0,111.0,253.0,119.0,252.0,127.0,251.0,135.0,250.0,143.0,249.0,151.0,248.0,159.0,247.0,167.0,246.0,175.0,245.0,183.0,244.0,191.0,243.0,199.0,243.0,207.0,242.0,215.0,241.0,223.0,240.0,231.0,239.0,239.0,238.0,247.0,237.0,255.0,236.0,263.0,235.0,271.0,234.0,279.0,233.0,287.0,232.0,295.0,231.0,303.0,230.0,311.0,229.0,319.0,228.0,327.0,227.0,335.0,226.0,343.0,225.0,351.0,225.0,359.0,226.0,367.0,229.0,375.0,232.0,383.0,235.0,391.0,239.0,399.0,243.0,407.0,246.0,415.0,247.0,423.0,246.0,431.0,242.0,439.0,233.0,441.0,229.0,436.0,237.0,424.0,245.0" stroke="black" stroke-width="1" fill="none" />
<polyline points="414.0,234.0,422.0,226.0,425.0,218.0,425.0,210.0,424.0,212.0,427.0,211.0,432.0,219.0,432.0,227.0" stroke="black" stroke-width="1" fill="none" />
<polyline points="423.0,224.0,415.0,234.0,407.0,235.0,399.0,234.0,391.0,231.0,383.0,228.0,375.0,225.0,367.0,224.0,366.0,222.0,374.0,221.0,382.0,221.0,390.0,220.0,398.0,221.0" stroke="black" stroke-width="1" fill="none" />
<polyline points="403.0,209.0,395.0,204.0,387.0,208.0,379.0,210.0,371.0,212.0,363.0,213.0,355.0,214.0,347.0,215.0,339.0,216.0,331.0,217.0" stroke="black" stroke-width="1" fill="none" />
<polyline points="347.0,191.0,339.0,204.0,331.0,213.0,332.0,212.0,339.0,204.0,345.0,196.0,349.0,188.0,352.0,180.0,350.0,175.0,342.0,175.0,334.0,177.0,326.0,178.0,318.0,176.0,316.0,175.0,324.0,173.0,332.0,170.0,340.0,160.0,335.0,168.0" stroke="black" stroke-width="1" fill="none" />
<polyline points="325.0,154.0,317.0,148.0,309.0,144.0,301.0,144.0,293.0,146.0,285.0,157.0" stroke="black" stroke-width="1" fill="none" />
<polyline points="298.0,144.0,287.0,152.0,285.0,160.0,285.0,168.0,287.0,176.0,293.0,177.0,301.0,178.0" stroke="black" stroke-width="1" fill="none" />
<polyline points="287.0,199.0,295.0,185.0,300.0,178.0,294.0,186.0,289.0,194.0,287.0,202.0,286.0,210.0,288.0,216.0,296.0,215.0,304.0,214.0,312.0,209.0,320.0,201.0,328.0,194.0,328.0,199.0,324.0,207.0,319.0,215.0" stroke="black" stroke-width="1" fill="none" />
<polyline points="311.0,243.0,303.0,247.0,295.0,252.0,287.0,258.0,279.0,272.0,282.0,272.0,290.0,259.0,298.0,253.0,306.0,250.0,314.0,248.0,322.0,247.0,330.0,248.0,338.0,250.0,346.0,254.0,354.0,259.0,362.0,265.0,370.0,272.0,378.0,278.0,386.0,284.0,394.0,289.0,402.0,290.0,410.0,289.0,418.0,286.0,423.0,282.0" stroke="black" stroke-width="1" fill="none" />
<polyline points="355.0,288.0,347.0,276.0,339.0,268.0,331.0,264.0,323.0,261.0,315.0,261.0,307.0,262.0,299.0,265.0,291.0,275.0,294.0,276.0,302.0,267.0,310.0,265.0,318.0,266.0,326.0,268.0,334.0,274.0" stroke="black" stroke-width="1" fill="none" />
<polyline points="328.0,263.0,341.0,271.0,349.0,279.0,354.0,287.0,358.0,295.0,360.0,303.0,362.0,311.0,362.0,319.0,362.0,327.0,362.0,335.0,360.0,343.0,358.0,351.0,356.0,359.0,352.0,367.0,347.0,375.0,341.0,383.0,333.0,391.0,321.0,399.0" stroke="black" stroke-width="1" fill="none" />
<polyline points="351.0,369.0,343.0,381.0,335.0,389.0,327.0,396.0,319.0,400.0,311.0,404.0,303.0,407.0,295.0,409.0,287.0,411.0,279.0,412.0,271.0,412.0,263.0,412.0,255.0,412.0,247.0,411.0,239.0,409.0,231.0,407.0,223.0,404.0,215.0,399.0,207.0,395.0,199.0,389.0,191.0,382.0,183.0,375.0,175.0,366.0,167.0,357.0,159.0,346.0,151.0,333.0,143.0,317.0,135.0,296.0" stroke="black" stroke-width="1" fill="none" />
<polyline points="160.0,296.0,155.0,309.0,150.0,312.0,149.0,304.0,148.0,296.0,147.0,288.0,149.0,280.0,151.0,272.0,154.0,264.0,161.0,256.0,161.0,256.0,153.0,265.0" stroke="black" stroke-width="1" fill="none" />
<polyline points="166.0,255.0,166.0,263.0,164.0,271.0,161.0,279.0,161.0,287.0,158.0,295.0,161.0,303.0,154.0,311.0" stroke="black" stroke-width="1" fill="none" />
<polyline points="192.0,288.0,200.0,290.0" stroke="black" stroke-width="1" fill="none" />
<polyline points="195.0,306.0,187.0,301.0,179.0,285.0,171.0,268.0" stroke="black" stroke-width="1" fill="none" />
<polyline points="170.0,257.0,178.0,252.0,186.0,251.0,194.0,250.0,202.0,249.0,210.0,248.0,218.0,247.0,226.0,246.0,234.0,245.0,242.0,244.0,250.0,243.0,258.0,242.0,266.0,241.0,274.0,240.0,282.0,239.0,290.0,239.0,298.0,238.0,306.0,237.0,313.0,237.0,307.0,245.0,292.0,253.0,284.0,261.0,280.0,269.0,279.0,277.0,279.0,285.0,282.0,293.0,292.0,301.0" stroke="black" stroke-width="1" fill="none" />
<polyline points="300.0,295.0,292.0,286.0,295.0,285.0,303.0,293.0,311.0,294.0" stroke="black" stroke-width="1" fill="none" />
<polyline points="299.0,299.0,291.0,296.0,283.0,286.0,281.0,290.0,289.0,299.0,297.0,302.0,305.0,301.0" stroke="black" stroke-width="1" fill="none" />
<polyline points="306.0,331.0,291.0,339.0,287.0,347.0,288.0,355.0,288.0,363.0" stroke="black" stroke-width="1" fill="none" />
<polyline points="216.0,360.0,206.0,368.0,196.0,376.0,207.0,384.0" stroke="black" stroke-width="1" fill="none" />
<polyline points="254.0,299.0,246.0,295.0,238.0,290.0,230.0,284.0,222.0,275.0,214.0,264.0,206.0,263.0,198.0,262.0,190.0,261.0,182.0,260.0,182.0,260.0,183.0,268.0,190.0,276.0,191.0,284.0,200.0,292.0,201.0,300.0" stroke="black" stroke-width="1" fill="none" />
<polyline points="214.0,264.0,219.0,272.0,225.0,280.0,234.0,288.0,246.0,296.0,261.0,304.0,258.0,312.0,258.0,320.0,260.0,328.0,262.0,336.0,265.0,344.0" stroke="black" stroke-width="1" fill="none" />
<polyline points="326.0,377.0,325.0,377.0,331.0,371.0,328.0,363.0,330.0,355.0,334.0,347.0,338.0,339.0,339.0,331.0,337.0,323.0,335.0,315.0,339.0,307.0,342.0,299.0,342.0,291.0,339.0,283.0,334.0,275.0,321.0,267.0" stroke="black" stroke-width="1" fill="none" />
<polyline points="305.0,266.0,295.0,274.0,294.0,282.0,297.0,290.0,308.0,299.0" stroke="black" stroke-width="1" fill="none" />
<polyline points="297.0,294.0,292.0,286.0,291.0,278.0,293.0,270.0,305.0,262.0" stroke="black" stroke-width="1" fill="none" />
<polyline points="308.0,249.0,292.0,257.0,285.0,265.0,282.0,273.0,282.0,281.0,283.0,289.0,291.0,297.0" stroke="black" stroke-width="1" fill="none" />
<polyline points="337.0,250.0,352.0,258.0,362.0,266.0,372.0,274.0,381.0,282.0" stroke="black" stroke-width="1" fill="none" />
<polyline points="399.0,244.0,383.0,236.0,364.0,228.0" stroke="black" stroke-width="1" fill="none" />
<polyline points="404.0,220.0,404.0,212.0,399.0,204.0" stroke="black" stroke-width="1" fill="none" />
<polyline points="383.0,164.0,375.0,156.0,386.0,148.0,390.0,140.0,390.0,132.0,386.0,124.0,382.0,123.0" stroke="black" stroke-width="1" fill="none" />
<polyline points="389.0,142.0,381.0,153.0,373.0,157.0,374.0,159.0,382.0,163.0,390.0,163.0,398.0,158.0,399.0,164.0,391.0,172.0" stroke="black" stroke-width="1" fill="none" />
<polyline points="389.0,163.0,397.0,167.0,389.0,174.0,381.0,175.0,373.0,174.0,365.0,171.0,357.0,164.0,349.0,154.0,341.0,142.0,333.0,132.0,325.0,124.0,317.0,117.0,309.0,112.0,301.0,108.0,293.0,105.0,285.0,103.0,277.0,101.0,269.0,100.0,261.0,100.0,253.0,100.0,245.0,101.0,237.0,102.0,229.0,103.0,221.0,106.0,213.0,109.0,205.0,112.0,197.0,116.0,189.0,121.0,181.0,127.0,173.0,134.0,165.0,142.0,157.0,152.0,149.0,163.0,141.0,177.0,133.0,199.0" stroke="black" stroke-width="1" fill="none" />
<polyline points="175.0,207.0,183.0,214.0,191.0,210.0,199.0,196.0,207.0,186.0,206.0,186.0,200.0,194.0,194.0,202.0,191.0,210.0" stroke="black" stroke-width="1" fill="none" />
<polyline points="198.0,214.0,206.0,198.0" stroke="black" stroke-width="1" fill="none" />
<polyline points="210.0,187.0,208.0,195.0,203.0,203.0,199.0,211.0,197.0,219.0,197.0,227.0,202.0,227.0,210.0,226.0,218.0,225.0,226.0,224.0,234.0,223.0,242.0,222.0,250.0,221.0,258.0,220.0,266.0,219.0" stroke="black" stroke-width="1" fill="none" />
<polyline points="267.0,197.0,275.0,194.0" stroke="black" stroke-width="1" fill="none" />
<polyline points="280.0,190.0,272.0,182.0,264.0,179.0,263.0,177.0,271.0,174.0" stroke="black" stroke-width="1" fill="none" />
<polyline points="269.0,168.0,261.0,162.0,253.0,161.0,252.0,158.0,260.0,154.0,257.0,151.0,249.0,148.0,241.0,147.0" stroke="black" stroke-width="1" fill="none" />
<polyline points="243.0,139.0,242.0,143.0,249.0,135.0,245.0,134.0,237.0,134.0,229.0,138.0,223.0,142.0,237.0,134.0" stroke="black" stroke-width="1" fill="none" />
<polyline points="229.0,133.0,221.0,141.0,228.0,134.0,229.0,132.0,221.0,133.0,213.0,137.0,207.0,133.0,199.0,139.0,191.0,143.0,183.0,144.0,175.0,141.0,175.0,141.0,178.0,149.0,180.0,157.0,179.0,165.0,178.0,173.0,178.0,181.0,177.0,189.0,176.0,197.0,174.0,205.0,179.0,213.0" stroke="black" stroke-width="1" fill="none" />
<polyline points="175.0,252.0,170.0,260.0,171.0,268.0,174.0,276.0,178.0,284.0,181.0,292.0,185.0,300.0" stroke="black" stroke-width="1" fill="none" />
<polyline points="84.0,306.0,92.0,328.0,100.0,344.0,108.0,357.0,116.0,368.0,124.0,378.0,132.0,386.0,140.0,394.0,148.0,400.0,156.0,406.0,164.0,411.0,172.0,416.0,180.0,420.0,188.0,423.0,196.0,426.0,204.0,428.0,212.0,430.0,220.0,432.0,228.0,433.0,236.0,434.0,244.0,434.0,252.0,434.0,260.0,434.0,268.0,434.0,276.0,433.0,284.0,431.0,292.0,430.0,300.0,428.0,308.0,425.0,316.0,422.0,324.0,418.0,332.0,413.0,340.0,408.0,348.0,401.0,356.0,393.0,364.0,383.0,372.0,370.0,380.0,351.0" stroke="black" stroke-width="1" fill="none" />
<polyline points="433.0,372.0,441.0,372.0,449.0,377.0,457.0,382.0" stroke="black" stroke-width="1" fill="none" />
<polyline points="458.0,390.0,450.0,385.0,442.0,380.0,434.0,375.0,435.0,370.0,437.0,378.0,450.0,386.0" stroke="black" stroke-width="1" fill="none" />
<polyline points="440.0,392.0,436.0,400.0,438.0,408.0,440.0,395.0,440.0,391.0,432.0,397.0,431.0,399.0,437.0,391.0" stroke="black" stroke-width="1" fill="none" />
<polyline points="430.0,386.0,427.0,399.0,426.0,391.0,430.0,383.0" stroke="black" stroke-width="1" fill="none" />
<polyline points="438.0,371.0,451.0,379.0,463.0,387.0" stroke="black" stroke-width="1" fill="none" />
<polyline points="370.0,137.0,380.0,129.0,381.0,127.0,373.0,136.0,365.0,138.0,357.0,134.0,349.0,127.0,341.0,118.0,333.0,110.0,325.0,104.0,317.0,98.0,309.0,94.0,301.0,90.0,293.0,87.0,285.0,85.0,277.0,83.0,269.0,82.0,261.0,82.0,253.0,81.0,245.0,81.0,237.0,82.0,229.0,82.0,221.0,84.0,213.0,85.0,205.0,87.0,197.0,90.0,189.0,93.0,181.0,96.0,173.0,100.0,165.0,104.0,157.0,109.0,149.0,114.0,141.0,121.0,133.0,128.0,125.0,136.0,117.0,145.0,109.0,155.0,101.0,167.0,93.0,182.0,85.0,202.0" stroke="black" stroke-width="1" fill="none" />
<polyline points="49.0,198.0,41.0,196.0,33.0,193.0,25.0,190.0,24.0,185.0,32.0,171.0,40.0,171.0,48.0,177.0,56.0,176.0" stroke="black" stroke-width="1" fill="none" />
<polyline points="46.0,184.0,49.0,192.0,50.0,192.0,38.0,186.0,36.0,187.0,38.0,179.0,33.0,178.0,33.0,186.0,37.0,178.0,47.0,184.0,55.0,183.0" stroke="black" stroke-width="1" fill="none" />
<polyline points="38.0,195.0,24.0,187.0,26.0,179.0,32.0,171.0" stroke="black" stroke-width="1" fill="none" />
<polyline points="42.0,155.0,50.0,164.0,58.0,166.0,66.0,164.0,74.0,154.0" stroke="black" stroke-width="1" fill="none" />
<polyline points="64.0,158.0,56.0,160.0,48.0,153.0" stroke="black" stroke-width="1" fill="none" />
<polyline points="47.0,146.0,55.0,138.0,63.0,138.0" stroke="black" stroke-width="1" fill="none" />
<polyline points="64.0,132.0,73.0,140.0,75.0,148.0,73.0,156.0,65.0,164.0" stroke="black" stroke-width="1" fill="none" />
<polyline points="74.0,140.0,66.0,132.0,58.0,131.0,50.0,133.0,42.0,142.0" stroke="black" stroke-width="1" fill="none" />
<polyline points="53.0,138.0,47.0,146.0,48.0,154.0" stroke="black" stroke-width="1" fill="none" />
<polyline points="57.0,137.0,69.0,145.0,68.0,153.0" stroke="black" stroke-width="1" fill="none" />
<polyline points="47.0,163.0,42.0,155.0,41.0,147.0,44.0,139.0,55.0,131.0" stroke="black" stroke-width="1" fill="none" />
<polyline points="61.0,117.0,69.0,124.0,77.0,130.0,85.0,132.0,93.0,127.0" stroke="black" stroke-width="1" fill="none" />
<polyline points="92.0,114.0,84.0,106.0,76.0,99.0,75.0,97.0,83.0,97.0,91.0,104.0" stroke="black" stroke-width="1" fill="none" />
<polyline points="80.0,95.0,89.0,103.0,97.0,111.0,98.0,119.0,93.0,127.0" stroke="black" stroke-width="1" fill="none" />
<polyline points="84.0,126.0,76.0,121.0,68.0,115.0,60.0,115.0,62.0,112.0,63.0,120.0,73.0,128.0" stroke="black" stroke-width="1" fill="none" />
<polyline points="74.0,121.0,65.0,113.0" stroke="black" stroke-width="1" fill="none" />
<polyline points="77.0,94.0,78.0,102.0,88.0,110.0,92.0,118.0" stroke="black" stroke-width="1" fill="none" />
<polyline points="118.0,101.0,116.0,93.0,109.0,85.0,104.0,77.0,111.0,69.0,105.0,69.0,97.0,76.0,89.0,82.0,87.0,84.0,96.0,76.0,106.0,68.0,104.0,76.0,105.0,79.0,113.0,89.0" stroke="black" stroke-width="1" fill="none" />
<polyline points="112.0,97.0,104.0,88.0,96.0,83.0,88.0,87.0" stroke="black" stroke-width="1" fill="none" />
<polyline points="100.0,84.0,106.0,92.0,113.0,100.0" stroke="black" stroke-width="1" fill="none" />
<polyline points="135.0,87.0,127.0,76.0,119.0,63.0,117.0,62.0,125.0,60.0,133.0,66.0,141.0,61.0,135.0,71.0,136.0,79.0" stroke="black" stroke-width="1" fill="none" />
<polyline points="152.0,74.0,147.0,66.0" stroke="black" stroke-width="1" fill="none" />
<polyline points="166.0,67.0,163.0,59.0,159.0,51.0,156.0,43.0,164.0,35.0,171.0,32.0,163.0,36.0,155.0,39.0,156.0,42.0,164.0,62.0,172.0,67.0,180.0,64.0,178.0,59.0,173.0,61.0,181.0,58.0,186.0,60.0" stroke="black" stroke-width="1" fill="none" />
<polyline points="174.0,51.0,170.0,60.0,171.0,52.0,180.0,47.0,172.0,46.0,164.0,45.0" stroke="black" stroke-width="1" fill="none" />
<polyline points="171.0,38.0,163.0,41.0,163.0,41.0,175.0,33.0" stroke="black" stroke-width="1" fill="none" />
<polyline points="143.0,47.0,148.0,55.0,153.0,63.0,158.0,71.0" stroke="black" stroke-width="1" fill="none" />
<polyline points="153.0,62.0,145.0,49.0,137.0,49.0,139.0,46.0,140.0,54.0,139.0,62.0,135.0,71.0,143.0,66.0,151.0,71.0" stroke="black" stroke-width="1" fill="none" />
<polyline points="128.0,67.0,123.0,59.0,119.0,58.0,120.0,66.0,125.0,74.0,130.0,82.0" stroke="black" stroke-width="1" fill="none" />
<polyline points="201.0,88.0,180.0,96.0,165.0,104.0,152.0,112.0,142.0,120.0,133.0,128.0,125.0,136.0,118.0,144.0,111.0,152.0,106.0,160.0,101.0,168.0,97.0,176.0,93.0,184.0,89.0,192.0,86.0,200.0,84.0,208.0,81.0,216.0,80.0,224.0,78.0,232.0,77.0,240.0,81.0,244.0,89.0,243.0,97.0,242.0,105.0,241.0,113.0,240.0,121.0,239.0" stroke="black" stroke-width="1" fill="none" />
<polyline points="48.0,217.0,40.0,215.0,32.0,214.0,24.0,212.0" stroke="black" stroke-width="1" fill="none" />
<polyline points="21.0,219.0,29.0,220.0,37.0,221.0,45.0,223.0" stroke="black" stroke-width="1" fill="none" />
<polyline points="15.0,226.0,16.0,218.0,18.0,210.0,19.0,202.0,19.0,201.0,23.0,201.0,23.0,209.0,21.0,222.0" stroke="black" stroke-width="1" fill="none" />
<polyline points="13.0,262.0,21.0,260.0,29.0,259.0,37.0,258.0,45.0,257.0,53.0,255.0,61.0,254.0,69.0,253.0,77.0,252.0,85.0,251.0,93.0,250.0,101.0,248.0,109.0,247.0,117.0,246.0,125.0,245.0,133.0,244.0,141.0,243.0,149.0,242.0,157.0,241.0,165.0,239.0,173.0,238.0,181.0,237.0,189.0,236.0,197.0,235.0,205.0,234.0,213.0,233.0,221.0,232.0,229.0,231.0,237.0,229.0,245.0,228.0,253.0,227.0,261.0,226.0,269.0,225.0,277.0,224.0,285.0,223.0,293.0,222.0,301.0,221.0,309.0,220.0,317.0,217.0,325.0,205.0,325.0,197.0,315.0,205.0" stroke="black" stroke-width="1" fill="none" />
<polyline points="270.0,216.0,267.0,208.0,267.0,200.0,280.0,194.0,277.0,186.0,263.0,178.0,271.0,170.0,261.0,162.0" stroke="black" stroke-width="1" fill="none" />
<polyline points="223.0,132.0,207.0,133.0,193.0,141.0" stroke="black" stroke-width="1" fill="none" />
<polyline points="222.0,105.0,202.0,113.0,189.0,121.0,179.0,129.0,170.0,137.0,162.0,145.0,156.0,153.0,150.0,161.0,146.0,169.0,141.0,177.0,138.0,185.0,135.0,193.0,133.0,201.0,131.0,209.0,129.0,217.0,129.0,225.0,128.0,233.0" stroke="black" stroke-width="1" fill="none" />
<polyline points="310.0,145.0,322.0,153.0,329.0,159.0,330.0,162.0,338.0,159.0" stroke="black" stroke-width="1" fill="none" />
<polyline points="360.0,168.0,353.0,160.0,347.0,152.0,341.0,144.0,335.0,136.0,328.0,128.0,319.0,120.0,307.0,112.0,289.0,104.0" stroke="black" stroke-width="1" fill="none" />
<polyline points="288.0,86.0,308.0,94.0,322.0,102.0,332.0,110.0,340.0,118.0,347.0,126.0,356.0,134.0" stroke="black" stroke-width="1" fill="none" />
<polyline points="420.0,99.0,412.0,107.0,406.0,112.0,414.0,105.0,422.0,99.0,422.0,100.0,421.0,108.0,420.0,116.0,419.0,124.0,418.0,125.0,426.0,128.0,434.0,121.0,442.0,113.0" stroke="black" stroke-width="1" fill="none" />
<polyline points="401.0,96.0,409.0,88.0,410.0,80.0,407.0,72.0,396.0,64.0" stroke="black" stroke-width="1" fill="none" />
<polyline points="384.0,64.0,376.0,72.0,375.0,80.0,377.0,88.0,385.0,96.0" stroke="black" stroke-width="1" fill="none" />
<polyline points="264.0,29.0,256.0,19.0,248.0,20.0" stroke="black" stroke-width="1" fill="none" />
<polyline points="254.0,18.0,261.0,26.0,267.0,34.0" stroke="black" stroke-width="1" fill="none" />
<polyline points="254.0,28.0,254.0,36.0,254.0,44.0" stroke="black" stroke-width="1" fill="none" />
<polyline points="240.0,45.0,232.0,33.0,224.0,20.0,216.0,23.0,218.0,20.0,215.0,28.0,213.0,36.0,211.0,44.0,209.0,52.0,215.0,52.0,223.0,45.0,231.0,44.0,239.0,50.0" stroke="black" stroke-width="1" fill="none" />
<polyline points="225.0,39.0,227.0,37.0,223.0,29.0,221.0,29.0,219.0,37.0,216.0,49.0" stroke="black" stroke-width="1" fill="none" />
<polyline points="239.0,45.0,234.0,37.0,229.0,29.0,224.0,21.0" stroke="black" stroke-width="1" fill="none" />
<polyline points="16.0,202.0,24.0,202.0" stroke="black" stroke-width="1" fill="none" />
<polyline points="16.0,210.0,32.0,210.0" stroke="black" stroke-width="1" fill="none" />
<polyline points="16.0,218.0,48.0,218.0" stroke="black" stroke-width="1" fill="none" />
<polyline points="40.0,194.0,56.0,194.0" stroke="black" stroke-width="1" fill="none" />
<polyline points="40.0,184.0,48.0,176.0" stroke="black" stroke-width="1" fill="none" />
<polyline points="48.0,162.0,72.0,162.0" stroke="black" stroke-width="1" fill="none" />
<polyline points="72.0,154.0,64.0,154.0" stroke="black" stroke-width="1" fill="none" />
<polyline points="64.0,144.0,72.0,136.0,72.0,138.0,64.0,138.0" stroke="black" stroke-width="1" fill="none" />
<polyline points="64.0,130.0,56.0,130.0" stroke="black" stroke-width="1" fill="none" />
<polyline points="56.0,138.0,48.0,138.0" stroke="black" stroke-width="1" fill="none" />
<polyline points="48.0,146.0,40.0,146.0" stroke="black" stroke-width="1" fill="none" />
<polyline points="40.0,154.0,48.0,154.0" stroke="black" stroke-width="1" fill="none" />
<polyline points="40.0,170.0,32.0,170.0" stroke="black" stroke-width="1" fill="none" />
<polyline points="24.0,178.0,64.0,178.0" stroke="black" stroke-width="1" fill="none" />
<polyline points="88.0,186.0,136.0,186.0,136.0,184.0,80.0,240.0,80.0,238.0,112.0,238.0,112.0,240.0,128.0,224.0" stroke="black" stroke-width="1" fill="none" />
<polyline points="128.0,216.0,104.0,240.0" stroke="black" stroke-width="1" fill="none" />
<polyline points="88.0,240.0,136.0,192.0" stroke="black" stroke-width="1" fill="none" />
<polyline points="128.0,208.0,96.0,240.0" stroke="black" stroke-width="1" fill="none" />
<polyline points="88.0,242.0,80.0,242.0" stroke="black" stroke-width="1" fill="none" />
<polyline points="80.0,234.0,128.0,234.0" stroke="black" stroke-width="1" fill="none" />
<polyline points="128.0,242.0,200.0,242.0" stroke="black" stroke-width="1" fill="none" />
<polyline points="208.0,248.0,192.0,264.0" stroke="black" stroke-width="1" fill="none" />
<polyline points="184.0,264.0,176.0,272.0,176.0,274.0,192.0,274.0" stroke="black" stroke-width="1" fill="none" />
<polyline points="192.0,280.0,184.0,288.0,184.0,290.0,200.0,290.0,200.0,288.0,192.0,296.0" stroke="black" stroke-width="1" fill="none" />
<polyline points="192.0,302.0,200.0,302.0" stroke="black" stroke-width="1" fill="none" />
<polyline points="200.0,296.0,192.0,304.0" stroke="black" stroke-width="1" fill="none" />
<polyline points="184.0,298.0,200.0,298.0" stroke="black" stroke-width="1" fill="none" />
<polyline points="192.0,288.0,184.0,296.0,184.0,294.0,192.0,294.0" stroke="black" stroke-width="1" fill="none" />
<polyline points="192.0,282.0,176.0,282.0,176.0,280.0,184.0,272.0" stroke="black" stroke-width="1" fill="none" />
<polyline points="184.0,278.0,176.0,278.0" stroke="black" stroke-width="1" fill="none" />
<polyline points="176.0,264.0,184.0,256.0" stroke="black" stroke-width="1" fill="none" />
<polyline points="184.0,262.0,176.0,262.0" stroke="black" stroke-width="1" fill="none" />
<polyline points="176.0,250.0,344.0,250.0" stroke="black" stroke-width="1" fill="none" />
<polyline points="344.0,256.0,336.0,264.0,336.0,266.0,368.0,266.0" stroke="black" stroke-width="1" fill="none" />
<polyline points="368.0,272.0,352.0,288.0,352.0,290.0,424.0,290.0,424.0,288.0,408.0,304.0" stroke="black" stroke-width="1" fill="none" />
<polyline points="400.0,304.0,416.0,288.0" stroke="black" stroke-width="1" fill="none" />
<polyline points="400.0,288.0,368.0,320.0,368.0,318.0,384.0,318.0,384.0,320.0,360.0,344.0,360.0,346.0,384.0,346.0" stroke="black" stroke-width="1" fill="none" />
<polyline points="376.0,352.0,344.0,384.0" stroke="black" stroke-width="1" fill="none" />
<polyline points="344.0,378.0,368.0,378.0,368.0,376.0,328.0,416.0" stroke="black" stroke-width="1" fill="none" />
<polyline points="320.0,406.0,336.0,406.0" stroke="black" stroke-width="1" fill="none" />
<polyline points="336.0,398.0,352.0,398.0" stroke="black" stroke-width="1" fill="none" />
<polyline points="344.0,390.0,360.0,390.0" stroke="black" stroke-width="1" fill="none" />
<polyline points="360.0,382.0,352.0,382.0" stroke="black" stroke-width="1" fill="none" />
<polyline points="352.0,374.0,368.0,374.0" stroke="black" stroke-width="1" fill="none" />
<polyline points="368.0,366.0,360.0,366.0" stroke="black" stroke-width="1" fill="none" />
<polyline points="360.0,360.0,384.0,336.0" stroke="black" stroke-width="1" fill="none" />
<polyline points="384.0,328.0,360.0,352.0,360.0,354.0,376.0,354.0" stroke="black" stroke-width="1" fill="none" />
<polyline points="376.0,360.0,312.0,424.0" stroke="black" stroke-width="1" fill="none" />
<polyline points="304.0,424.0,336.0,392.0" stroke="black" stroke-width="1" fill="none" />
<polyline points="336.0,386.0,360.0,386.0" stroke="black" stroke-width="1" fill="none" />
<polyline points="352.0,370.0,376.0,370.0" stroke="black" stroke-width="1" fill="none" />
<polyline points="376.0,358.0,360.0,358.0" stroke="black" stroke-width="1" fill="none" />
<polyline points="352.0,362.0,376.0,362.0" stroke="black" stroke-width="1" fill="none" />
<polyline points="376.0,350.0,368.0,350.0" stroke="black" stroke-width="1" fill="none" />
<polyline points="368.0,342.0,376.0,342.0" stroke="black" stroke-width="1" fill="none" />
<polyline points="368.0,334.0,384.0,334.0" stroke="black" stroke-width="1" fill="none" />
<polyline points="368.0,328.0,384.0,312.0" stroke="black" stroke-width="1" fill="none" />
<polyline points="392.0,304.0,400.0,296.0" stroke="black" stroke-width="1" fill="none" />
<polyline points="392.0,288.0,368.0,312.0,368.0,310.0,384.0,310.0" stroke="black" stroke-width="1" fill="none" />
<polyline points="384.0,288.0,360.0,312.0,360.0,314.0,384.0,314.0" stroke="black" stroke-width="1" fill="none" />
<polyline points="384.0,326.0,368.0,326.0" stroke="black" stroke-width="1" fill="none" />
<polyline points="360.0,322.0,384.0,322.0" stroke="black" stroke-width="1" fill="none" />
<polyline points="384.0,338.0,360.0,338.0" stroke="black" stroke-width="1" fill="none" />
<polyline points="360.0,330.0,384.0,330.0" stroke="black" stroke-width="1" fill="none" />
<polyline points="400.0,306.0,360.0,306.0,360.0,304.0,384.0,280.0" stroke="black" stroke-width="1" fill="none" />
<polyline points="376.0,280.0,360.0,296.0,360.0,294.0,392.0,294.0" stroke="black" stroke-width="1" fill="none" />
<polyline points="368.0,280.0,360.0,288.0,360.0,286.0,376.0,286.0" stroke="black" stroke-width="1" fill="none" />
<polyline points="360.0,298.0,416.0,298.0" stroke="black" stroke-width="1" fill="none" />
<polyline points="456.0,322.0,472.0,322.0" stroke="black" stroke-width="1" fill="none" />
<polyline points="472.0,328.0,464.0,336.0" stroke="black" stroke-width="1" fill="none" />
<polyline points="464.0,330.0,480.0,330.0" stroke="black" stroke-width="1" fill="none" />
<polyline points="480.0,338.0,488.0,338.0" stroke="black" stroke-width="1" fill="none" />
<polyline points="472.0,312.0,480.0,304.0" stroke="black" stroke-width="1" fill="none" />
<polyline points="488.0,298.0,496.0,298.0" stroke="black" stroke-width="1" fill="none" />
<polyline points="496.0,306.0,464.0,306.0" stroke="black" stroke-width="1" fill="none" />
<polyline points="464.0,298.0,480.0,298.0" stroke="black" stroke-width="1" fill="none" />
<polyline points="472.0,290.0,464.0,290.0" stroke="black" stroke-width="1" fill="none" />
<polyline points="472.0,258.0,488.0,258.0" stroke="black" stroke-width="1" fill="none" />
<polyline points="480.0,224.0,488.0,216.0" stroke="black" stroke-width="1" fill="none" />
<polyline points="488.0,210.0,496.0,210.0" stroke="black" stroke-width="1" fill="none" />
<polyline points="480.0,208.0,472.0,216.0,472.0,218.0,496.0,218.0" stroke="black" stroke-width="1" fill="none" />
<polyline points="480.0,216.0,472.0,224.0,472.0,226.0,464.0,226.0" stroke="black" stroke-width="1" fill="none" />
<polyline points="464.0,210.0,480.0,210.0" stroke="black" stroke-width="1" fill="none" />
<polyline points="472.0,202.0,488.0,202.0" stroke="black" stroke-width="1" fill="none" />
<polyline points="488.0,186.0,472.0,186.0" stroke="black" stroke-width="1" fill="none" />
<polyline points="472.0,194.0,456.0,194.0" stroke="black" stroke-width="1" fill="none" />
<polyline points="448.0,186.0,464.0,186.0" stroke="black" stroke-width="1" fill="none" />
<polyline points="456.0,176.0,464.0,168.0" stroke="black" stroke-width="1" fill="none" />
<polyline points="456.0,170.0,472.0,170.0" stroke="black" stroke-width="1" fill="none" />
<polyline points="472.0,162.0,480.0,162.0" stroke="black" stroke-width="1" fill="none" />
<polyline points="464.0,146.0,456.0,146.0" stroke="black" stroke-width="1" fill="none" />
<polyline points="456.0,138.0,464.0,138.0" stroke="black" stroke-width="1" fill="none" />
<polyline points="448.0,128.0,440.0,136.0,440.0,138.0,432.0,138.0" stroke="black" stroke-width="1" fill="none" />
<polyline points="432.0,130.0,464.0,130.0" stroke="black" stroke-width="1" fill="none" />
<polyline points="440.0,112.0,424.0,128.0" stroke="black" stroke-width="1" fill="none" />
<polyline points="416.0,122.0,432.0,122.0" stroke="black" stroke-width="1" fill="none" />
<polyline points="440.0,114.0,416.0,114.0" stroke="black" stroke-width="1" fill="none" />
<polyline points="416.0,104.0,424.0,96.0" stroke="black" stroke-width="1" fill="none" />
<polyline points="416.0,90.0,432.0,90.0" stroke="black" stroke-width="1" fill="none" />
<polyline points="432.0,98.0,408.0,98.0" stroke="black" stroke-width="1" fill="none" />
<polyline points="400.0,106.0,416.0,106.0" stroke="black" stroke-width="1" fill="none" />
<polyline points="408.0,82.0,400.0,82.0" stroke="black" stroke-width="1" fill="none" />
<polyline points="400.0,74.0,408.0,74.0" stroke="black" stroke-width="1" fill="none" />
<polyline points="384.0,72.0,376.0,80.0,376.0,82.0,384.0,82.0" stroke="black" stroke-width="1" fill="none" />
<polyline points="384.0,74.0,376.0,74.0" stroke="black" stroke-width="1" fill="none" />
<polyline points="384.0,66.0,408.0,66.0" stroke="black" stroke-width="1" fill="none" />
<polyline points="408.0,90.0,376.0,90.0" stroke="black" stroke-width="1" fill="none" />
<polyline points="368.0,74.0,360.0,74.0,360.0,72.0,368.0,64.0,368.0,66.0,360.0,66.0" stroke="black" stroke-width="1" fill="none" />
<polyline points="368.0,50.0,376.0,50.0" stroke="black" stroke-width="1" fill="none" />
<polyline points="352.0,48.0,344.0,56.0" stroke="black" stroke-width="1" fill="none" />
<polyline points="344.0,50.0,352.0,50.0" stroke="black" stroke-width="1" fill="none" />
<polyline points="344.0,42.0,360.0,42.0" stroke="black" stroke-width="1" fill="none" />
<polyline points="376.0,58.0,336.0,58.0" stroke="black" stroke-width="1" fill="none" />
<polyline points="320.0,40.0,312.0,48.0" stroke="black" stroke-width="1" fill="none" />
<polyline points="312.0,42.0,320.0,42.0" stroke="black" stroke-width="1" fill="none" />
<polyline points="312.0,40.0,320.0,32.0,320.0,34.0,312.0,34.0" stroke="black" stroke-width="1" fill="none" />
<polyline points="312.0,50.0,288.0,50.0" stroke="black" stroke-width="1" fill="none" />
<polyline points="288.0,42.0,296.0,42.0" stroke="black" stroke-width="1" fill="none" />
<polyline points="296.0,34.0,288.0,34.0" stroke="black" stroke-width="1" fill="none" />
<polyline points="288.0,26.0,312.0,26.0" stroke="black" stroke-width="1" fill="none" />
<polyline points="280.0,40.0,272.0,48.0" stroke="black" stroke-width="1" fill="none" />
<polyline points="264.0,42.0,280.0,42.0" stroke="black" stroke-width="1" fill="none" />
<polyline points="280.0,26.0,272.0,26.0" stroke="black" stroke-width="1" fill="none" />
<polyline points="272.0,18.0,280.0,18.0" stroke="black" stroke-width="1" fill="none" />
<polyline points="280.0,34.0,264.0,34.0" stroke="black" stroke-width="1" fill="none" />
<polyline points="256.0,24.0,248.0,32.0,248.0,34.0,256.0,34.0" stroke="black" stroke-width="1" fill="none" />
<polyline points="256.0,42.0,248.0,42.0" stroke="black" stroke-width="1" fill="none" />
<polyline points="248.0,26.0,264.0,26.0" stroke="black" stroke-width="1" fill="none" />
<polyline points="256.0,18.0,248.0,18.0" stroke="black" stroke-width="1" fill="none" />
<polyline points="224.0,24.0,216.0,32.0,216.0,34.0,232.0,34.0" stroke="black" stroke-width="1" fill="none" />
<polyline points="232.0,26.0,216.0,26.0" stroke="black" stroke-width="1" fill="none" />
<polyline points="208.0,42.0,240.0,42.0" stroke="black" stroke-width="1" fill="none" />
<polyline points="216.0,50.0,208.0,50.0" stroke="black" stroke-width="1" fill="none" />
<polyline points="216.0,82.0,280.0,82.0" stroke="black" stroke-width="1" fill="none" />
<polyline points="280.0,88.0,272.0,96.0" stroke="black" stroke-width="1" fill="none" />
<polyline points="272.0,88.0,264.0,96.0" stroke="black" stroke-width="1" fill="none" />
<polyline points="264.0,88.0,256.0,96.0" stroke="black" stroke-width="1" fill="none" />
<polyline points="256.0,88.0,248.0,96.0" stroke="black" stroke-width="1" fill="none" />
<polyline points="248.0,80.0,224.0,104.0" stroke="black" stroke-width="1" fill="none" />
<polyline points="232.0,104.0,256.0,80.0" stroke="black" stroke-width="1" fill="none" />
<polyline points="232.0,88.0,216.0,104.0" stroke="black" stroke-width="1" fill="none" />
<polyline points="208.0,94.0,296.0,94.0,296.0,96.0,288.0,104.0,288.0,102.0,312.0,102.0,312.0,104.0,304.0,112.0" stroke="black" stroke-width="1" fill="none" />
<polyline points="312.0,112.0,320.0,104.0" stroke="black" stroke-width="1" fill="none" />
<polyline points="328.0,104.0,320.0,112.0" stroke="black" stroke-width="1" fill="none" />
<polyline points="320.0,118.0,336.0,118.0,336.0,120.0,328.0,128.0,328.0,126.0,344.0,126.0,344.0,128.0,336.0,136.0,336.0,134.0,352.0,134.0,352.0,136.0,344.0,144.0,344.0,142.0,360.0,142.0" stroke="black" stroke-width="1" fill="none" />
<polyline points="360.0,136.0,344.0,152.0" stroke="black" stroke-width="1" fill="none" />
<polyline points="344.0,146.0,384.0,146.0,384.0,142.0,376.0,142.0" stroke="black" stroke-width="1" fill="none" />
<polyline points="376.0,136.0,352.0,160.0,352.0,158.0,368.0,158.0" stroke="black" stroke-width="1" fill="none" />
<polyline points="376.0,160.0,368.0,168.0,368.0,170.0,392.0,170.0,392.0,168.0,384.0,176.0" stroke="black" stroke-width="1" fill="none" />
<polyline points="384.0,168.0,376.0,176.0" stroke="black" stroke-width="1" fill="none" />
<polyline points="376.0,168.0,368.0,176.0" stroke="black" stroke-width="1" fill="none" />
<polyline points="360.0,168.0,392.0,136.0" stroke="black" stroke-width="1" fill="none" />
<polyline points="392.0,128.0,360.0,160.0,360.0,162.0,400.0,162.0" stroke="black" stroke-width="1" fill="none" />
<polyline points="432.0,146.0,440.0,146.0" stroke="black" stroke-width="1" fill="none" />
<polyline points="440.0,154.0,464.0,154.0" stroke="black" stroke-width="1" fill="none" />
<polyline points="456.0,178.0,448.0,178.0" stroke="black" stroke-width="1" fill="none" />
<polyline points="432.0,216.0,424.0,224.0,424.0,226.0,440.0,226.0,440.0,224.0,416.0,248.0" stroke="black" stroke-width="1" fill="none" />
<polyline points="408.0,248.0,432.0,224.0" stroke="black" stroke-width="1" fill="none" />
<polyline points="432.0,230.0,424.0,230.0" stroke="black" stroke-width="1" fill="none" />
<polyline points="424.0,238.0,432.0,238.0,432.0,240.0,440.0,232.0" stroke="black" stroke-width="1" fill="none" />
<polyline points="432.0,218.0,424.0,218.0" stroke="black" stroke-width="1" fill="none" />
<polyline points="400.0,208.0,392.0,216.0,392.0,214.0,400.0,214.0" stroke="black" stroke-width="1" fill="none" />
<polyline points="392.0,208.0,384.0,216.0" stroke="black" stroke-width="1" fill="none" />
<polyline points="376.0,216.0,368.0,224.0" stroke="black" stroke-width="1" fill="none" />
<polyline points="368.0,216.0,360.0,224.0,360.0,226.0,384.0,226.0" stroke="black" stroke-width="1" fill="none" />
<polyline points="384.0,234.0,440.0,234.0" stroke="black" stroke-width="1" fill="none" />
<polyline points="400.0,232.0,392.0,240.0" stroke="black" stroke-width="1" fill="none" />
<polyline points="400.0,242.0,432.0,242.0" stroke="black" stroke-width="1" fill="none" />
<polyline points="408.0,210.0,368.0,210.0" stroke="black" stroke-width="1" fill="none" />
<polyline points="360.0,216.0,352.0,224.0" stroke="black" stroke-width="1" fill="none" />
<polyline points="352.0,216.0,344.0,224.0,344.0,222.0,368.0,222.0" stroke="black" stroke-width="1" fill="none" />
<polyline points="344.0,216.0,336.0,224.0" stroke="black" stroke-width="1" fill="none" />
<polyline points="336.0,216.0,328.0,224.0" stroke="black" stroke-width="1" fill="none" />
<polyline points="328.0,216.0,320.0,224.0,320.0,222.0,328.0,222.0" stroke="black" stroke-width="1" fill="none" />
<polyline points="320.0,216.0,312.0,224.0" stroke="black" stroke-width="1" fill="none" />
<polyline points="304.0,224.0,296.0,232.0" stroke="black" stroke-width="1" fill="none" />
<polyline points="296.0,224.0,288.0,232.0" stroke="black" stroke-width="1" fill="none" />
<polyline points="288.0,224.0,280.0,232.0" stroke="black" stroke-width="1" fill="none" />
<polyline points="280.0,224.0,272.0,232.0" stroke="black" stroke-width="1" fill="none" />
<polyline points="272.0,224.0,264.0,232.0" stroke="black" stroke-width="1" fill="none" />
<polyline points="264.0,248.0,232.0,280.0,232.0,282.0,344.0,282.0" stroke="black" stroke-width="1" fill="none" />
<polyline points="344.0,288.0,304.0,328.0" stroke="black" stroke-width="1" fill="none" />
<polyline points="320.0,328.0,336.0,312.0" stroke="black" stroke-width="1" fill="none" />
<polyline points="336.0,304.0,312.0,328.0" stroke="black" stroke-width="1" fill="none" />
<polyline points="320.0,338.0,336.0,338.0,336.0,336.0,304.0,368.0,304.0,366.0,328.0,366.0,328.0,368.0,312.0,384.0" stroke="black" stroke-width="1" fill="none" />
<polyline points="304.0,384.0,328.0,360.0" stroke="black" stroke-width="1" fill="none" />
<polyline points="336.0,344.0,304.0,376.0,304.0,374.0,320.0,374.0" stroke="black" stroke-width="1" fill="none" />
<polyline points="320.0,386.0,304.0,386.0,304.0,382.0,312.0,382.0" stroke="black" stroke-width="1" fill="none" />
<polyline points="304.0,378.0,328.0,378.0" stroke="black" stroke-width="1" fill="none" />
<polyline points="328.0,394.0,352.0,394.0" stroke="black" stroke-width="1" fill="none" />
<polyline points="344.0,402.0,312.0,402.0" stroke="black" stroke-width="1" fill="none" />
<polyline points="312.0,408.0,288.0,432.0" stroke="black" stroke-width="1" fill="none" />
<polyline points="280.0,432.0,304.0,408.0" stroke="black" stroke-width="1" fill="none" />
<polyline points="304.0,414.0,328.0,414.0" stroke="black" stroke-width="1" fill="none" />
<polyline points="288.0,416.0,272.0,432.0" stroke="black" stroke-width="1" fill="none" />
<polyline points="264.0,432.0,280.0,416.0" stroke="black" stroke-width="1" fill="none" />
<polyline points="280.0,410.0,336.0,410.0" stroke="black" stroke-width="1" fill="none" />
<polyline points="368.0,434.0,392.0,434.0" stroke="black" stroke-width="1" fill="none" />
<polyline points="392.0,418.0,416.0,418.0" stroke="black" stroke-width="1" fill="none" />
<polyline points="408.0,426.0,424.0,426.0" stroke="black" stroke-width="1" fill="none" />
<polyline points="424.0,434.0,416.0,434.0" stroke="black" stroke-width="1" fill="none" />
<polyline points="408.0,450.0,400.0,450.0" stroke="black" stroke-width="1" fill="none" />
<polyline points="392.0,458.0,384.0,458.0" stroke="black" stroke-width="1" fill="none" />
<polyline points="376.0,450.0,392.0,450.0" stroke="black" stroke-width="1" fill="none" />
<polyline points="368.0,448.0,360.0,456.0,360.0,458.0,376.0,458.0" stroke="black" stroke-width="1" fill="none" />
<polyline points="376.0,466.0,368.0,466.0" stroke="black" stroke-width="1" fill="none" />
<polyline points="368.0,450.0,360.0,450.0" stroke="black" stroke-width="1" fill="none" />
<polyline points="368.0,442.0,400.0,442.0" stroke="black" stroke-width="1" fill="none" />
<polyline points="400.0,410.0,408.0,410.0" stroke="black" stroke-width="1" fill="none" />
<polyline points="424.0,408.0,432.0,400.0" stroke="black" stroke-width="1" fill="none" />
<polyline points="432.0,394.0,440.0,394.0" stroke="black" stroke-width="1" fill="none" />
<polyline points="448.0,386.0,464.0,386.0" stroke="black" stroke-width="1" fill="none" />
<polyline points="464.0,370.0,472.0,370.0" stroke="black" stroke-width="1" fill="none" />
<polyline points="456.0,360.0,448.0,368.0" stroke="black" stroke-width="1" fill="none" />
<polyline points="448.0,362.0,480.0,362.0" stroke="black" stroke-width="1" fill="none" />
<polyline points="472.0,354.0,456.0,354.0" stroke="black" stroke-width="1" fill="none" />
<polyline points="448.0,354.0,440.0,354.0" stroke="black" stroke-width="1" fill="none" />
<polyline points="440.0,370.0,432.0,370.0" stroke="black" stroke-width="1" fill="none" />
<polyline points="440.0,378.0,456.0,378.0" stroke="black" stroke-width="1" fill="none" />
<polyline points="456.0,402.0,448.0,402.0" stroke="black" stroke-width="1" fill="none" />
<polyline points="448.0,410.0,432.0,410.0" stroke="black" stroke-width="1" fill="none" />
<polyline points="424.0,402.0,440.0,402.0" stroke="black" stroke-width="1" fill="none" />
<polyline points="432.0,386.0,424.0,386.0" stroke="black" stroke-width="1" fill="none" />
<polyline points="424.0,394.0,416.0,394.0" stroke="black" stroke-width="1" fill="none" />
<polyline points="456.0,338.0,464.0,338.0" stroke="black" stroke-width="1" fill="none" />
<polyline points="408.0,302.0,360.0,302.0" stroke="black" stroke-width="1" fill="none" />
<polyline points="352.0,282.0,384.0,282.0" stroke="black" stroke-width="1" fill="none" />
<polyline points="360.0,272.0,352.0,280.0,352.0,278.0,368.0,278.0" stroke="black" stroke-width="1" fill="none" />
<polyline points="360.0,264.0,352.0,272.0" stroke="black" stroke-width="1" fill="none" />
<polyline points="352.0,264.0,344.0,272.0,344.0,270.0,360.0,270.0" stroke="black" stroke-width="1" fill="none" />
<polyline points="352.0,256.0,344.0,264.0" stroke="black" stroke-width="1" fill="none" />
<polyline points="344.0,274.0,376.0,274.0" stroke="black" stroke-width="1" fill="none" />
<polyline points="336.0,272.0,312.0,296.0,312.0,294.0,336.0,294.0" stroke="black" stroke-width="1" fill="none" />
<polyline points="336.0,288.0,256.0,368.0" stroke="black" stroke-width="1" fill="none" />
<polyline points="248.0,368.0,264.0,352.0" stroke="black" stroke-width="1" fill="none" />
<polyline points="264.0,346.0,288.0,346.0,288.0,344.0,272.0,360.0" stroke="black" stroke-width="1" fill="none" />
<polyline points="280.0,360.0,288.0,352.0" stroke="black" stroke-width="1" fill="none" />
<polyline points="296.0,362.0,328.0,362.0" stroke="black" stroke-width="1" fill="none" />
<polyline points="328.0,350.0,312.0,350.0" stroke="black" stroke-width="1" fill="none" />
<polyline points="304.0,346.0,336.0,346.0" stroke="black" stroke-width="1" fill="none" />
<polyline points="336.0,334.0,328.0,334.0,328.0,330.0,344.0,330.0" stroke="black" stroke-width="1" fill="none" />
<polyline points="336.0,328.0,304.0,360.0,304.0,358.0,328.0,358.0" stroke="black" stroke-width="1" fill="none" />
<polyline points="320.0,342.0,336.0,342.0" stroke="black" stroke-width="1" fill="none" />
<polyline points="328.0,328.0,336.0,320.0" stroke="black" stroke-width="1" fill="none" />
<polyline points="336.0,326.0,328.0,326.0" stroke="black" stroke-width="1" fill="none" />
<polyline points="336.0,302.0,312.0,302.0" stroke="black" stroke-width="1" fill="none" />
<polyline points="304.0,304.0,264.0,344.0" stroke="black" stroke-width="1" fill="none" />
<polyline points="264.0,338.0,296.0,338.0" stroke="black" stroke-width="1" fill="none" />
<polyline points="304.0,354.0,328.0,354.0" stroke="black" stroke-width="1" fill="none" />
<polyline points="328.0,370.0,304.0,370.0" stroke="black" stroke-width="1" fill="none" />
<polyline points="280.0,350.0,272.0,350.0" stroke="black" stroke-width="1" fill="none" />
<polyline points="272.0,344.0,336.0,280.0" stroke="black" stroke-width="1" fill="none" />
<polyline points="328.0,272.0,304.0,296.0" stroke="black" stroke-width="1" fill="none" />
<polyline points="304.0,288.0,320.0,272.0" stroke="black" stroke-width="1" fill="none" />
<polyline points="312.0,272.0,264.0,320.0,264.0,318.0,328.0,318.0" stroke="black" stroke-width="1" fill="none" />
<polyline points="296.0,304.0,264.0,336.0,264.0,334.0,296.0,334.0" stroke="black" stroke-width="1" fill="none" />
<polyline points="288.0,342.0,272.0,342.0" stroke="black" stroke-width="1" fill="none" />
<polyline points="264.0,330.0,312.0,330.0" stroke="black" stroke-width="1" fill="none" />
<polyline points="288.0,304.0,264.0,328.0,264.0,326.0,320.0,326.0" stroke="black" stroke-width="1" fill="none" />
<polyline points="336.0,286.0,296.0,286.0" stroke="black" stroke-width="1" fill="none" />
<polyline points="296.0,280.0,304.0,272.0" stroke="black" stroke-width="1" fill="none" />
<polyline points="304.0,278.0,328.0,278.0" stroke="black" stroke-width="1" fill="none" />
<polyline points="328.0,264.0,336.0,256.0" stroke="black" stroke-width="1" fill="none" />
<polyline points="336.0,248.0,328.0,256.0" stroke="black" stroke-width="1" fill="none" />
<polyline points="328.0,262.0,352.0,262.0" stroke="black" stroke-width="1" fill="none" />
<polyline points="328.0,248.0,320.0,256.0,320.0,254.0,328.0,254.0" stroke="black" stroke-width="1" fill="none" />
<polyline points="320.0,248.0,304.0,264.0" stroke="black" stroke-width="1" fill="none" />
<polyline points="312.0,248.0,256.0,304.0,256.0,306.0,344.0,306.0" stroke="black" stroke-width="1" fill="none" />
<polyline points="288.0,280.0,264.0,304.0,264.0,302.0,280.0,302.0" stroke="black" stroke-width="1" fill="none" />
<polyline points="280.0,296.0,264.0,312.0,264.0,310.0,336.0,310.0" stroke="black" stroke-width="1" fill="none" />
<polyline points="280.0,272.0,256.0,296.0,256.0,298.0,344.0,298.0" stroke="black" stroke-width="1" fill="none" />
<polyline points="304.0,240.0,248.0,296.0,248.0,294.0,280.0,294.0" stroke="black" stroke-width="1" fill="none" />
<polyline points="256.0,314.0,336.0,314.0" stroke="black" stroke-width="1" fill="none" />
<polyline points="304.0,246.0,288.0,246.0" stroke="black" stroke-width="1" fill="none" />
<polyline points="288.0,240.0,240.0,288.0,240.0,290.0,344.0,290.0" stroke="black" stroke-width="1" fill="none" />
<polyline points="296.0,240.0,240.0,296.0" stroke="black" stroke-width="1" fill="none" />
<polyline points="232.0,288.0,280.0,240.0" stroke="black" stroke-width="1" fill="none" />
<polyline points="256.0,248.0,224.0,280.0,224.0,278.0,272.0,278.0" stroke="black" stroke-width="1" fill="none" />
<polyline points="248.0,248.0,224.0,272.0,224.0,270.0,280.0,270.0" stroke="black" stroke-width="1" fill="none" />
<polyline points="248.0,242.0,312.0,242.0" stroke="black" stroke-width="1" fill="none" />
<polyline points="304.0,218.0,408.0,218.0" stroke="black" stroke-width="1" fill="none" />
<polyline points="344.0,192.0,328.0,208.0,328.0,206.0,336.0,206.0" stroke="black" stroke-width="1" fill="none" />
<polyline points="336.0,198.0,344.0,198.0" stroke="black" stroke-width="1" fill="none" />
<polyline points="328.0,200.0,352.0,176.0" stroke="black" stroke-width="1" fill="none" />
<polyline points="344.0,176.0,320.0,200.0" stroke="black" stroke-width="1" fill="none" />
<polyline points="328.0,202.0,344.0,202.0" stroke="black" stroke-width="1" fill="none" />
<polyline points="328.0,184.0,296.0,216.0" stroke="black" stroke-width="1" fill="none" />
<polyline points="288.0,216.0,320.0,184.0" stroke="black" stroke-width="1" fill="none" />
<polyline points="320.0,176.0,288.0,208.0,288.0,206.0,312.0,206.0" stroke="black" stroke-width="1" fill="none" />
<polyline points="320.0,210.0,336.0,210.0" stroke="black" stroke-width="1" fill="none" />
<polyline points="320.0,182.0,304.0,182.0" stroke="black" stroke-width="1" fill="none" />
<polyline points="304.0,176.0,320.0,160.0" stroke="black" stroke-width="1" fill="none" />
<polyline points="320.0,152.0,296.0,176.0,296.0,178.0,352.0,178.0" stroke="black" stroke-width="1" fill="none" />
<polyline points="360.0,166.0,376.0,166.0" stroke="black" stroke-width="1" fill="none" />
<polyline points="376.0,154.0,352.0,154.0,352.0,152.0,368.0,136.0" stroke="black" stroke-width="1" fill="none" />
<polyline points="376.0,130.0,392.0,130.0" stroke="black" stroke-width="1" fill="none" />
<polyline points="352.0,128.0,344.0,136.0" stroke="black" stroke-width="1" fill="none" />
<polyline points="336.0,138.0,392.0,138.0" stroke="black" stroke-width="1" fill="none" />
<polyline points="384.0,150.0,352.0,150.0" stroke="black" stroke-width="1" fill="none" />
<polyline points="336.0,160.0,328.0,168.0" stroke="black" stroke-width="1" fill="none" />
<polyline points="328.0,160.0,288.0,200.0,288.0,202.0,320.0,202.0,320.0,198.0,296.0,198.0" stroke="black" stroke-width="1" fill="none" />
<polyline points="296.0,190.0,344.0,190.0" stroke="black" stroke-width="1" fill="none" />
<polyline points="352.0,186.0,296.0,186.0" stroke="black" stroke-width="1" fill="none" />
<polyline points="288.0,194.0,344.0,194.0" stroke="black" stroke-width="1" fill="none" />
<polyline points="312.0,152.0,288.0,176.0,288.0,174.0,312.0,174.0" stroke="black" stroke-width="1" fill="none" />
<polyline points="328.0,170.0,288.0,170.0,288.0,168.0,312.0,144.0" stroke="black" stroke-width="1" fill="none" />
<polyline points="304.0,144.0,288.0,160.0,288.0,158.0,320.0,158.0" stroke="black" stroke-width="1" fill="none" />
<polyline points="328.0,130.0,352.0,130.0" stroke="black" stroke-width="1" fill="none" />
<polyline points="344.0,120.0,336.0,128.0" stroke="black" stroke-width="1" fill="none" />
<polyline points="328.0,120.0,336.0,112.0" stroke="black" stroke-width="1" fill="none" />
<polyline points="328.0,112.0,320.0,120.0,320.0,122.0,344.0,122.0" stroke="black" stroke-width="1" fill="none" />
<polyline points="336.0,114.0,312.0,114.0,312.0,110.0,320.0,110.0" stroke="black" stroke-width="1" fill="none" />
<polyline points="312.0,96.0,304.0,104.0" stroke="black" stroke-width="1" fill="none" />
<polyline points="304.0,96.0,296.0,104.0,296.0,106.0,328.0,106.0" stroke="black" stroke-width="1" fill="none" />
<polyline points="296.0,88.0,280.0,104.0" stroke="black" stroke-width="1" fill="none" />
<polyline points="280.0,96.0,288.0,88.0" stroke="black" stroke-width="1" fill="none" />
<polyline points="288.0,146.0,320.0,146.0" stroke="black" stroke-width="1" fill="none" />
<polyline points="328.0,166.0,288.0,166.0,288.0,162.0,336.0,162.0" stroke="black" stroke-width="1" fill="none" />
<polyline points="328.0,154.0,288.0,154.0" stroke="black" stroke-width="1" fill="none" />
<polyline points="272.0,168.0,216.0,224.0" stroke="black" stroke-width="1" fill="none" />
<polyline points="224.0,224.0,264.0,184.0" stroke="black" stroke-width="1" fill="none" />
<polyline points="272.0,184.0,232.0,224.0" stroke="black" stroke-width="1" fill="none" />
<polyline points="232.0,232.0,224.0,240.0" stroke="black" stroke-width="1" fill="none" />
<polyline points="224.0,232.0,216.0,240.0" stroke="black" stroke-width="1" fill="none" />
<polyline points="216.0,248.0,200.0,264.0" stroke="black" stroke-width="1" fill="none" />
<polyline points="208.0,264.0,224.0,248.0" stroke="black" stroke-width="1" fill="none" />
<polyline points="224.0,254.0,288.0,254.0" stroke="black" stroke-width="1" fill="none" />
<polyline points="288.0,210.0,312.0,210.0" stroke="black" stroke-width="1" fill="none" />
<polyline points="280.0,184.0,272.0,192.0" stroke="black" stroke-width="1" fill="none" />
<polyline points="264.0,200.0,240.0,224.0" stroke="black" stroke-width="1" fill="none" />
<polyline points="240.0,232.0,232.0,240.0" stroke="black" stroke-width="1" fill="none" />
<polyline points="232.0,248.0,216.0,264.0,216.0,266.0,328.0,266.0" stroke="black" stroke-width="1" fill="none" />
<polyline points="264.0,208.0,256.0,216.0" stroke="black" stroke-width="1" fill="none" />
<polyline points="248.0,226.0,328.0,226.0" stroke="black" stroke-width="1" fill="none" />
<polyline points="264.0,168.0,208.0,224.0" stroke="black" stroke-width="1" fill="none" />
<polyline points="200.0,224.0,256.0,168.0" stroke="black" stroke-width="1" fill="none" />
<polyline points="256.0,160.0,200.0,216.0,200.0,218.0,264.0,218.0" stroke="black" stroke-width="1" fill="none" />
<polyline points="240.0,248.0,216.0,272.0" stroke="black" stroke-width="1" fill="none" />
<polyline points="224.0,274.0,336.0,274.0" stroke="black" stroke-width="1" fill="none" />
<polyline points="336.0,322.0,256.0,322.0" stroke="black" stroke-width="1" fill="none" />
<polyline points="256.0,352.0,240.0,368.0" stroke="black" stroke-width="1" fill="none" />
<polyline points="240.0,360.0,224.0,376.0" stroke="black" stroke-width="1" fill="none" />
<polyline points="224.0,366.0,248.0,366.0" stroke="black" stroke-width="1" fill="none" />
<polyline points="240.0,354.0,288.0,354.0,288.0,358.0,264.0,358.0" stroke="black" stroke-width="1" fill="none" />
<polyline points="248.0,384.0,232.0,400.0,232.0,398.0,240.0,398.0,240.0,400.0,248.0,392.0,248.0,390.0,240.0,390.0" stroke="black" stroke-width="1" fill="none" />
<polyline points="240.0,384.0,232.0,392.0" stroke="black" stroke-width="1" fill="none" />
<polyline points="232.0,386.0,248.0,386.0" stroke="black" stroke-width="1" fill="none" />
<polyline points="240.0,378.0,256.0,378.0" stroke="black" stroke-width="1" fill="none" />
<polyline points="232.0,360.0,208.0,384.0,208.0,382.0,216.0,382.0" stroke="black" stroke-width="1" fill="none" />
<polyline points="208.0,376.0,224.0,360.0" stroke="black" stroke-width="1" fill="none" />
<polyline points="224.0,374.0,208.0,374.0" stroke="black" stroke-width="1" fill="none" />
<polyline points="208.0,368.0,200.0,376.0,200.0,378.0,216.0,378.0" stroke="black" stroke-width="1" fill="none" />
<polyline points="208.0,392.0,184.0,416.0" stroke="black" stroke-width="1" fill="none" />
<polyline points="184.0,424.0,208.0,400.0" stroke="black" stroke-width="1" fill="none" />
<polyline points="216.0,400.0,192.0,424.0,192.0,422.0,312.0,422.0" stroke="black" stroke-width="1" fill="none" />
<polyline points="320.0,458.0,328.0,458.0" stroke="black" stroke-width="1" fill="none" />
<polyline points="336.0,458.0,344.0,458.0" stroke="black" stroke-width="1" fill="none" />
<polyline points="344.0,466.0,352.0,466.0" stroke="black" stroke-width="1" fill="none" />
<polyline points="344.0,474.0,368.0,474.0" stroke="black" stroke-width="1" fill="none" />
<polyline points="336.0,490.0,312.0,490.0" stroke="black" stroke-width="1" fill="none" />
<polyline points="304.0,482.0,320.0,482.0" stroke="black" stroke-width="1" fill="none" />
<polyline points="320.0,466.0,312.0,466.0" stroke="black" stroke-width="1" fill="none" />
<polyline points="312.0,474.0,304.0,474.0" stroke="black" stroke-width="1" fill="none" />
<polyline points="280.0,490.0,272.0,490.0" stroke="black" stroke-width="1" fill="none" />
<polyline points="272.0,482.0,280.0,482.0" stroke="black" stroke-width="1" fill="none" />
<polyline points="280.0,498.0,248.0,498.0" stroke="black" stroke-width="1" fill="none" />
<polyline points="248.0,490.0,256.0,490.0" stroke="black" stroke-width="1" fill="none" />
<polyline points="256.0,482.0,248.0,482.0" stroke="black" stroke-width="1" fill="none" />
<polyline points="248.0,474.0,280.0,474.0" stroke="black" stroke-width="1" fill="none" />
<polyline points="240.0,488.0,232.0,496.0,232.0,498.0,240.0,498.0,240.0,496.0,232.0,504.0" stroke="black" stroke-width="1" fill="none" />
<polyline points="224.0,490.0,240.0,490.0" stroke="black" stroke-width="1" fill="none" />
<polyline points="240.0,474.0,232.0,474.0" stroke="black" stroke-width="1" fill="none" />
<polyline points="224.0,472.0,216.0,480.0" stroke="black" stroke-width="1" fill="none" />
<polyline points="208.0,482.0,240.0,482.0" stroke="black" stroke-width="1" fill="none" />
<polyline points="216.0,490.0,208.0,490.0" stroke="black" stroke-width="1" fill="none" />
<polyline points="200.0,490.0,192.0,490.0" stroke="black" stroke-width="1" fill="none" />
<polyline points="176.0,480.0,192.0,464.0" stroke="black" stroke-width="1" fill="none" />
<polyline points="184.0,466.0,200.0,466.0" stroke="black" stroke-width="1" fill="none" />
<polyline points="208.0,474.0,224.0,474.0" stroke="black" stroke-width="1" fill="none" />
<polyline points="232.0,432.0,248.0,416.0" stroke="black" stroke-width="1" fill="none" />
<polyline points="240.0,416.0,224.0,432.0" stroke="black" stroke-width="1" fill="none" />
<polyline points="216.0,432.0,240.0,408.0" stroke="black" stroke-width="1" fill="none" />
<polyline points="232.0,408.0,208.0,432.0" stroke="black" stroke-width="1" fill="none" />
<polyline points="208.0,424.0,224.0,408.0" stroke="black" stroke-width="1" fill="none" />
<polyline points="216.0,408.0,200.0,424.0,200.0,426.0,304.0,426.0" stroke="black" stroke-width="1" fill="none" />
<polyline points="272.0,416.0,256.0,432.0" stroke="black" stroke-width="1" fill="none" />
<polyline points="248.0,432.0,264.0,416.0" stroke="black" stroke-width="1" fill="none" />
<polyline points="256.0,416.0,240.0,432.0" stroke="black" stroke-width="1" fill="none" />
<polyline points="216.0,430.0,280.0,430.0" stroke="black" stroke-width="1" fill="none" />
<polyline points="248.0,394.0,224.0,394.0" stroke="black" stroke-width="1" fill="none" />
<polyline points="200.0,392.0,176.0,416.0,176.0,414.0,232.0,414.0" stroke="black" stroke-width="1" fill="none" />
<polyline points="192.0,392.0,168.0,416.0" stroke="black" stroke-width="1" fill="none" />
<polyline points="168.0,408.0,192.0,384.0" stroke="black" stroke-width="1" fill="none" />
<polyline points="184.0,384.0,160.0,408.0,160.0,406.0,216.0,406.0" stroke="black" stroke-width="1" fill="none" />
<polyline points="200.0,370.0,232.0,370.0" stroke="black" stroke-width="1" fill="none" />
<polyline points="208.0,362.0,288.0,362.0" stroke="black" stroke-width="1" fill="none" />
<polyline points="272.0,286.0,232.0,286.0" stroke="black" stroke-width="1" fill="none" />
<polyline points="208.0,262.0,280.0,262.0" stroke="black" stroke-width="1" fill="none" />
<polyline points="264.0,198.0,216.0,198.0" stroke="black" stroke-width="1" fill="none" />
<polyline points="216.0,190.0,272.0,190.0" stroke="black" stroke-width="1" fill="none" />
<polyline points="256.0,152.0,208.0,200.0" stroke="black" stroke-width="1" fill="none" />
<polyline points="208.0,194.0,272.0,194.0" stroke="black" stroke-width="1" fill="none" />
<polyline points="248.0,152.0,208.0,192.0" stroke="black" stroke-width="1" fill="none" />
<polyline points="200.0,192.0,184.0,208.0" stroke="black" stroke-width="1" fill="none" />
<polyline points="176.0,208.0,240.0,144.0" stroke="black" stroke-width="1" fill="none" />
<polyline points="240.0,136.0,176.0,200.0,176.0,202.0,192.0,202.0" stroke="black" stroke-width="1" fill="none" />
<polyline points="200.0,202.0,264.0,202.0" stroke="black" stroke-width="1" fill="none" />
<polyline points="240.0,152.0,208.0,184.0" stroke="black" stroke-width="1" fill="none" />
<polyline points="208.0,206.0,264.0,206.0" stroke="black" stroke-width="1" fill="none" />
<polyline points="264.0,214.0,208.0,214.0" stroke="black" stroke-width="1" fill="none" />
<polyline points="200.0,210.0,272.0,210.0" stroke="black" stroke-width="1" fill="none" />
<polyline points="208.0,226.0,200.0,226.0,200.0,222.0,224.0,222.0" stroke="black" stroke-width="1" fill="none" />
<polyline points="184.0,234.0,264.0,234.0" stroke="black" stroke-width="1" fill="none" />
<polyline points="240.0,150.0,192.0,150.0" stroke="black" stroke-width="1" fill="none" />
<polyline points="192.0,144.0,184.0,152.0,184.0,154.0,256.0,154.0" stroke="black" stroke-width="1" fill="none" />
<polyline points="224.0,144.0,184.0,184.0,184.0,182.0,264.0,182.0" stroke="black" stroke-width="1" fill="none" />
<polyline points="224.0,136.0,184.0,176.0,184.0,174.0,264.0,174.0" stroke="black" stroke-width="1" fill="none" />
<polyline points="216.0,136.0,184.0,168.0,184.0,166.0,248.0,166.0" stroke="black" stroke-width="1" fill="none" />
<polyline points="208.0,136.0,184.0,160.0,184.0,158.0,248.0,158.0" stroke="black" stroke-width="1" fill="none" />
<polyline points="248.0,138.0,200.0,138.0" stroke="black" stroke-width="1" fill="none" />
<polyline points="176.0,146.0,248.0,146.0" stroke="black" stroke-width="1" fill="none" />
<polyline points="200.0,112.0,224.0,88.0" stroke="black" stroke-width="1" fill="none" />
<polyline points="216.0,88.0,80.0,224.0,80.0,226.0,128.0,226.0" stroke="black" stroke-width="1" fill="none" />
<polyline points="128.0,258.0,112.0,258.0" stroke="black" stroke-width="1" fill="none" />
<polyline points="112.0,264.0,80.0,296.0,80.0,298.0,136.0,298.0,136.0,296.0,96.0,336.0,96.0,334.0,144.0,334.0" stroke="black" stroke-width="1" fill="none" />
<polyline points="144.0,328.0,112.0,360.0,112.0,358.0,160.0,358.0,160.0,360.0,136.0,384.0,136.0,386.0,200.0,386.0" stroke="black" stroke-width="1" fill="none" />
<polyline points="184.0,376.0,152.0,408.0" stroke="black" stroke-width="1" fill="none" />
<polyline points="152.0,402.0,224.0,402.0" stroke="black" stroke-width="1" fill="none" />
<polyline points="176.0,418.0,320.0,418.0" stroke="black" stroke-width="1" fill="none" />
<polyline points="176.0,376.0,152.0,400.0,152.0,398.0,200.0,398.0" stroke="black" stroke-width="1" fill="none" />
<polyline points="176.0,368.0,144.0,400.0" stroke="black" stroke-width="1" fill="none" />
<polyline points="144.0,394.0,208.0,394.0" stroke="black" stroke-width="1" fill="none" />
<polyline points="168.0,368.0,144.0,392.0" stroke="black" stroke-width="1" fill="none" />
<polyline points="136.0,392.0,168.0,360.0" stroke="black" stroke-width="1" fill="none" />
<polyline points="160.0,352.0,128.0,384.0,128.0,382.0,184.0,382.0" stroke="black" stroke-width="1" fill="none" />
<polyline points="160.0,410.0,256.0,410.0" stroke="black" stroke-width="1" fill="none" />
<polyline points="200.0,474.0,176.0,474.0" stroke="black" stroke-width="1" fill="none" />
<polyline points="168.0,482.0,200.0,482.0" stroke="black" stroke-width="1" fill="none" />
<polyline points="152.0,448.0,144.0,456.0,144.0,458.0,136.0,458.0" stroke="black" stroke-width="1" fill="none" />
<polyline points="136.0,466.0,144.0,466.0" stroke="black" stroke-width="1" fill="none" />
<polyline points="152.0,450.0,128.0,450.0" stroke="black" stroke-width="1" fill="none" />
<polyline points="128.0,440.0,112.0,456.0" stroke="black" stroke-width="1" fill="none" />
<polyline points="112.0,450.0,120.0,450.0" stroke="black" stroke-width="1" fill="none" />
<polyline points="120.0,442.0,136.0,442.0" stroke="black" stroke-width="1" fill="none" />
<polyline points="144.0,442.0,152.0,442.0" stroke="black" stroke-width="1" fill="none" />
<polyline points="128.0,432.0,120.0,440.0" stroke="black" stroke-width="1" fill="none" />
<polyline points="120.0,434.0,136.0,434.0" stroke="black" stroke-width="1" fill="none" />
<polyline points="120.0,426.0,104.0,426.0" stroke="black" stroke-width="1" fill="none" />
<polyline points="104.0,418.0,112.0,418.0" stroke="black" stroke-width="1" fill="none" />
<polyline points="96.0,408.0,80.0,424.0,80.0,426.0,88.0,426.0" stroke="black" stroke-width="1" fill="none" />
<polyline points="88.0,434.0,112.0,434.0" stroke="black" stroke-width="1" fill="none" />
<polyline points="112.0,410.0,88.0,410.0" stroke="black" stroke-width="1" fill="none" />
<polyline points="88.0,418.0,80.0,418.0" stroke="black" stroke-width="1" fill="none" />
<polyline points="72.0,408.0,80.0,400.0" stroke="black" stroke-width="1" fill="none" />
<polyline points="80.0,394.0,88.0,394.0" stroke="black" stroke-width="1" fill="none" />
<polyline points="88.0,386.0,80.0,386.0" stroke="black" stroke-width="1" fill="none" />
<polyline points="72.0,376.0,64.0,384.0" stroke="black" stroke-width="1" fill="none" />
<polyline points="64.0,378.0,80.0,378.0" stroke="black" stroke-width="1" fill="none" />
<polyline points="72.0,362.0,64.0,362.0" stroke="black" stroke-width="1" fill="none" />
<polyline points="56.0,352.0,48.0,360.0" stroke="black" stroke-width="1" fill="none" />
<polyline points="40.0,354.0,72.0,354.0" stroke="black" stroke-width="1" fill="none" />
<polyline points="64.0,346.0,56.0,346.0" stroke="black" stroke-width="1" fill="none" />
<polyline points="56.0,362.0,32.0,362.0" stroke="black" stroke-width="1" fill="none" />
<polyline points="40.0,370.0,48.0,370.0" stroke="black" stroke-width="1" fill="none" />
<polyline points="48.0,386.0,64.0,386.0" stroke="black" stroke-width="1" fill="none" />
<polyline points="64.0,394.0,56.0,394.0" stroke="black" stroke-width="1" fill="none" />
<polyline points="56.0,402.0,80.0,402.0" stroke="black" stroke-width="1" fill="none" />
<polyline points="120.0,376.0,152.0,344.0" stroke="black" stroke-width="1" fill="none" />
<polyline points="152.0,336.0,120.0,368.0,120.0,366.0,168.0,366.0" stroke="black" stroke-width="1" fill="none" />
<polyline points="160.0,344.0,128.0,376.0,128.0,378.0,192.0,378.0" stroke="black" stroke-width="1" fill="none" />
<polyline points="192.0,390.0,136.0,390.0" stroke="black" stroke-width="1" fill="none" />
<polyline points="120.0,374.0,176.0,374.0" stroke="black" stroke-width="1" fill="none" />
<polyline points="152.0,328.0,112.0,368.0" stroke="black" stroke-width="1" fill="none" />
<polyline points="112.0,362.0,176.0,362.0" stroke="black" stroke-width="1" fill="none" />
<polyline points="144.0,320.0,112.0,352.0" stroke="black" stroke-width="1" fill="none" />
<polyline points="104.0,352.0,144.0,312.0" stroke="black" stroke-width="1" fill="none" />
<polyline points="136.0,312.0,104.0,344.0,104.0,342.0,152.0,342.0" stroke="black" stroke-width="1" fill="none" />
<polyline points="152.0,306.0,160.0,306.0" stroke="black" stroke-width="1" fill="none" />
<polyline points="152.0,304.0,160.0,296.0" stroke="black" stroke-width="1" fill="none" />
<polyline points="160.0,288.0,152.0,296.0,152.0,298.0,160.0,298.0,160.0,302.0,152.0,302.0" stroke="black" stroke-width="1" fill="none" />
<polyline points="152.0,288.0,160.0,280.0" stroke="black" stroke-width="1" fill="none" />
<polyline points="160.0,272.0,152.0,280.0,152.0,278.0,160.0,278.0" stroke="black" stroke-width="1" fill="none" />
<polyline points="160.0,286.0,152.0,286.0" stroke="black" stroke-width="1" fill="none" />
<polyline points="144.0,282.0,160.0,282.0" stroke="black" stroke-width="1" fill="none" />
<polyline points="160.0,274.0,152.0,274.0,152.0,272.0,160.0,264.0" stroke="black" stroke-width="1" fill="none" />
<polyline points="160.0,258.0,360.0,258.0" stroke="black" stroke-width="1" fill="none" />
<polyline points="304.0,90.0,192.0,90.0" stroke="black" stroke-width="1" fill="none" />
<polyline points="192.0,96.0,88.0,200.0,88.0,202.0,136.0,202.0" stroke="black" stroke-width="1" fill="none" />
<polyline points="144.0,168.0,80.0,232.0,80.0,230.0,128.0,230.0" stroke="black" stroke-width="1" fill="none" />
<polyline points="128.0,264.0,88.0,304.0,88.0,302.0,128.0,302.0" stroke="black" stroke-width="1" fill="none" />
<polyline points="128.0,296.0,96.0,328.0,96.0,326.0,144.0,326.0" stroke="black" stroke-width="1" fill="none" />
<polyline points="136.0,304.0,96.0,344.0" stroke="black" stroke-width="1" fill="none" />
<polyline points="96.0,338.0,152.0,338.0" stroke="black" stroke-width="1" fill="none" />
<polyline points="120.0,370.0,184.0,370.0" stroke="black" stroke-width="1" fill="none" />
<polyline points="168.0,354.0,104.0,354.0,104.0,350.0,152.0,350.0" stroke="black" stroke-width="1" fill="none" />
<polyline points="160.0,346.0,104.0,346.0" stroke="black" stroke-width="1" fill="none" />
<polyline points="96.0,330.0,152.0,330.0" stroke="black" stroke-width="1" fill="none" />
<polyline points="144.0,290.0,160.0,290.0" stroke="black" stroke-width="1" fill="none" />
<polyline points="152.0,266.0,184.0,266.0" stroke="black" stroke-width="1" fill="none" />
<polyline points="160.0,248.0,168.0,240.0" stroke="black" stroke-width="1" fill="none" />
<polyline points="176.0,210.0,192.0,210.0" stroke="black" stroke-width="1" fill="none" />
<polyline points="192.0,198.0,184.0,198.0" stroke="black" stroke-width="1" fill="none" />
<polyline points="184.0,190.0,200.0,190.0" stroke="black" stroke-width="1" fill="none" />
<polyline points="192.0,206.0,176.0,206.0" stroke="black" stroke-width="1" fill="none" />
<polyline points="176.0,194.0,200.0,194.0" stroke="black" stroke-width="1" fill="none" />
<polyline points="176.0,186.0,280.0,186.0" stroke="black" stroke-width="1" fill="none" />
<polyline points="232.0,102.0,184.0,102.0" stroke="black" stroke-width="1" fill="none" />
<polyline points="184.0,96.0,96.0,184.0,96.0,182.0,136.0,182.0" stroke="black" stroke-width="1" fill="none" />
<polyline points="144.0,166.0,112.0,166.0" stroke="black" stroke-width="1" fill="none" />
<polyline points="112.0,158.0,152.0,158.0" stroke="black" stroke-width="1" fill="none" />
<polyline points="176.0,162.0,264.0,162.0" stroke="black" stroke-width="1" fill="none" />
<polyline points="272.0,178.0,176.0,178.0" stroke="black" stroke-width="1" fill="none" />
<polyline points="176.0,170.0,272.0,170.0" stroke="black" stroke-width="1" fill="none" />
<polyline points="208.0,88.0,88.0,208.0,88.0,206.0,128.0,206.0" stroke="black" stroke-width="1" fill="none" />
<polyline points="128.0,198.0,96.0,198.0" stroke="black" stroke-width="1" fill="none" />
<polyline points="96.0,190.0,136.0,190.0" stroke="black" stroke-width="1" fill="none" />
<polyline points="144.0,174.0,104.0,174.0" stroke="black" stroke-width="1" fill="none" />
<polyline points="104.0,168.0,168.0,104.0" stroke="black" stroke-width="1" fill="none" />
<polyline points="168.0,110.0,208.0,110.0" stroke="black" stroke-width="1" fill="none" />
<polyline points="176.0,98.0,320.0,98.0" stroke="black" stroke-width="1" fill="none" />
<polyline points="176.0,66.0,168.0,66.0" stroke="black" stroke-width="1" fill="none" />
<polyline points="160.0,58.0,184.0,58.0" stroke="black" stroke-width="1" fill="none" />
<polyline points="168.0,48.0,160.0,56.0" stroke="black" stroke-width="1" fill="none" />
<polyline points="160.0,50.0,176.0,50.0" stroke="black" stroke-width="1" fill="none" />
<polyline points="176.0,34.0,160.0,34.0" stroke="black" stroke-width="1" fill="none" />
<polyline points="152.0,42.0,168.0,42.0" stroke="black" stroke-width="1" fill="none" />
<polyline points="152.0,56.0,144.0,64.0" stroke="black" stroke-width="1" fill="none" />
<polyline points="144.0,58.0,152.0,58.0" stroke="black" stroke-width="1" fill="none" />
<polyline points="144.0,50.0,136.0,50.0" stroke="black" stroke-width="1" fill="none" />
<polyline points="128.0,58.0,120.0,58.0" stroke="black" stroke-width="1" fill="none" />
<polyline points="120.0,66.0,160.0,66.0" stroke="black" stroke-width="1" fill="none" />
<polyline points="136.0,72.0,128.0,80.0,128.0,82.0,136.0,82.0" stroke="black" stroke-width="1" fill="none" />
<polyline points="136.0,74.0,128.0,74.0" stroke="black" stroke-width="1" fill="none" />
<polyline points="120.0,98.0,112.0,98.0" stroke="black" stroke-width="1" fill="none" />
<polyline points="104.0,90.0,120.0,90.0" stroke="black" stroke-width="1" fill="none" />
<polyline points="104.0,74.0,96.0,74.0" stroke="black" stroke-width="1" fill="none" />
<polyline points="88.0,82.0,112.0,82.0" stroke="black" stroke-width="1" fill="none" />
<polyline points="96.0,106.0,88.0,106.0" stroke="black" stroke-width="1" fill="none" />
<polyline points="88.0,114.0,96.0,114.0" stroke="black" stroke-width="1" fill="none" />
<polyline points="96.0,122.0,88.0,122.0" stroke="black" stroke-width="1" fill="none" />
<polyline points="88.0,130.0,80.0,130.0" stroke="black" stroke-width="1" fill="none" />
<polyline points="80.0,146.0,72.0,146.0" stroke="black" stroke-width="1" fill="none" />
<polyline points="64.0,122.0,80.0,122.0" stroke="black" stroke-width="1" fill="none" />
<polyline points="72.0,114.0,64.0,114.0" stroke="black" stroke-width="1" fill="none" />
<polyline points="80.0,98.0,88.0,98.0" stroke="black" stroke-width="1" fill="none" />
<polyline points="120.0,138.0,168.0,138.0" stroke="black" stroke-width="1" fill="none" />
<polyline points="152.0,118.0,192.0,118.0" stroke="black" stroke-width="1" fill="none" />
<polyline points="216.0,106.0,160.0,106.0" stroke="black" stroke-width="1" fill="none" />
<polyline points="144.0,114.0,200.0,114.0" stroke="black" stroke-width="1" fill="none" />
<polyline points="184.0,126.0,144.0,126.0" stroke="black" stroke-width="1" fill="none" />
<polyline points="136.0,122.0,192.0,122.0" stroke="black" stroke-width="1" fill="none" />
<polyline points="168.0,134.0,136.0,134.0" stroke="black" stroke-width="1" fill="none" />
<polyline points="128.0,130.0,176.0,130.0" stroke="black" stroke-width="1" fill="none" />
<polyline points="160.0,142.0,128.0,142.0" stroke="black" stroke-width="1" fill="none" />
<polyline points="120.0,150.0,160.0,150.0" stroke="black" stroke-width="1" fill="none" />
<polyline points="152.0,154.0,112.0,154.0" stroke="black" stroke-width="1" fill="none" />
<polyline points="112.0,146.0,160.0,146.0" stroke="black" stroke-width="1" fill="none" />
<polyline points="152.0,162.0,104.0,162.0" stroke="black" stroke-width="1" fill="none" />
<polyline points="96.0,170.0,144.0,170.0" stroke="black" stroke-width="1" fill="none" />
<polyline points="144.0,178.0,96.0,178.0" stroke="black" stroke-width="1" fill="none" />
<polyline points="88.0,194.0,136.0,194.0" stroke="black" stroke-width="1" fill="none" />
<polyline points="128.0,222.0,88.0,222.0" stroke="black" stroke-width="1" fill="none" />
<polyline points="88.0,214.0,128.0,214.0" stroke="black" stroke-width="1" fill="none" />
<polyline points="136.0,250.0,80.0,250.0" stroke="black" stroke-width="1" fill="none" />
<polyline points="80.0,266.0,128.0,266.0" stroke="black" stroke-width="1" fill="none" />
<polyline points="128.0,272.0,88.0,312.0,88.0,310.0,136.0,310.0" stroke="black" stroke-width="1" fill="none" />
<polyline points="128.0,288.0,96.0,320.0" stroke="black" stroke-width="1" fill="none" />
<polyline points="88.0,320.0,128.0,280.0" stroke="black" stroke-width="1" fill="none" />
<polyline points="120.0,264.0,88.0,296.0,88.0,294.0,128.0,294.0" stroke="black" stroke-width="1" fill="none" />
<polyline points="104.0,264.0,80.0,288.0,80.0,286.0,128.0,286.0" stroke="black" stroke-width="1" fill="none" />
<polyline points="96.0,264.0,80.0,280.0,80.0,278.0,128.0,278.0" stroke="black" stroke-width="1" fill="none" />
<polyline points="144.0,314.0,88.0,314.0,88.0,318.0,136.0,318.0" stroke="black" stroke-width="1" fill="none" />
<polyline points="144.0,322.0,88.0,322.0" stroke="black" stroke-width="1" fill="none" />
<polyline points="88.0,306.0,136.0,306.0" stroke="black" stroke-width="1" fill="none" />
<polyline points="128.0,270.0,88.0,270.0" stroke="black" stroke-width="1" fill="none" />
<polyline points="88.0,264.0,80.0,272.0,80.0,274.0,128.0,274.0" stroke="black" stroke-width="1" fill="none" />
<polyline points="136.0,290.0,80.0,290.0" stroke="black" stroke-width="1" fill="none" />
<polyline points="80.0,282.0,136.0,282.0" stroke="black" stroke-width="1" fill="none" />
<polyline points="128.0,218.0,80.0,218.0" stroke="black" stroke-width="1" fill="none" />
<polyline points="80.0,210.0,128.0,210.0" stroke="black" stroke-width="1" fill="none" />
<polyline points="64.0,258.0,24.0,258.0" stroke="black" stroke-width="1" fill="none" />
<polyline points="32.0,290.0,48.0,290.0" stroke="black" stroke-width="1" fill="none" />
<polyline points="40.0,306.0,32.0,306.0" stroke="black" stroke-width="1" fill="none" />
<polyline points="40.0,320.0,32.0,328.0,32.0,330.0,56.0,330.0" stroke="black" stroke-width="1" fill="none" />
<polyline points="48.0,338.0,32.0,338.0" stroke="black" stroke-width="1" fill="none" />
<polyline points="24.0,322.0,56.0,322.0" stroke="black" stroke-width="1" fill="none" />
<polyline points="48.0,298.0,16.0,298.0" stroke="black" stroke-width="1" fill="none" />
<polyline points="24.0,186.0,48.0,186.0" stroke="black" stroke-width="1" fill="none" />
</svg>